<?xml version="1.0" encoding="UTF-8"?><svg id="_레이어_2" xmlns="http://www.w3.org/2000/svg" viewBox="0 0 127.37 11.36"><defs><style>.cls-1{fill:#fff;}</style></defs><g id="Layer_1"><polygon class="cls-1" points="8.31 .02 8.31 9.07 6.61 9.07 6.61 4.42 1.7 4.42 1.7 9.07 0 9.07 0 .02 1.7 .02 1.7 2.98 6.61 2.98 6.61 .02 8.31 .02"/><path class="cls-1" d="m11.42,9.07c-.67,0-1.21-.2-1.61-.59-.41-.39-.61-.88-.61-1.45v-.49c0-.58.2-1.06.61-1.46.41-.4.92-.6,1.55-.6h3.55v-.02c0-.56-.39-.84-1.16-.84h-4.01v-1.41h4.17c.86,0,1.53.23,2,.68.47.45.7,1.05.7,1.82v2.38c0,.6-.21,1.09-.64,1.46-.4.34-.94.52-1.64.52h-2.91Zm2.49-3.19h-2.03c-.65,0-.98.26-.98.77v.24c0,.51.33.76.98.76h2.03c.67,0,1-.25,1-.76v-.24c0-.52-.33-.77-1-.77"/><path class="cls-1" d="m20.46,2.21h1.42c.9,0,1.61.26,2.13.78.51.53.77,1.25.77,2.16v3.92h-1.7v-3.8c0-.56-.1-.96-.3-1.2-.24-.29-.6-.44-1.07-.44h-1.09c-.45,0-.8.15-1.05.44-.18.24-.28.64-.28,1.2v3.8h-1.7v-3.92c0-.91.26-1.64.77-2.16.52-.52,1.22-.78,2.11-.78"/><path class="cls-1" d="m30.99,8.25c-.47.55-1.07.83-1.81.83h-.9c-.81,0-1.45-.26-1.95-.77-.45-.48-.67-1.14-.67-1.99V2.21h1.69v4.07c0,.48.1.83.29,1.04.21.22.48.33.83.33h.53c.35,0,.63-.11.84-.33.2-.21.3-.55.3-1.04V2.21h1.68v4.07c0,.48.09.83.29,1.04.21.22.48.33.83.33h.53c.35,0,.63-.11.84-.33.2-.21.3-.55.3-1.04V2.21h1.69v4.1c0,.85-.23,1.52-.69,1.99-.5.51-1.15.77-1.96.77h-.9c-.71,0-1.31-.28-1.77-.83"/><path class="cls-1" d="m40.23,3.64c-.45,0-.8.15-1.05.44-.18.24-.28.64-.28,1.2v3.8h-1.7V0h1.7v2.52c.34-.21.73-.31,1.18-.31h1.42c.9,0,1.61.26,2.13.78.51.53.77,1.25.77,2.17v3.92h-1.7v-3.8c0-.56-.1-.96-.3-1.2-.24-.29-.59-.44-1.07-.44h-1.09Z"/><path class="cls-1" d="m47.44,9.07c-.67,0-1.21-.2-1.61-.59-.41-.39-.61-.88-.61-1.45v-.49c0-.58.2-1.06.61-1.46.41-.4.93-.6,1.55-.6h3.55v-.02c0-.56-.39-.84-1.16-.84h-4.01v-1.41h4.17c.86,0,1.53.23,2,.68.47.45.7,1.05.7,1.82v2.38c0,.6-.21,1.09-.64,1.46-.4.34-.94.52-1.64.52h-2.91Zm2.49-3.19h-2.03c-.65,0-.98.26-.98.77v.24c0,.51.33.76.98.76h2.03c.67,0,1-.25,1-.76v-.24c0-.52-.33-.77-1-.77"/><path class="cls-1" d="m64.7.02v1.43h-4.76c-.88,0-1.31.3-1.31.9v.55c0,.59.43.89,1.28.89h2.52c.84,0,1.5.21,1.96.62.48.41.72.95.72,1.61v.84c0,.65-.24,1.19-.72,1.6-.46.41-1.15.61-2.05.61h-5.09v-1.43h4.84c.87,0,1.31-.3,1.31-.9v-.63c0-.61-.43-.91-1.29-.91h-2.52c-.84,0-1.5-.2-1.96-.61-.48-.41-.71-.95-.71-1.6v-.74c0-.66.24-1.2.71-1.61.46-.41,1.14-.62,2.04-.62h5.03Z"/><path class="cls-1" d="m66.02,5.02c0-.88.24-1.57.74-2.05.5-.5,1.19-.75,2.06-.76h1.81c.88,0,1.56.26,2.06.76.5.48.75,1.17.75,2.05v1.26c0,.87-.25,1.55-.75,2.04-.5.5-1.18.75-2.05.76h-2.91v2.28h-1.7v-6.33Zm1.7.09v2.53h2.76c.45,0,.78-.13.99-.39.17-.23.25-.59.25-1.07v-1.06c0-.49-.09-.85-.25-1.08-.21-.27-.54-.4-.99-.4h-1.53c-.45,0-.78.13-.98.4-.17.23-.25.59-.25,1.07"/><path class="cls-1" d="m76.46,9.07c-.67,0-1.21-.2-1.61-.59-.41-.39-.61-.88-.61-1.45v-.49c0-.58.2-1.06.61-1.46.41-.4.93-.6,1.55-.6h3.55v-.02c0-.56-.39-.84-1.16-.84h-4.01v-1.41h4.17c.86,0,1.53.23,2,.68.47.45.7,1.05.7,1.82v2.38c0,.6-.21,1.09-.64,1.46-.4.34-.94.52-1.64.52h-2.91Zm2.49-3.19h-2.03c-.65,0-.98.26-.98.77v.24c0,.51.33.76.98.76h2.03c.67,0,1-.25,1-.76v-.24c0-.52-.33-.77-1-.77"/><path class="cls-1" d="m89.99,9.07h-4.57c-.88,0-1.56-.26-2.06-.76-.49-.48-.74-1.16-.74-2.04v-1.24c0-.88.25-1.57.74-2.05.5-.5,1.19-.76,2.06-.77h4.57v1.43h-4.35c-.5,0-.85.14-1.06.4-.16.23-.24.59-.24,1.08v1.06c0,.48.08.84.24,1.07.21.26.56.39,1.06.39h4.35v1.43Z"/><path class="cls-1" d="m98.33,4.27v.48c0,.58-.21,1.06-.62,1.45-.42.39-.94.59-1.57.59h-3.52v.03c0,.55.39.83,1.16.83h4.24v1.42h-4.41c-.86,0-1.53-.22-2-.67-.46-.44-.69-1.04-.69-1.81v-2.34c0-.58.2-1.06.61-1.45.41-.4.96-.6,1.62-.6h2.94c.67,0,1.21.2,1.62.6.42.4.62.89.62,1.46m-4.73,1.12h2.04c.66,0,.99-.25.99-.76v-.24c0-.51-.33-.77-.99-.77h-2.04c-.65,0-.98.26-.98.77v.24c0,.51.33.76.98.76"/><polygon class="cls-1" points="110.89 .02 110.89 9.07 109.19 9.07 109.19 4.42 104.28 4.42 104.28 9.07 102.58 9.07 102.58 .02 104.28 .02 104.28 2.98 109.19 2.98 109.19 .02 110.89 .02"/><path class="cls-1" d="m114.75,9.07c-.88,0-1.58-.26-2.11-.79-.52-.51-.77-1.22-.77-2.13v-3.94h1.7v3.81c0,.56.09.96.28,1.2.25.28.6.43,1.05.43h1.09c.48,0,.83-.14,1.07-.43.2-.24.3-.64.3-1.2v-3.81h1.7v3.94c0,.91-.26,1.62-.77,2.13-.52.53-1.23.79-2.13.79h-1.42Z"/><path class="cls-1" d="m119.95,6.28V0h1.7v2.21h2.91c.87.02,1.55.27,2.05.77.5.48.75,1.17.75,2.05v1.24c0,.87-.25,1.55-.75,2.04-.5.5-1.19.75-2.06.76h-1.81c-.87,0-1.56-.26-2.06-.76-.49-.48-.74-1.16-.74-2.04m1.7-.08c0,.48.08.83.25,1.06.2.26.53.39.98.39h1.53c.45,0,.78-.13.99-.39.17-.23.25-.59.25-1.07v-1.06c0-.49-.08-.85-.25-1.08-.21-.27-.54-.4-.99-.4h-2.76v2.56Z"/></g></svg>