<?xml version="1.0" encoding="UTF-8"?><svg id="_레이어_2" xmlns="http://www.w3.org/2000/svg" viewBox="0 0 59.38 11.63"><defs><style>.cls-1{fill:#fff;}</style></defs><g id="Layer_1"><path class="cls-1" d="m7.32,2.91H0v-1.28h7.32v1.28Zm-3.66,4.87c-.96,0-1.72-.21-2.3-.66-.57-.44-.86-.98-.86-1.63s.29-1.19.86-1.64c.58-.45,1.34-.67,2.3-.67s1.72.22,2.29.67c.57.44.86.99.86,1.64s-.29,1.19-.86,1.63c-.57.44-1.34.66-2.29.66m.71,2.44h6.01v1.37H3.73c-1.44,0-2.16-.68-2.16-2.04v-1.34h1.91v1.08c0,.61.3.92.89.92M1.7,0h3.93v1.31H1.7V0Zm1.97,6.57c.35,0,.66-.1.91-.3.25-.19.38-.45.38-.78s-.13-.58-.38-.78c-.26-.2-.56-.31-.91-.31s-.66.11-.92.31c-.25.2-.38.46-.38.78s.12.58.38.78c.26.2.56.3.92.3m6.67-3.49h1.6v1.48h-1.6v3.93h-1.9V.23h1.9v2.85Z"/><path class="cls-1" d="m15.15,7.72c-.56-.11-1.03-.3-1.4-.59-.56-.44-.84-.98-.84-1.62s.29-1.19.86-1.64c.57-.45,1.34-.67,2.3-.67s1.72.22,2.29.67c.57.44.86.99.86,1.64s-.28,1.18-.84,1.62c-.35.27-.8.47-1.32.58v1.03h1.56c1.41,0,2.12-.56,2.12-1.69V.23h1.9v3.77h1.61v1.41h-1.61v6.21h-1.9v-1.98c-.4.32-1.01.48-1.85.48h-6.73v-1.38h2.98v-1.02Zm4.57-4.8h-7.31v-1.28h7.31v1.28ZM14.13,0h3.93v1.31h-3.93V0Zm1.94,6.57c.35,0,.66-.1.91-.3.25-.19.38-.46.38-.78s-.12-.58-.38-.78c-.25-.2-.56-.31-.91-.31s-.66.1-.92.31c-.25.2-.38.46-.38.78s.13.58.38.78c.26.2.56.3.92.3"/><path class="cls-1" d="m29.14.41v1.68c0,1.96.3,3.36.9,4.22.51.73,1.17,1.23,1.98,1.49v1.49c-1.37-.25-2.49-.89-3.35-1.92-.17-.21-.33-.44-.48-.69-.15.25-.31.48-.48.69-.86,1.03-1.98,1.67-3.34,1.92v-1.49c.81-.26,1.47-.76,1.98-1.49.6-.86.91-2.27.91-4.22V.41h1.89Zm3.89-.17h1.91v11.39h-1.91V.23Z"/><path class="cls-1" d="m47.76,10.47h-11.7v-1.52h11.7v1.52Zm-4.89-9.46c0,1.67.44,2.92,1.31,3.72.8.73,1.75,1.14,2.84,1.22v1.43c-1.58-.04-2.95-.52-4.1-1.42-.39-.32-.73-.69-1.01-1.12-.28.42-.62.79-1.02,1.12-1.15.91-2.51,1.38-4.1,1.42v-1.43c1.1-.08,2.05-.49,2.84-1.22.87-.8,1.31-2.04,1.31-3.72V.39h1.93v.62Z"/><path class="cls-1" d="m54.27,5.44v1.36h-3.54c-1.39,0-2.08-.63-2.08-1.89V.33h5.06v1.36h-3.3v1.14h2.77v1.35h-2.77v.54c0,.48.27.72.82.72h3.04Zm5.11,2.97v3.19h-7c-1.28,0-1.93-.58-1.93-1.75v-2.31h8.03c.59,0,.89.29.89.87m-1.9.49h-5.12v.8c0,.36.2.54.6.54h4.52v-1.34ZM55.13.23h1.78v6.87h-1.78v-2.84h-1.32v-1.48h1.32V.23Zm2.45,0h1.8v6.87h-1.8V.23Z"/></g></svg>