<?xml version="1.0" encoding="UTF-8"?><svg id="_레이어_2" xmlns="http://www.w3.org/2000/svg" viewBox="0 0 45.11 11.75"><defs><style>.cls-1{fill:#fff;}</style></defs><g id="Layer_1"><path class="cls-1" d="m0,5.93c0-1.17.21-2.25.62-3.23C1.04,1.71,1.62.85,2.36.11h1.9c-.86.99-1.48,1.97-1.85,2.94-.37.97-.56,1.93-.56,2.88s.19,1.9.56,2.87c.37.98.99,1.96,1.85,2.94h-1.9c-.74-.72-1.33-1.59-1.74-2.59-.41-.99-.62-2.08-.62-3.23"/><path class="cls-1" d="m15.88,8.3h-4.89v3.33h-1.94v-3.33h-4.88v-1.49h11.7v1.49Zm-1-6.43h-3.84c.15.76.6,1.42,1.36,1.94.74.52,1.63.79,2.65.83v1.45c-1.41.01-2.67-.33-3.79-1.01-.49-.31-.9-.66-1.23-1.06-.34.4-.75.75-1.24,1.06-1.11.68-2.38,1.02-3.79,1.01v-1.45c1.02-.04,1.91-.31,2.65-.83.76-.52,1.21-1.18,1.35-1.94h-3.82V.41h9.69v1.46Z"/><path class="cls-1" d="m20.07,5.93c0,1.15-.21,2.23-.62,3.23-.41,1-1,1.87-1.75,2.59h-1.89c.86-.99,1.48-1.97,1.85-2.94.37-.97.55-1.94.55-2.87s-.19-1.91-.55-2.88c-.36-.97-.99-1.95-1.85-2.94h1.89c.75.74,1.34,1.6,1.75,2.59.42.98.62,2.07.62,3.23"/><path class="cls-1" d="m28.17,2.91h-7.32v-1.28h7.32v1.28Zm-3.66,4.87c-.96,0-1.73-.21-2.3-.66-.57-.44-.86-.98-.86-1.63s.29-1.19.86-1.64c.57-.45,1.34-.67,2.3-.67s1.72.22,2.29.67c.58.44.86.99.86,1.64s-.28,1.19-.86,1.63c-.57.44-1.34.66-2.29.66m.71,2.44h6.01v1.37h-6.66c-1.44,0-2.16-.68-2.16-2.04v-1.34h1.91v1.08c0,.61.29.92.89.92M22.55,0h3.93v1.31h-3.93V0Zm1.97,6.57c.35,0,.65-.1.91-.3.25-.19.38-.45.38-.78s-.13-.58-.38-.78c-.26-.2-.56-.31-.91-.31s-.66.11-.91.31c-.26.2-.38.46-.38.78s.13.58.38.78c.25.2.56.3.91.3m6.67-3.49h1.6v1.48h-1.6v3.93h-1.9V.23h1.9v2.85Z"/><path class="cls-1" d="m36,7.72c-.56-.11-1.03-.3-1.4-.59-.56-.44-.84-.98-.84-1.62s.29-1.19.86-1.64c.57-.45,1.34-.67,2.29-.67s1.72.22,2.3.67c.57.44.86.99.86,1.64s-.28,1.18-.84,1.62c-.36.27-.8.47-1.32.58v1.03h1.57c1.41,0,2.11-.56,2.12-1.69V.23h1.9v3.77h1.61v1.41h-1.61v6.21h-1.9v-1.98c-.4.32-1.02.48-1.85.48h-6.73v-1.38h2.98v-1.02Zm4.58-4.8h-7.31v-1.28h7.31v1.28ZM34.98,0h3.93v1.31h-3.93V0Zm1.94,6.57c.35,0,.66-.1.91-.3.26-.19.39-.46.39-.78s-.13-.58-.39-.78c-.25-.2-.56-.31-.91-.31s-.66.1-.91.31c-.26.2-.39.46-.39.78s.13.58.39.78c.25.2.56.3.91.3"/></g></svg>