<?xml version="1.0" encoding="UTF-8"?><svg id="_레이어_2" xmlns="http://www.w3.org/2000/svg" viewBox="0 0 628.85 75.11"><defs><style>.cls-1{fill:#4687b3;}.cls-2{fill:#fff;}.cls-3{fill:#1e4591;}</style></defs><g id="Layer_1"><polygon class="cls-3" points="168 0 146.78 75 122.22 75 99.44 54.67 125.44 54.67 136.67 20.67 128.44 20.67 47.11 75.11 0 75.11 118.44 0 168 0"/><polygon class="cls-1" points="178.42 .08 250.69 .08 224.47 19.75 172.03 19.75 178.42 .08"/><polygon class="cls-1" points="170.44 26.22 164.67 46.22 226.11 46.22 255.78 26.33 170.44 26.22"/><polygon class="cls-1" points="163.44 52.78 156.56 74.67 234 74.67 264.67 52.78 163.44 52.78"/><path class="cls-2" d="m272.71,6.66h25.62v4h-25.62v-4Zm12.78,19.06c-3.65,0-6.47-.67-8.45-2s-3-2.92-3-4.78,1-3.45,2.94-4.78,4.78-2,8.47-2,6.48.67,8.46,2,3,2.92,3,4.78-1,3.45-3,4.78-4.79,2-8.42,2Zm7.21,2c5.09,0,8.96.76,11.61,2.28,2.64,1.52,4,3.48,4,5.88s-1.33,4.36-4,5.88-6.52,2.28-11.61,2.28-9-.76-11.62-2.28-4-3.48-4-5.88,1.32-4.36,4-5.88,6.52-2.27,11.62-2.27h0ZM278.59.18h13.66v4h-13.66V.18Zm6.9,15.7c-1.43-.06-2.86.22-4.16.81-.94.38-1.57,1.29-1.57,2.31-.03,1.02.61,1.94,1.57,2.28,2.69.92,5.61.92,8.3,0,.97-.33,1.62-1.25,1.6-2.28-.03-1.01-.66-1.9-1.6-2.26-1.29-.61-2.71-.9-4.14-.86Zm7.21,16c-2.37-.09-4.74.25-7,1-1.74.67-2.62,1.68-2.62,3s.88,2.4,2.62,3c2.26.74,4.63,1.08,7,1,2.37.07,4.74-.26,7-1,1.71-.64,2.57-1.66,2.57-3.07s-.86-2.39-2.57-3c-2.26-.72-4.63-1.05-7-.95v.02Zm19.79-15.74h-5.24v11.31h-5.49V.37h5.49v11.14h5.24v4.63Z"/><path class="cls-2" d="m337.33,10.65v8.11h19.45v4.61h-40.42v-4.61h15.28v-8.11h5.69Zm-.79,15.93c5.26,0,9.29.8,12.08,2.4,2.79,1.6,4.19,3.73,4.19,6.39,0,2.68-1.39,4.82-4.16,6.4s-6.81,2.38-12.11,2.38-9.36-.79-12.12-2.38-4.14-3.72-4.14-6.4,1.39-4.79,4.16-6.39,6.81-2.4,12.1-2.4h0Zm14.6-25.1c.38-.04.76.07,1.06.31.23.28.35.64.32,1-.07,1.41-.18,2.9-.32,4.47s-.31,3-.47,4.32-.39,2.86-.68,4.56h-5.39c.36-1.73.63-3.4.81-5,.17-1.64.28-3.32.31-5.05h-26.16V1.48h30.52Zm-14.6,29.32c-2.5-.1-4.99.29-7.34,1.13-1.8.76-2.7,1.88-2.7,3.39s.9,2.81,2.7,3.55c4.78,1.47,9.89,1.47,14.67,0,1.81-.74,2.72-1.92,2.72-3.55,0-1.51-.91-2.63-2.72-3.39-2.35-.84-4.84-1.22-7.33-1.13Z"/><path class="cls-2" d="m402,29h-17.3v14.33h-5.7v-14.33h-17.47v-4.58h40.47v4.58Zm-20.23-8.21c-5.04,0-8.98-.92-11.81-2.76-2.64-1.49-4.27-4.29-4.26-7.32-.01-1.41.37-2.79,1.1-4,.8-1.28,1.88-2.37,3.16-3.17,1.54-.97,3.23-1.67,5-2.08,4.44-1,9.04-1,13.48,0,1.77.41,3.46,1.11,5,2.08,1.28.81,2.37,1.89,3.19,3.17.74,1.2,1.14,2.59,1.13,4,0,3.02-1.63,5.81-4.26,7.29-2.86,1.85-6.79,2.77-11.78,2.77l.05.02Zm0-15.55c-2.51-.11-5,.39-7.28,1.44-1.64.66-2.73,2.23-2.77,4,0,1.73.93,3.07,2.79,4,2.27,1.05,4.76,1.54,7.26,1.44,2.49.09,4.96-.4,7.22-1.44,1.88-1,2.82-2.31,2.82-4-.04-1.77-1.14-3.35-2.79-4-2.28-1.06-4.79-1.56-7.3-1.46l.05.02Z"/><path class="cls-2" d="m447.12,28.88h-17.24v14.45h-5.64v-14.45h-17.54v-4.55h40.42v4.55ZM411.21,1.72h31.3v4.56h-12.51c.3,1.37.94,2.65,1.86,3.72,1,1.18,2.18,2.19,3.5,3,1.47.88,3.02,1.6,4.64,2.16,1.78.65,3.6,1.16,5.46,1.53l-3.43,3.84c-1.44-.34-2.86-.75-4.26-1.24-1.45-.51-2.86-1.14-4.21-1.88-1.35-.69-2.63-1.51-3.8-2.47-1.12-.9-2.1-1.96-2.91-3.14-1.55,2.13-3.53,3.91-5.83,5.2-2.88,1.63-5.98,2.82-9.21,3.53l-3.78-3.93c1.88-.4,3.74-.91,5.56-1.54,1.63-.55,3.2-1.28,4.68-2.16,1.33-.77,2.53-1.75,3.55-2.9.92-1.06,1.56-2.33,1.88-3.69h-12.49V1.72Z"/><path class="cls-2" d="m472.84,10.65v8.11h19.45v4.61h-40.42v-4.61h15.29v-8.11h5.68Zm-.78,15.93c5.26,0,9.28.8,12.07,2.4,2.8,1.6,4.19,3.73,4.19,6.39s-1.39,4.82-4.16,6.4-6.81,2.38-12.1,2.38-9.37-.79-12.13-2.38-4.14-3.72-4.14-6.4,1.39-4.79,4.21-6.37,6.77-2.42,12.06-2.42Zm14.6-25.1c.36-.02.72.09,1,.31.23.28.35.64.32,1-.07,1.41-.17,2.9-.32,4.47s-.3,3-.46,4.32-.4,2.86-.69,4.56h-5.39c.36-1.73.63-3.4.81-5,.18-1.64.28-3.32.32-5.05h-26.12V1.48h30.53Zm-14.6,29.32c-2.5-.1-5,.28-7.35,1.13-1.8.76-2.7,1.88-2.7,3.39s.9,2.81,2.7,3.55c4.78,1.47,9.89,1.47,14.67,0,1.81-.74,2.72-1.92,2.72-3.55,0-1.51-.91-2.63-2.72-3.39-2.35-.84-4.83-1.22-7.32-1.13Z"/><path class="cls-2" d="m498.56,10.79v-4.18h25.63v4.18h-25.63Zm12.79,15.79c-3.66,0-6.48-.69-8.45-2.06-1.97-1.37-2.97-3.02-3-4.95.07-2.04,1.18-3.9,2.94-4.92,1.96-1.33,4.79-2,8.48-2,3.66,0,6.47.68,8.45,2,1.79,1,2.93,2.87,3,4.92,0,1.92-1,3.57-3,4.95-2,1.38-4.81,2.07-8.42,2.06Zm20.43,3.17c.38-.04.75.07,1.05.31.24.28.35.64.32,1v12.47h-5.73v-9.32h-24.06v-4.46h28.42ZM504.44.18h13.67v4.08h-13.67V.18Zm6.91,16.18c-1.43-.06-2.86.22-4.16.84-.94.39-1.56,1.31-1.57,2.33-.03,1.05.6,2,1.57,2.39,2.67,1.03,5.63,1.03,8.3,0,.98-.39,1.61-1.34,1.59-2.39-.02-1.02-.64-1.94-1.59-2.33-1.29-.61-2.71-.9-4.14-.84ZM533.15.36v11.25h5.69v4.84h-5.69v11.55h-5.53V.37h5.53Z"/><path class="cls-2" d="m542.56,30h7.93v-13.64h5.51v13.64c.82,0,1.9,0,3.26-.12l4.24-.27c1.47-.09,2.9-.2,4.28-.33s2.54-.27,3.46-.44v4.57c-1.11.16-2.48.31-4.12.45s-3.46.28-5.48.41-4.15.18-6.47.26-4.72.12-7.2.12h-5.39l-.02-4.65Zm23.66-27.18c.36-.02.71.09,1,.31.23.28.35.64.32,1-.09,3.83-.29,7.49-.58,11-.29,3.51-.71,6.86-1.23,10.16h-5.63c.19-1.19.39-2.53.58-4s.38-3,.54-4.59.26-3.2.37-4.8.17-3.1.17-4.51h-17V2.82h21.46Zm17.59,19.63h-5.88v20.88h-5.49V.33h5.49v17.32h5.88v4.8Z"/><path class="cls-2" d="m275.86,58.46h3c1.8-.11,3.57.48,4.95,1.64,1.24,1.27,1.89,3.01,1.77,4.78.13,1.78-.52,3.53-1.77,4.8-1.38,1.15-3.15,1.74-4.95,1.63h-3c-.13.02-.26-.02-.37-.1-.08-.1-.11-.23-.1-.36v-11.93c0-.13.03-.26.1-.36.11-.08.24-.12.37-.1Zm1.48,11.23h2c1.21.1,2.39-.36,3.21-1.26.73-1.03,1.09-2.27,1-3.53.14-1.4-.35-2.78-1.35-3.77-1.08-.8-2.41-1.18-3.75-1.06h-1.16l.05,9.62Z"/><path class="cls-2" d="m288.16,71.31c-.13.02-.26-.02-.37-.1-.07-.1-.11-.23-.09-.36v-11.93c-.01-.13.02-.25.09-.36.11-.08.24-.12.37-.1h7.45v1.61h-6v3.81h5.93v1.61h-5.93v4.2h6.25v1.62h-7.7Z"/><path class="cls-2" d="m298,58.92c-.01-.13.02-.25.09-.36.11-.08.24-.12.37-.1h3.84c.58,0,1.16.08,1.72.24.51.16.99.4,1.42.72.42.32.76.73,1,1.2.48,1.06.48,2.28,0,3.34-.22.46-.54.86-.94,1.18-.41.32-.87.56-1.37.7-.53.16-1.07.24-1.62.23h-2.55v5.24h-1.96v-12.39Zm6.78,3.36c.06-.64-.2-1.28-.69-1.7-.59-.38-1.3-.56-2-.51h-2.23v4.39h2.23c.7.05,1.4-.12,2-.49.5-.41.75-1.05.68-1.69h.01Z"/><path class="cls-2" d="m313,58.81l4.77,12.5h-2.07l-1.23-3.31h-5.17l-1.23,3.3h-2.07l4.77-12.5c.04-.1.09-.18.17-.25.07-.07.16-.1.26-.1h1.31c.1,0,.2.03.27.1.1.07.17.16.22.26Zm-3.09,7.58h4l-1.74-4.74-.26-.81-.26.81-1.74,4.74Z"/><path class="cls-2" d="m319.31,58.44h3.82c.58,0,1.17.07,1.73.23.5.13.97.35,1.39.65.39.29.7.67.92,1.1.23.47.34.99.33,1.52.02.62-.2,1.23-.62,1.69-.42.45-.97.78-1.57.93.61.11,1.15.47,1.48,1,.3.56.48,1.17.54,1.8,0,.51.08,1,.11,1.31s.06.7.1,1c.04.28.1.57.18.84.08.28.2.54.35.79h-2.22c-.08-.22-.14-.45-.18-.68,0-.24-.07-.48-.09-.73-.04-.24-.06-.49-.07-.73v-.7c-.07-.69-.14-1.23-.21-1.63-.04-.32-.14-.63-.31-.9-.14-.2-.36-.34-.61-.38-.35-.06-.7-.09-1.06-.08h-2.51v5.83h-1.94v-12.38c-.01-.13.02-.26.1-.37.1-.07.22-.11.34-.11Zm6.2,3.48c.06-.55-.17-1.1-.61-1.44-.59-.32-1.26-.46-1.93-.41h-2.22v3.77h2.12c.67.04,1.35-.11,1.94-.43.49-.33.76-.9.7-1.49Z"/><path class="cls-2" d="m332,71.31v-11.24h-3.87v-1.61h9.63v1.61h-3.86v11.24h-1.9Z"/><path class="cls-2" d="m348.36,58.85c.03-.11.09-.21.17-.28.11-.09.24-.12.38-.11h1.49c.13-.02.26.02.36.1.07.1.11.23.1.36v12.39h-1.81v-10.25l-.22,1-3.09,8.94c-.03.11-.1.2-.19.27-.08.06-.18.09-.28.09h-1.09c-.11,0-.21-.02-.3-.08-.08-.07-.14-.17-.16-.28l-3.1-8.89-.21-1v10.2h-1.8v-12.39c-.01-.13.01-.25.08-.36.1-.08.24-.12.37-.1h1.49c.13-.01.26.03.36.11.09.07.15.17.19.28l3.21,9,.42,1.43.42-1.43,3.21-9Z"/><path class="cls-2" d="m353.94,71.31c-.13.02-.26-.02-.37-.1-.07-.1-.11-.23-.09-.36v-11.93c-.01-.13.02-.25.09-.36.11-.08.24-.12.37-.1h7.45v1.61h-6v3.81h5.93v1.61h-5.93v4.2h6.25v1.62h-7.7Z"/><path class="cls-2" d="m371,67.36l.57,1.26-.05-1.31v-8.85h1.92v12.36c.02.13-.02.26-.09.36-.11.07-.23.1-.36.09h-1.39c-.13.01-.27-.02-.38-.1-.09-.08-.15-.18-.17-.29l-5-8.51-.57-1.26.05,1.31v8.89h-1.92v-12.39c0-.13.02-.25.08-.36.1-.08.24-.12.37-.1h1.33c.13-.01.27.03.37.11.08.08.15.17.19.28l5.05,8.51Z"/><path class="cls-2" d="m378.38,71.31v-11.24h-3.87v-1.61h9.63v1.61h-3.84v11.24h-1.92Z"/><path class="cls-2" d="m401,64.88c.01.92-.12,1.83-.4,2.71-.23.77-.62,1.49-1.13,2.12-.49.59-1.12,1.06-1.83,1.37-1.58.64-3.34.64-4.92,0-.7-.31-1.32-.78-1.8-1.37-.51-.62-.88-1.35-1.1-2.12-.51-1.76-.51-3.64,0-5.4.22-.77.59-1.49,1.1-2.12.49-.59,1.1-1.06,1.8-1.38,1.57-.65,3.35-.65,4.92,0,.71.31,1.34.78,1.83,1.38.51.63.89,1.35,1.13,2.12.28.87.41,1.78.4,2.69Zm-9.53,0c0,.65.07,1.29.21,1.92.11.58.33,1.13.65,1.62.29.46.69.83,1.16,1.1,1.58.91,3.59.43,4.58-1.1.31-.5.54-1.05.67-1.62.14-.63.21-1.27.21-1.92,0-.64-.07-1.27-.21-1.89-.13-.57-.36-1.11-.67-1.61-.3-.46-.69-.84-1.16-1.12-1.07-.57-2.35-.57-3.42,0-.47.28-.87.66-1.16,1.12-.32.49-.54,1.04-.65,1.61-.14.62-.21,1.25-.21,1.89Z"/><path class="cls-2" d="m403.34,58.47h7.19v1.6h-5.71v3.74h5.66v1.62h-5.66v5.88h-1.94v-12.38c-.01-.12.02-.25.09-.35.1-.09.24-.13.37-.11Z"/><path class="cls-2" d="m422.52,58.81l4.77,12.5h-2.05l-1.24-3.31h-5.17l-1.23,3.3h-2.05l4.77-12.5c.04-.1.09-.18.17-.25.07-.07.16-.1.26-.1h1.31c.1,0,.2.03.27.1.09.07.15.16.19.26Zm-3.09,7.58h4l-1.74-4.74-.26-.81-.26.81-1.74,4.74Z"/><path class="cls-2" d="m428.85,71.31c-.13.02-.27-.02-.37-.1-.08-.1-.12-.23-.1-.36v-11.93c-.01-.13.02-.26.1-.36.1-.08.24-.12.37-.1h7.44v1.61h-6v3.81h5.94v1.61h-5.94v4.2h6.25v1.62h-7.69Z"/><path class="cls-2" d="m439.16,58.44h3.84c.59,0,1.17.07,1.74.23.5.14.97.36,1.39.65.39.29.7.67.92,1.1.23.47.34.99.33,1.52.02.62-.21,1.23-.63,1.69-.42.45-.96.77-1.56.93.61.11,1.15.47,1.48,1,.29.56.47,1.17.53,1.8.05.51.09,1,.12,1.31s.06.7.09,1c.05.28.11.56.18.84.09.28.21.54.36.79h-2.25c-.08-.22-.14-.45-.18-.68-.05-.24-.08-.48-.1-.73,0-.25-.06-.49-.07-.73v-.7c-.07-.69-.14-1.23-.21-1.63-.04-.32-.15-.62-.31-.9-.15-.2-.37-.33-.61-.38-.35-.06-.7-.09-1.06-.08h-2.52v5.83h-1.94v-12.38c0-.13.03-.26.1-.37.1-.08.23-.12.36-.11Zm6.19,3.48c.06-.55-.17-1.1-.61-1.44-.59-.32-1.25-.46-1.92-.41h-2.22v3.77h2.11c.69.05,1.39-.1,2-.43.46-.35.71-.91.64-1.49Z"/><path class="cls-2" d="m460.48,64.88c.01.92-.12,1.83-.4,2.71-.22.77-.59,1.49-1.08,2.12-.5.59-1.12,1.06-1.83,1.37-.78.33-1.62.49-2.46.48-.85.02-1.69-.15-2.47-.48-.7-.31-1.31-.78-1.8-1.37-.5-.63-.88-1.35-1.1-2.12-.5-1.77-.5-3.63,0-5.4.23-.77.6-1.49,1.1-2.12.49-.59,1.1-1.06,1.8-1.38.78-.34,1.62-.5,2.47-.49.85,0,1.68.16,2.46.49.7.32,1.33.79,1.83,1.38.5.63.88,1.35,1.12,2.12.26.87.38,1.78.36,2.69Zm-9.52,0c0,.65.06,1.29.2,1.92.12.58.34,1.12.65,1.62.29.46.69.83,1.16,1.1,1.58.91,3.59.43,4.58-1.1.31-.5.54-1.05.67-1.62.14-.63.21-1.27.21-1.92,0-.64-.07-1.27-.21-1.89-.13-.57-.36-1.11-.67-1.61-.3-.46-.69-.84-1.16-1.12-1.07-.57-2.35-.57-3.42,0-.47.28-.87.66-1.16,1.12-.31.49-.53,1.04-.65,1.61-.13.62-.18,1.26-.16,1.89h-.04Z"/><path class="cls-2" d="m465.46,65.43c-.43-.14-.85-.3-1.26-.48-.41-.17-.79-.4-1.13-.68-.33-.27-.6-.61-.79-1-.44-.96-.41-2.06.07-3,.25-.45.59-.84,1-1.14.41-.31.87-.54,1.36-.7.49-.17,1.01-.25,1.53-.25.48,0,.97.04,1.44.15.42.11.83.27,1.22.46.48.26.88.64,1.17,1.1.33.55.5,1.19.48,1.83h-2c.02-.6-.25-1.16-.73-1.52-.45-.26-.96-.4-1.48-.39-.59-.02-1.18.15-1.66.5-.42.31-.67.8-.66,1.32-.02.35.06.69.22,1,.16.27.39.49.66.64.31.2.65.36,1,.47l1.32.46,1.31.51c.4.16.78.38,1.12.65.34.26.62.61.8,1,.21.45.32.94.31,1.44.01.6-.11,1.19-.37,1.73-.23.48-.57.89-1,1.2-.45.34-.98.58-1.53.7-.59.11-1.19.17-1.79.16-1.16.07-2.31-.28-3.23-1-.82-.78-1.25-1.88-1.18-3h2.07c-.02.41.03.83.16,1.22.1.29.29.54.53.73.23.19.5.31.79.37.33.06.66.09,1,.09.31,0,.62-.04.92-.12.29-.08.56-.19.81-.35.23-.17.43-.39.58-.64.15-.29.23-.61.22-.93.01-.29-.06-.58-.2-.84-.15-.24-.36-.44-.6-.59-.32-.2-.65-.36-1-.49l-1.48-.61Z"/><path class="cls-2" d="m472.65,58.92c-.01-.13.02-.25.09-.36.11-.08.24-.12.37-.1h3.89c.58,0,1.16.08,1.72.24.51.16.99.4,1.42.72.42.32.76.73,1,1.2.78,1.54.39,3.42-.94,4.52-.41.32-.87.56-1.37.7-.53.16-1.07.24-1.62.23h-2.55v5.24h-1.92l-.09-12.39Zm6.78,3.36c.06-.64-.2-1.28-.69-1.7-.6-.38-1.3-.56-2-.51h-2.22v4.39h2.22c.7.05,1.4-.12,2-.49.5-.41.76-1.05.69-1.69Z"/><path class="cls-2" d="m487.64,58.81l4.77,12.5h-2.05l-1.23-3.31h-5.13l-1.23,3.3h-2.05l4.77-12.5c.04-.1.09-.18.17-.25.07-.07.17-.11.27-.1h1.3c.1,0,.2.03.27.1.07.07.12.16.14.26Zm-3.09,7.58h4l-1.74-4.74-.26-.81-.26.81-1.74,4.74Z"/><path class="cls-2" d="m502.3,61.92h-2c-.06-.64-.38-1.22-.89-1.6-.5-.34-1.1-.51-1.7-.49-.6-.02-1.2.14-1.71.45-.45.29-.82.69-1.08,1.15-.29.5-.48,1.05-.59,1.62-.12.6-.17,1.22-.17,1.83,0,.62.05,1.25.17,1.86.11.57.3,1.11.59,1.61.26.47.63.86,1.08,1.15.52.3,1.11.45,1.71.43.6.02,1.19-.14,1.69-.47.55-.44.91-1.07,1-1.76h2c-.06.6-.25,1.18-.54,1.7-.27.47-.63.87-1.06,1.19-.43.33-.92.58-1.44.74-.55.15-1.11.23-1.68.23-.87.02-1.74-.16-2.53-.54-.68-.35-1.27-.86-1.72-1.48-.47-.64-.8-1.36-1-2.12-.21-.83-.32-1.68-.31-2.54,0-.84.1-1.68.32-2.49.19-.77.53-1.5,1-2.15.45-.62,1.04-1.14,1.72-1.5.78-.4,1.64-.59,2.51-.57.55,0,1.09.07,1.62.22.51.14,1,.37,1.43.68.44.31.8.7,1.07,1.16.29.52.46,1.1.51,1.69Z"/><path class="cls-2" d="m504.52,71.31c-.13.02-.27-.02-.37-.1-.08-.1-.12-.23-.1-.36v-11.93c-.01-.13.02-.26.1-.36.1-.08.24-.12.37-.1h7.48v1.61h-6v3.81h5.94v1.61h-5.94v4.2h6.25v1.62h-7.73Z"/><path class="cls-2" d="m519.6,71.31c-.13.02-.27-.02-.37-.1-.08-.1-.12-.23-.1-.36v-11.93c-.01-.13.02-.26.1-.36.1-.08.24-.12.37-.1h7.4v1.61h-6v3.81h6v1.61h-5.94v4.2h6.25v1.62h-7.71Z"/><path class="cls-2" d="m536.69,67.36l.57,1.26v-10.16h1.93v12.36c.01.13-.02.26-.1.36-.1.07-.23.1-.35.09h-1.44c-.13.01-.27-.02-.38-.1-.09-.07-.15-.18-.18-.29l-5-8.51-.58-1.26.06,1.31v8.89h-1.93v-12.39c-.01-.13.02-.25.09-.36.1-.08.23-.12.36-.1h1.34c.13-.01.26.03.36.11.09.07.15.17.19.28l5.06,8.51Z"/><path class="cls-2" d="m550.71,64.47c.13-.01.26.03.36.11.08.1.12.22.11.35v4.68c0,.12-.03.25-.08.36-.06.11-.14.21-.25.28-.57.41-1.19.75-1.85,1-.7.24-1.44.37-2.18.36-.86.02-1.71-.14-2.51-.46-.71-.3-1.34-.77-1.84-1.36-.52-.61-.91-1.33-1.13-2.1-.26-.9-.39-1.83-.38-2.76,0-.9.12-1.79.38-2.65.23-.77.6-1.49,1.09-2.13.49-.58,1.08-1.05,1.76-1.39.74-.35,1.54-.52,2.36-.51.57,0,1.13.08,1.68.24.53.15,1.02.4,1.46.73.42.33.76.75,1,1.22.28.53.43,1.12.46,1.72h-2c-.05-.71-.42-1.37-1-1.78-1.03-.63-2.31-.67-3.37-.1-.45.27-.83.65-1.1,1.1-.29.49-.5,1.04-.61,1.6-.13.64-.2,1.3-.19,1.95,0,.67.06,1.34.21,2,.13.57.37,1.12.71,1.6.32.46.76.82,1.26,1.07.58.28,1.22.41,1.86.39.43,0,.86-.06,1.27-.2.3-.11.59-.25.87-.41h0v-.06s0-.05,0-.08v-3.17h-2.81v-1.6h4.46Z"/><path class="cls-2" d="m555.67,71.31h-1.92v-12.9h1.92v12.9Z"/><path class="cls-2" d="m565.63,67.36l.57,1.26-.05-1.31v-8.85h1.93v12.36c.02.13-.02.26-.1.36-.1.07-.23.1-.35.09h-1.39c-.13.01-.27-.02-.38-.1-.09-.08-.15-.18-.18-.29l-5-8.51-.57-1.26v10.2h-1.93v-12.39c-.01-.13.02-.25.09-.36.1-.08.23-.12.36-.1h1.37c.13-.01.26.03.36.11.09.07.15.17.19.28l5.08,8.51Z"/><path class="cls-2" d="m571.05,71.31c-.2.06-.41-.06-.47-.26-.02-.06-.02-.13,0-.2v-11.93c-.01-.13.02-.25.09-.36.11-.08.25-.12.38-.1h7.44v1.61h-6v3.81h5.93v1.61h-5.93v4.2h6.25v1.62h-7.69Z"/><path class="cls-2" d="m581.35,71.31c-.13.02-.26-.02-.37-.1-.08-.1-.11-.23-.1-.36v-11.93c0-.13.03-.26.1-.36.11-.08.24-.12.37-.1h7.45v1.61h-6v3.81h5.93v1.61h-5.93v4.2h6.24v1.62h-7.69Z"/><path class="cls-2" d="m591.66,58.44h3.82c.58,0,1.17.07,1.73.23.5.13.97.35,1.39.65.39.29.7.67.92,1.1.23.47.34.99.33,1.52.02.62-.21,1.23-.63,1.69-.42.46-.96.78-1.56.93.61.11,1.15.47,1.48,1,.29.56.47,1.17.54,1.8,0,.51.08,1,.11,1.31s.06.7.09,1c.04.28.11.56.19.84.08.28.2.54.35.79h-2.22c-.08-.22-.14-.45-.18-.68,0-.24-.07-.48-.1-.73s-.06-.49-.07-.73v-.7c-.07-.69-.14-1.23-.21-1.63-.04-.32-.14-.63-.31-.9-.15-.2-.37-.33-.61-.38-.35-.06-.7-.09-1.06-.08h-2.51v5.83h-2v-12.38c-.01-.13.03-.26.11-.37.11-.09.26-.13.4-.11Zm6.19,3.48c.06-.55-.17-1.1-.6-1.44-.59-.32-1.26-.46-1.93-.41h-2.22v3.77h2.12c.67.04,1.35-.11,1.94-.43.48-.33.75-.9.69-1.49Z"/><path class="cls-2" d="m604.39,71.31h-1.92v-12.9h1.92v12.9Z"/><path class="cls-2" d="m614.35,67.36l.58,1.26-.06-1.31v-8.85h1.93v12.36c.02.13-.02.26-.09.36-.11.07-.23.1-.36.09h-1.35c-.13.01-.27-.02-.38-.1-.09-.08-.15-.18-.17-.29l-5-8.51-.57-1.26v10.2h-1.93v-12.39c-.01-.13.02-.25.09-.36.1-.08.24-.12.37-.1h1.33c.13-.01.27.03.37.11.08.08.15.17.19.28l5.05,8.51Z"/><path class="cls-2" d="m628.37,64.47c.13-.01.27.03.37.11.08.1.12.22.1.35v4.68c0,.12-.02.25-.08.36-.05.12-.14.21-.25.28-.57.41-1.19.75-1.84,1-.7.24-1.44.36-2.18.36-.86,0-1.7-.18-2.49-.51-.71-.31-1.34-.77-1.84-1.36-.52-.62-.9-1.33-1.13-2.1-.26-.9-.39-1.83-.38-2.76,0-.9.12-1.79.38-2.65.23-.77.61-1.49,1.1-2.13.48-.58,1.08-1.06,1.76-1.39.73-.35,1.54-.52,2.35-.51.57,0,1.13.08,1.68.24.53.15,1.02.4,1.46.73.42.33.76.74,1,1.22.28.53.44,1.12.47,1.72h-2c-.06-.71-.42-1.36-1-1.78-1.03-.63-2.32-.67-3.38-.1-.45.27-.83.65-1.1,1.1-.29.49-.5,1.04-.61,1.6-.13.64-.19,1.3-.19,1.95,0,.67.07,1.34.22,2,.13.57.36,1.12.7,1.6.33.45.76.82,1.26,1.07.58.27,1.22.41,1.87.39.43,0,.85-.06,1.26-.2.3-.11.59-.25.87-.41h0v-.06s0-.05,0-.08v-3.12h-2.81v-1.6h4.43Z"/></g></svg>