<?xml version="1.0" encoding="UTF-8"?><svg id="_레이어_2" xmlns="http://www.w3.org/2000/svg" viewBox="0 0 108.26 11.63"><defs><style>.cls-1{fill:#fff;}</style></defs><g id="Layer_1"><path class="cls-1" d="m7.31,2.91H0v-1.28h7.31v1.28Zm-3.66,4.87c-.96,0-1.73-.21-2.3-.66-.57-.44-.86-.98-.86-1.63s.29-1.19.86-1.64c.58-.45,1.34-.67,2.3-.67s1.71.22,2.29.67c.57.44.86.99.86,1.64s-.29,1.19-.86,1.63c-.58.44-1.34.66-2.29.66m.71,2.44h6.01v1.37H3.72c-1.44,0-2.16-.68-2.16-2.04v-1.34h1.91v1.08c0,.61.3.92.89.92M1.69,0h3.93v1.31H1.69V0Zm1.97,6.57c.35,0,.65-.1.91-.3.25-.19.38-.45.38-.78s-.13-.58-.38-.78c-.26-.2-.56-.31-.91-.31s-.66.11-.92.31c-.25.2-.37.46-.37.78s.12.58.37.78c.26.2.56.3.92.3m6.67-3.49h1.6v1.48h-1.6v3.93h-1.9V.23h1.9v2.85Z"/><path class="cls-1" d="m15.14,7.72c-.56-.11-1.02-.3-1.39-.59-.56-.44-.84-.98-.84-1.62s.29-1.19.86-1.64c.57-.45,1.34-.67,2.3-.67s1.72.22,2.29.67c.57.44.86.99.86,1.64s-.28,1.18-.84,1.62c-.36.27-.79.47-1.32.58v1.03h1.56c1.41,0,2.12-.56,2.12-1.69V.23h1.9v3.77h1.6v1.41h-1.6v6.21h-1.9v-1.98c-.39.32-1.01.48-1.85.48h-6.74v-1.38h2.98v-1.02Zm4.58-4.8h-7.32v-1.28h7.32v1.28ZM14.13,0h3.93v1.31h-3.93V0Zm1.94,6.57c.35,0,.66-.1.91-.3.26-.19.38-.46.38-.78s-.12-.58-.38-.78c-.25-.2-.56-.31-.91-.31s-.66.1-.91.31c-.25.2-.38.46-.38.78s.12.58.38.78c.25.2.56.3.91.3"/><path class="cls-1" d="m24.25,4.8c0-1.38.26-2.48.77-3.3.52-.82,1.28-1.23,2.31-1.23s1.84.41,2.37,1.23c.42.64.67,1.47.75,2.48h.83V.23h1.76v11.39h-1.76v-6.15h-.81c-.07,1.07-.32,1.94-.77,2.63-.53.82-1.33,1.23-2.37,1.23s-1.79-.41-2.31-1.23c-.51-.82-.77-1.93-.77-3.31m1.77.02c0,1.03.12,1.79.34,2.3.22.51.54.76.96.76.45,0,.79-.25,1.04-.76.24-.5.37-1.27.37-2.3s-.12-1.82-.37-2.32c-.25-.52-.6-.77-1.04-.77-.41,0-.73.25-.96.77-.22.5-.34,1.28-.34,2.32M33.68.23h1.8v11.39h-1.8V.23Z"/><path class="cls-1" d="m36.68,4.8c0-1.38.3-2.48.9-3.3.6-.82,1.47-1.23,2.61-1.23s2.01.41,2.61,1.23c.47.64.75,1.47.85,2.47h1.71V.23h1.9v11.39h-1.9v-6.15h-1.69c-.09,1.07-.38,1.94-.86,2.63-.6.82-1.47,1.22-2.61,1.22s-2.01-.41-2.61-1.22c-.6-.82-.9-1.93-.9-3.31m1.9.02c0,1.03.14,1.79.41,2.3.28.5.67.76,1.18.76s.91-.25,1.19-.76c.28-.51.42-1.27.42-2.3s-.14-1.81-.42-2.32c-.28-.52-.68-.77-1.19-.77s-.9.25-1.18.77c-.27.5-.41,1.28-.41,2.32"/><path class="cls-1" d="m58.12.52c.4,0,.61.21.61.62v3.5h-7.25v.85c0,.35.23.51.7.51h6.61v1.45h-3.57v1.67h4.89v1.41h-11.7v-1.41h4.88v-1.67h-1.63c-1.38,0-2.06-.61-2.06-1.82v-2.43h7.25v-1.23h-7.25V.52h8.54Z"/><path class="cls-1" d="m72.41,10.47h-11.69v-1.52h11.69v1.52Zm-4.88-9.46c0,1.67.44,2.92,1.31,3.72.8.73,1.75,1.14,2.84,1.22v1.43c-1.58-.04-2.95-.52-4.1-1.42-.4-.32-.73-.69-1.01-1.12-.29.42-.63.79-1.02,1.12-1.15.91-2.51,1.38-4.1,1.42v-1.43c1.09-.08,2.05-.49,2.85-1.22.87-.8,1.3-2.04,1.3-3.72V.39h1.93v.62Z"/><path class="cls-1" d="m79.75,7.61v1.45h-6.82v-1.45h1.12V1.89h-.97V.42h6.42v1.47h-.97v5.73h1.22Zm-3.96,0h.98V1.89h-.98v5.73ZM80.19.23h1.75v11.39h-1.75v-6.28h-1.27v-1.51h1.27V.23Zm2.27,0h1.77v11.39h-1.77V.23Z"/><path class="cls-1" d="m85.24,4.8c0-1.38.3-2.48.9-3.3.6-.82,1.47-1.23,2.6-1.23s2.01.41,2.61,1.23c.59.82.9,1.92.9,3.3s-.31,2.49-.9,3.31c-.6.82-1.47,1.23-2.61,1.23s-2.01-.41-2.6-1.23c-.6-.82-.9-1.93-.9-3.31m1.9.02c0,1.03.14,1.79.42,2.3.27.51.66.76,1.17.76s.92-.25,1.19-.76c.28-.5.42-1.27.42-2.3s-.14-1.82-.42-2.32c-.28-.52-.68-.77-1.19-.77s-.9.25-1.17.77c-.28.5-.42,1.28-.42,2.32M93.54.23h1.91v11.39h-1.91V.23Z"/><path class="cls-1" d="m108.26,10.47h-11.7v-1.52h11.7v1.52Zm-4.88-9.46c0,1.67.43,2.92,1.3,3.72.8.73,1.75,1.14,2.85,1.22v1.43c-1.59-.04-2.96-.52-4.1-1.42-.4-.32-.73-.69-1.01-1.12-.28.42-.62.79-1.02,1.12-1.15.91-2.51,1.38-4.1,1.42v-1.43c1.09-.08,2.04-.49,2.84-1.22.88-.8,1.31-2.04,1.31-3.72V.39h1.93v.62Z"/></g></svg>