<?xml version="1.0" encoding="UTF-8"?><svg id="_레이어_2" xmlns="http://www.w3.org/2000/svg" viewBox="0 0 80.39 27.75"><defs><style>.cls-1{fill:#fff;}.cls-2{fill:#e6002d;}.cls-3{fill:#003668;}</style></defs><g id="Layer_1"><path class="cls-1" d="m34.83,13.31v-3.03h1.14v3.03h1.63v-3.03h1.15v3.03h2.89v1.06h-8.94v-1.06h2.13Zm4.89-1.72v-4.69h-6.3v-1.08h7.5v5.76h-1.2Z"/><path class="cls-1" d="m51.85,12.11v3h-1.21v-1.97h-6.52v-1.04h1.55v-1.14s-2.04,0-2.04,0v-1.04h8.94v1.04h-2.06v1.14h1.34Zm-1.35-4.76c0,.3-.07.59-.2.85-.13.28-.3.52-.51.73-.22.19-.47.35-.76.48-.29.12-.6.18-.92.18s-.64-.06-.94-.18c-.29-.12-.55-.28-.77-.48-.2-.21-.38-.45-.5-.73-.14-.27-.2-.56-.2-.85,0-.31.07-.6.2-.86.13-.28.3-.51.5-.72.22-.21.48-.36.77-.49.3-.12.6-.18.94-.18s.63.06.92.18c.29.12.55.28.76.49.21.21.38.45.51.72.13.27.2.55.2.86m-3.72,4.76h2.61v-1.14h-2.61v1.14Zm2.53-4.76c0-.34-.12-.61-.36-.84-.23-.23-.52-.34-.85-.34s-.62.11-.87.34c-.24.23-.35.5-.35.84s.12.6.35.84c.25.23.53.35.87.35s.62-.12.85-.35c.24-.23.36-.51.36-.84"/><path class="cls-1" d="m54.66,11.5h8.94v1.07h-3.87v2.51h-1.21v-2.51h-3.86v-1.07Zm1.91-4.77h5.11v-1.23h1.2v4.69h-7.5v-4.69h1.19v1.23Zm5.11,1.04h-5.11v1.34h5.11v-1.34Z"/><polygon class="cls-1" points="36.15 18.86 36.15 22.32 35.59 22.32 35.59 19.53 34.69 22.32 34.16 22.32 33.25 19.53 33.25 22.32 32.7 22.32 32.7 18.86 33.55 18.86 34.42 21.55 35.3 18.86 36.15 18.86"/><path class="cls-1" d="m37.47,19.13c0,.1-.03.18-.11.25-.07.07-.16.11-.25.11s-.18-.03-.25-.11c-.07-.07-.11-.15-.11-.25s.03-.18.11-.25c.07-.08.16-.11.25-.11s.18.03.25.11c.07.07.11.16.11.25m-.64.7h.56v2.49h-.56v-2.49Z"/><path class="cls-1" d="m38.65,21.06v1.25h-.56v-2.49h.54v.34c.06-.12.16-.21.29-.29.12-.07.26-.11.4-.11.3,0,.53.11.7.31.18.2.27.47.27.8v1.44h-.57v-1.3c0-.26-.05-.46-.13-.59-.09-.12-.22-.18-.39-.18-.09,0-.18.03-.27.09-.09.06-.16.14-.2.24-.06.13-.09.29-.09.49"/><path class="cls-1" d="m41.59,19.13c0,.1-.03.18-.11.25-.07.07-.15.11-.26.11-.1,0-.18-.03-.25-.11-.07-.07-.11-.15-.11-.25s.04-.18.11-.25c.07-.08.15-.11.25-.11.1,0,.19.03.26.11.07.07.11.16.11.25m-.64.7h.56v2.49h-.56v-2.49Z"/><path class="cls-1" d="m41.98,21.86l.35-.36c.1.13.21.23.32.31.11.07.24.11.37.11s.24-.02.32-.08c.09-.05.13-.12.13-.2,0-.09-.04-.15-.12-.21-.08-.04-.19-.09-.3-.13-.14-.04-.27-.09-.42-.15-.19-.06-.33-.15-.42-.26-.09-.11-.13-.24-.13-.38,0-.2.1-.38.29-.52.19-.15.42-.22.68-.22s.51.07.67.2c.09.07.16.16.22.26l-.35.33c-.05-.08-.09-.14-.16-.18-.11-.1-.24-.15-.42-.15-.09,0-.18.02-.25.07-.07.05-.1.1-.1.17,0,.07.04.14.12.18.08.06.2.11.35.15.06.02.12.04.19.07.24.08.43.17.55.31.13.12.19.27.19.45,0,.21-.1.38-.3.53-.2.15-.45.22-.76.22-.26,0-.49-.06-.68-.18-.13-.07-.24-.19-.34-.34"/><path class="cls-1" d="m45.23,19.03v.8h.54v.46h-.54v1.26c0,.12.03.2.09.25.06.04.14.06.24.06h.21v.45h-.34c-.27,0-.47-.06-.59-.18-.12-.12-.18-.3-.18-.53v-1.32h-.42v-.46h.42v-.8h.57Z"/><path class="cls-1" d="m46.23,22.32v-2.49h.53v.38c.08-.12.18-.22.3-.29.14-.08.31-.12.5-.12h.04v.5h-.06c-.24,0-.42.07-.56.21-.13.13-.19.36-.19.65v1.16h-.56Z"/><polygon class="cls-1" points="48.79 22.23 47.82 19.83 48.4 19.83 49.08 21.53 49.74 19.83 50.32 19.83 48.94 23.27 48.36 23.27 48.79 22.23"/><path class="cls-1" d="m53.07,22.38c-.36,0-.67-.12-.92-.38-.26-.25-.39-.56-.39-.93s.13-.68.39-.93c.25-.25.56-.38.92-.38s.68.12.93.38c.26.25.38.56.38.93s-.13.68-.38.93c-.25.25-.57.38-.93.38m0-.47c.2,0,.38-.08.53-.24.15-.16.22-.35.22-.6,0-.23-.07-.44-.22-.6-.14-.16-.32-.24-.53-.24s-.37.08-.52.24c-.15.16-.22.37-.22.6,0,.25.07.44.22.6.15.16.32.24.52.24"/><path class="cls-1" d="m54.99,19.57c0-.23.06-.41.19-.53.13-.12.33-.18.6-.18h.27v.45h-.16c-.11,0-.19.02-.25.06-.06.05-.09.13-.09.25v.21h.5v.46h-.5v2.03h-.57v-2.03h-.43v-.46h.43v-.26Z"/><polygon class="cls-1" points="60.27 22.32 58.01 22.32 58.01 18.86 60.26 18.86 60.26 19.34 58.59 19.34 58.59 20.34 60.23 20.34 60.23 20.81 58.59 20.81 58.59 21.83 60.27 21.83 60.27 22.32"/><path class="cls-1" d="m61.89,19.77c.29,0,.55.12.76.36v-1.27h.56v3.46h-.54v-.32c-.21.25-.47.38-.78.38-.36,0-.66-.12-.88-.39-.22-.26-.33-.56-.33-.91s.11-.66.33-.91c.22-.26.52-.39.88-.39m.75,1.46c0-.11,0-.22,0-.32-.02-.19-.09-.35-.21-.47-.14-.14-.3-.21-.49-.21-.21,0-.39.08-.52.23-.12.16-.19.36-.19.6s.06.44.19.6c.13.16.3.24.52.24.19,0,.36-.07.49-.21.11-.12.19-.28.21-.47"/><path class="cls-1" d="m65.5,21.08v-1.25h.57v2.49h-.54v-.33c-.07.12-.16.22-.28.28-.14.07-.28.11-.42.11-.29,0-.52-.1-.7-.3-.18-.2-.27-.47-.27-.81v-1.44h.56v1.3c0,.27.04.46.13.59.08.12.21.19.39.19.09,0,.18-.03.27-.09.09-.07.16-.15.2-.24.05-.13.08-.29.08-.5"/><path class="cls-1" d="m66.55,21.07c0-.35.13-.67.4-.92.27-.25.61-.38,1.03-.38.32,0,.62.1.91.31l-.19.45c-.25-.19-.49-.3-.73-.3-.25,0-.46.08-.62.24-.16.16-.24.37-.24.6s.08.43.24.59c.16.16.36.24.62.24.24,0,.49-.09.74-.28l.18.44c-.28.21-.58.31-.92.31-.41,0-.76-.12-1.03-.38-.26-.25-.4-.56-.4-.92"/><path class="cls-1" d="m27.75,13.88c0,7.66-6.21,13.88-13.88,13.88S0,21.54,0,13.88,6.21,0,13.88,0s13.88,6.21,13.88,13.88"/><path class="cls-1" d="m70.46,20.71h.59c0-.16-.06-.28-.19-.35-.12-.09-.31-.12-.55-.12h-.02c-.22,0-.46.05-.71.16l-.14-.44c.26-.12.55-.17.86-.18h.01c.42,0,.74.08.96.24.22.16.33.41.33.77v1.53h-.53v-.27c-.11.1-.24.18-.39.25-.16.05-.31.08-.47.08-.3,0-.54-.07-.72-.23-.18-.16-.28-.35-.28-.58,0-.25.12-.46.35-.62.21-.15.51-.23.9-.23m-.15,1.22c.14,0,.29-.03.43-.1.14-.08.24-.16.31-.25v-.42h-.5c-.28,0-.48.03-.6.11-.11.08-.16.18-.16.29,0,.11.05.2.14.27.09.07.22.1.38.1"/><path class="cls-1" d="m72.98,19.03v.8h.55v.46h-.55v1.26c0,.12.03.2.09.25.05.04.13.06.24.06h.21v.45h-.34c-.26,0-.46-.06-.59-.18-.12-.12-.18-.3-.18-.53v-1.32h-.42v-.46h.42v-.8h.57Z"/><path class="cls-1" d="m74.64,19.13c0,.1-.03.18-.1.25-.07.07-.16.11-.26.11-.09,0-.18-.03-.25-.11-.07-.07-.11-.15-.11-.25s.04-.18.11-.25c.07-.08.16-.11.25-.11.11,0,.19.03.26.11.07.07.1.16.1.25m-.64.7h.56v2.49h-.56v-2.49Z"/><path class="cls-1" d="m76.4,22.38c-.36,0-.67-.12-.93-.38-.26-.25-.39-.56-.39-.93s.13-.68.39-.93c.25-.25.57-.38.93-.38s.68.12.93.38c.25.25.38.56.38.93s-.13.68-.38.93c-.26.25-.57.38-.93.38m0-.47c.2,0,.38-.08.53-.24.15-.16.22-.35.22-.6,0-.23-.07-.44-.22-.6-.15-.16-.32-.24-.53-.24s-.38.08-.52.24c-.15.16-.22.37-.22.6,0,.25.07.44.22.6.15.16.32.24.52.24"/><path class="cls-1" d="m78.75,21.06v1.25h-.56v-2.49h.54v.34c.07-.12.16-.21.29-.29.13-.07.26-.11.41-.11.29,0,.53.11.71.31.17.2.26.47.26.8v1.44h-.56v-1.3c0-.26-.04-.46-.13-.59-.08-.12-.22-.18-.39-.18-.1,0-.18.03-.27.09-.09.06-.15.14-.2.24-.06.13-.08.29-.08.49"/><path class="cls-3" d="m20.12,12.96c-2.12-1.44-4.83-.85-6.25,1.31-1.18,1.81-2.98,2.04-3.67,2.04-2.27,0-3.81-1.6-4.27-3.25h0s0-.03-.01-.05c0-.02-.01-.03-.02-.06-.18-.69-.22-1.02-.22-1.75,0-3.94,4.05-8.35,9.87-8.35s9.37,4.56,10.25,7.09c-.02-.05-.03-.1-.04-.14-1.69-4.95-6.37-8.51-11.88-8.51C6.93,1.29,1.3,6.93,1.3,13.89c0,6.22,4.48,11.53,10.68,11.53,4.94,0,8.27-2.78,9.8-6.61.84-2.09.24-4.56-1.65-5.85"/><path class="cls-2" d="m25.87,10.18c-.73-2.47-4.17-7.33-10.33-7.33-5.82,0-9.87,4.41-9.87,8.35,0,.73.05,1.06.22,1.75-.08-.3-.11-.6-.11-.9,0-4.12,4.11-6.97,8.34-6.97,5.72,0,10.36,4.65,10.36,10.38,0,4.5-2.57,8.38-6.33,10.25,4.83-1.75,8.28-6.39,8.28-11.84,0-1.29-.17-2.43-.55-3.7"/></g></svg>