<?xml version="1.0" encoding="UTF-8"?><svg id="_레이어_2" xmlns="http://www.w3.org/2000/svg" viewBox="0 0 107.6 22.61"><defs><style>.cls-1,.cls-2{fill:#fff;}.cls-3{fill:#0071b9;}.cls-3,.cls-2,.cls-4{fill-rule:evenodd;}.cls-4{fill:#c82333;}</style></defs><g id="Layer_1"><path class="cls-1" d="m11.28,19.22V3.4c0-1.87,2.02-3.4,4.51-3.4s4.51,1.52,4.51,3.4v15.82c0,1.88-2.02,3.39-4.51,3.39s-4.51-1.51-4.51-3.39"/><path class="cls-4" d="m0,19.22V3.4C0,1.52,2.02,0,4.51,0s4.51,1.52,4.51,3.4v15.82c0,1.88-2.02,3.39-4.51,3.39s-4.51-1.51-4.51-3.39"/><path class="cls-3" d="m11.28,19.22v-4.26l3.86,4.62.61-.51-4.39-5.24,5.41,4.17.48-.63-5.42-4.17,6.18,2.89.34-.72-6.18-2.89,6.66,1.48.17-.78-6.66-1.47h6.83v-.8h-6.83l6.66-1.48-.17-.78-6.66,1.48,6.18-2.89-.34-.72-6.18,2.9,5.42-4.17-.48-.63-5.41,4.16,4.39-5.25-.61-.5-3.86,4.62V3.4c0-1.87,2.02-3.4,4.51-3.4s4.52,1.52,4.52,3.4v15.82c0,1.88-2.02,3.39-4.52,3.39s-4.51-1.51-4.51-3.39"/><path class="cls-2" d="m33.92,12.28v-6.8c0-.83-.61-.47-.9-.78-.3-.34.44-.43.67-.38.57.02,1.5.19,1.67.23,0,.27-.16.68-.16.96v1.73c.17-.02.39-.12.47-.21.43,0,1.66.04,1.59.61-.05.42-.96.3-1.46.3h-.61v4.35h-1.27Zm70.25,0v-6.77c0-.83-.61-.47-.91-.79-.3-.33.46-.39.67-.38.57.02,1.5.2,1.67.23,0,.26-.15.69-.15.97v2.25c.18-.02.35-.14.48-.24.29,0,.77-.04,1.3.16.13.05.22.1.28.16.06.06.09.12.09.17,0,.18-.26.34-.61.37-.65.06-.89.03-1.54.03v3.84h-1.27Zm-39.5-1.71v-5.06c0-.83-.61-.47-.91-.79-.13-.16-.03-.28.16-.33.14-.05.33-.06.5-.05.57.02,1.51.2,1.67.23,0,.26-.16.68-.16.96v2.24c.17-.04.35-.12.47-.22.44,0,1.66.05,1.59.61-.05.42-.96.3-1.45.3h-.61v2.11h-1.27Zm10.05-.39v-4.67c0-.83-.61-.47-.9-.79-.14-.16-.03-.28.16-.33.07-.02.13-.04.21-.04.07,0,.15-.01.23-.01h.06c.58.02,1.51.2,1.67.23,0,.26-.16.68-.16.96v2.24c.18-.04.35-.11.47-.22.42,0,.93.01,1.31.2.18.1.3.22.27.41-.05.42-.95.3-1.45.3h-.61v1.72h-1.27Zm-27.71-1.17c.23-.08.31-.32.22-.51-.17-.34-1.42-.4-1.68-.4-.11.09-.37.24-.54.24-1.99.04-3.82.03-5.78,0-.43,0-1.88-.15-2.08-.09-.46.12-.32.35,0,.54.42.25,1.04.42,1.49.42.1-.08.33-.18.47-.19l2.12-.03v1.74h-.38s-2.49-.06-2.49-.06c-.93.26.72.88,1.14.88.13,0,.29-.1.43-.12.75-.1,2.76-.03,3.56,0v2.73h1.34v-3.5c-.21.02-.43.06-.64.06h-1.66v-1.73c1.02,0,2.06,0,3,.05.24.02,1.24.08,1.5-.02m8.4-.73c.2-.02.42-.09.5-.21.43,0,1.61.03,1.54.59-.05.42-.96.31-1.46.31h-.58v5.17h-1.27V5.5c0-.83-.61-.47-.9-.79-.14-.16-.03-.28.16-.33.14-.05.33-.06.5-.05.57.02,1.51.2,1.67.23,0,.26-.15.69-.15.97v2.74Zm9.27,5.86v-2.36c-.71-.02-2.23-.07-2.98,0-.16.01-.42.03-.55.14-.19,0-.36-.04-.53-.09-.6-.18-1.38-.58-.69-.77.21-.07,1.35.04,1.78.04l4.23-.04v3.09h-1.27Zm21.81-8.61v8.61h-1.27V5.5c0-.83-.61-.47-.91-.79-.14-.16-.02-.28.17-.33.47-.14,1.38.03,1.93.14.09.02.16.02.24.02,0,.33-.15.65-.15.98m8.93,2.93h-.97v4.79h-1.25v-7.43c0-.85-.59-.45-.85-.78-.26-.32.4-.39.63-.38.33.01.91.14,1.26.2.12.02.24.04.36.04,0,.27-.15.67-.15.95v1.96h.97v-2.27c0-.21-.03-.37-.06-.42-.15-.26-.95-.25-.82-.57.15-.41,1.31-.14,1.89-.04.14.03.26.05.4.05,0,.27-.15.69-.15.98v8.61h-1.25v-5.68Zm-43.79,2.09c-.38-.06-.42-.32-.39-.64.03-.28.09-.66.15-1.06.08-.61.2-1.5.27-2.54.02-.29-.05-.25-.42-.26-.17,0-1.28-.05-1.94.03-.17.02-.36.05-.5.16-.27,0-.53-.09-.77-.19-.57-.25-1.08-.64-.41-.78.16-.02.3.02.47.03l1.26.09,2.41-.04c.12-.04.23-.11.36-.12.12,0,.26.03.52.14.4.16.52.49.42.85-.05.21-.11.57-.18.99-.15.91-.32,2.15-.61,2.83-.12.29-.3.58-.64.53m-2.9.73h.38v-2.46c0-.45-.28-.44-.48-.48-.2-.03-.35-.06-.29-.26.11-.38,1.06-.23,1.65-.14.18.02.35.06.54.06l-.14.73v2.47c1.02-.08,2.12-.13,3.09-.29.54-.09.57.45.13.55-1.32.29-2.6.38-3.94.46-.31.02-.62.04-.92.06-.11.03-.39.16-.5.16-.27,0-2.13-.6-1.21-.91.26-.09,1.38.06,1.69.06m-3.53-5.42c-.14.52-.59,1.88-1.11,2.24-.11.07-.38.11-.53.06-.25-.09-.36-.34-.3-.53.11-.35.34-1.2.43-1.75.04-.23-.07-.22-.29-.23-1.08-.07-2.16-.04-3.24.05-.13.03-.39.16-.49.16-.41,0-2.14-.75-1.12-1.01.12-.03.97.05.97.05,1.4.15,2.88,0,4.3,0,.1-.02.47-.14.62-.16.47-.09.94.28.94.76,0,.11-.17.15-.17.37m-14.58.07c0-.42.08-.85.12-1.08l.02-.21c-.52-.02-1.03-.15-1.56-.16-.5-.02-.75.42-.2.53.43.09.33.6.32.93l-1.26-.02c-.34-.01-1.15-.13-1.38-.07-.2.06-.28.13-.28.22,0,.26.94.6,1.11.63.54.1.45.03.81-.1.32-.11,3.01-.01,3.12-.01.62.02,1.84.21,1.93-.27.1-.56-1.17-.62-1.56-.62-.32.29-.75.24-1.2.24m-1.26,5.61c-.06.17.19.27.3.29.59.1.6.22.64.57l-.02,1.01c-.03.37.06.67.84.72,1.54.1,3.08.07,4.64,0,.44-.04.54-.53.16-.7-.42-.15-1.01-.21-1.45-.21-.11.08-.19.14-.33.17-.42.1-1.38.04-1.84.03-.5,0-.6-.03-.62-.22-.17-1.51.09-1.32.09-1.73l-1.67-.15c-.28-.02-.67.04-.73.21m3.13-2.99c0,2.16-3.69,2.67-4.82.82-.95-1.57,1.06-3.23,3.2-2.61.91.26,1.62.92,1.62,1.78m-1.38,0c0-1.61-2.28-1.59-2.28,0s2.28,1.68,2.28,0m59.62.81c.57.81.98,1.5,1.33,2.41.11.29.6.33.82.11.25-.25.1-1.11,0-1.32-.24-.56-1.17-1.29-1.76-1.82.33-.51.67-1.03.92-1.58.14-.32.32-.64.34-.92.02-.23-.09-.44-.23-.58-.17-.19-.45-.32-.71-.34-.16,0-.34.15-.43.16-.88.07-1.49.06-2.62-.08-.73-.09-.86.32-.43.67,1.06.82.92.34,1.35.28.08-.01,1.28-.12,1.38.06.21.38-.7,1.92-.93,2.31-.58,1.02-1.44,2.18-2.37,2.77-.59.36.03.8.58.48,1.04-.61,2.12-1.67,2.73-2.62m-7.76,2.21c.54-.08,1.36-.22,1.89-.37.34-.1.25-.62-.24-.54-1.58.25-3.72.55-5.33.5-.35-.02-1.04-.15-1.3-.06-.92.31.96.96,1.2.96.11,0,.38-.14.49-.17,1.13-.09,2.21-.17,3.29-.32m-2.32-6.14c-3.05.62-2.45,4.4.68,4.4s3.78-3.78.7-4.4c.08-.49-.06-.88-.71-.9-.69-.02-.8.41-.67.9m2.05,2.12c0,1.99-2.68,1.98-2.68,0s2.68-2,2.68,0m-11.49.78c.68.42,1.27.96,1.73,1.57.35.46,1.1.19,1.1-.53,0-.47-1.6-1.12-2.34-1.45.46-.45.8-.81,1.1-1.33.29-.49.18-.73-.14-.87-.17-.07-.32-.1-.48-.17-.12.11-.72.14-.88.14l.13-.97-.3-.06c-.41-.09-.85-.18-1.27-.15-.71.05-.49.47-.15.53.36.07.3.4.29.66-.2,0-.39,0-.59-.03-.46-.03-1.08-.07-1.24-.04-.34.09-.34.25-.18.4.28.27,1.07.54,1.31.5.35-.04-.04-.16,1.24-.2,1.11-.03.97.05.07,1.1-.84.99-1.83,1.74-3.05,2.35-.64.31-.06.66.54.44,1.12-.42,2.32-1.06,3.12-1.87m4.88,4.13c0-1.65-2.3-2.51-3.99-1.75-1.08.48-1.69,1.56-1.09,2.57.48.81,1.47,1.19,2.45,1.19.66,0,1.32-.17,1.81-.51.49-.34.82-.84.82-1.5m-1.34,0c0,1.76-2.6,1.75-2.6,0s2.6-1.75,2.6,0m-13.38-6.67c.01-.42.15-.9.15-1.17-.1,0-.2-.02-.3-.03-.31-.04-.86-.12-1.26-.13-.5-.02-.75.42-.2.53.39.09.32.52.31.82-.79,0-1.48,0-2.25-.11-.89-.12-.93.51.44.82.31.08.39.08.67-.02.4-.16,2.4-.09,3.14-.07.65.03,1.97.22,2.06-.25.1-.53-1.19-.62-1.56-.62-.33.29-.75.23-1.21.24m1.85,2.6c0-.85-.69-1.51-1.6-1.77-2.15-.6-4.08,1.03-3.16,2.57,1.07,1.78,4.76,1.36,4.76-.8m-1.38,0c0,1.65-2.21,1.62-2.21,0s2.21-1.6,2.21,0m36.74,1.68c.49.18,1.24.06,1.97-.04,1.04-.14,2.56-.56,3.19-.81.38-.18.3-.53-.11-.54-.27,0-.65.14-1.2.25-.22.04-1.54.28-2.32.3-.69.02-.69-.15-.69-.82v-2.35h2.21c.41,0,1.36.16,1.42-.36.06-.59-1.11-.61-1.62-.63-.14.13-.31.19-.49.22-.82.16-2.33-.05-3.06-.05-.53,0-.58.5-.08.64.31.09.25.28.28.78v2.63c0,.52.16.65.52.78m7.6,3.38c-.44-.15-1.03-.22-1.49-.22-.18.14-.28.22-.52.22-.47.03-1.24,0-1.64,0-.49,0-.61,0-.61-.22v-1.3c0-.43.1-.41.08-.74l-.87-.09c-.34-.04-.9-.05-1.23-.05-.31,0-.36.12-.36.2,0,.25.31.29.61.37.11.03.21.07.26.12.05.05.08.19.08.34v1.12c0,.6.07.91.86.97.39.02,4.02.04,4.66,0,.46-.04.55-.53.17-.7"/><path class="cls-2" d="m53.21,17.4v2.37h.29v-1.45c0-.61.44-.73.59-.62v-.35c-.3-.06-.52.14-.61.43v-.38h-.28Zm-1.36,1.19c0-.34-.03-.97.42-.97s.43.64.43.97.01.97-.43.97-.42-.63-.42-.97m-.32,0c0,.62.1,1.25.74,1.25s.74-.62.74-1.25-.1-1.26-.74-1.26-.74.64-.74,1.26m-.55-.92h-.3v-.27h.3c0-.43-.05-.82.5-.82l.12.02v.29c-.39-.1-.32.23-.32.51h.32v.27h-.32v2.1h-.3v-2.1Zm-2.38-.27v2.37h.3v-1.61c0-.16.04-.28.11-.38.18-.22.61-.23.61.25v1.74h.3v-1.72c0-.26-.04-.45-.12-.55-.19-.25-.74-.23-.92.19v-.29h-.28Zm-1.37,1.19c0-.34-.02-.97.42-.97s.42.64.42.97.02.97-.42.97-.42-.63-.42-.97m-.32,0c0,.62.1,1.25.74,1.25s.75-.62.75-1.25-.1-1.26-.75-1.26-.74.64-.74,1.26m-.49,1.18h.31v-2.37h-.31v2.37Zm0-2.74h.31v-.43h-.31v.43Zm-.5,2.24v-1.59h.35v-.27h-.35v-.64h-.29v.64h-.3v.27h.3v1.75c0,.41.33.36.63.36v-.29c-.22,0-.35.02-.35-.23m-.45.51c-.26.04-.43.01-.45-.32-.21.57-.99.54-.99-.28,0-.51.17-.57.64-.78.36-.16.32-.22.32-.5,0-.19-.11-.28-.31-.28-.24,0-.31.16-.31.43h-.27c0-.46.16-.7.62-.7.43,0,.58.22.58.64v1.39c0,.17.07.16.18.16v.25Zm-.47-1.28c-.26.3-.66.1-.66.67s.66.48.66-.2v-.47Zm-1.43,1.28h.28v-3.18h-.3v1.05c-.05-.19-.26-.3-.46-.3-.84,0-.72,1.69-.48,2.15.23.44.84.44.96-.02v.3Zm0-1.2c0,.34-.03.58-.1.73-.13.3-.49.3-.61,0-.12-.3-.24-1.66.31-1.66.4,0,.4.51.4.93m-2.65-1.17v2.37h.3v-1.61c0-.16.04-.28.11-.38.18-.22.62-.23.62.25v1.74h.3v-1.72c0-.26-.04-.45-.12-.55-.19-.25-.74-.23-.93.19v-.29h-.28Zm-.54,2.07v.31h.27v-2.37h-.31v1.58c0,.18-.04.32-.12.42-.19.25-.58.2-.58-.16v-1.83h-.31v1.82c0,.22.05.38.12.48.22.26.76.18.92-.23m-2.39-.88c0-.34-.02-.97.43-.97s.42.64.42.97.02.97-.42.97-.43-.63-.43-.97m-.32,0c0,.62.1,1.25.74,1.25s.74-.62.74-1.25-.1-1.26-.74-1.26-.74.64-.74,1.26m-1.27-1.99h1.31v.32h-.98v1.03h.78v.32h-.78v1.5h-.33v-3.18Zm-.88,3.18v-.25c-.11,0-.17,0-.17-.16v-1.39c0-.43-.16-.64-.58-.64-.46,0-.61.25-.63.7h.28c0-.26.08-.43.31-.43.21,0,.31.09.31.28,0,.28.04.34-.32.5-.46.22-.64.27-.64.78,0,.82.78.85.99.28.02.34.18.36.44.32m-.46-1.28v.47c0,.68-.67.8-.67.2s.4-.37.67-.67m-1.11.48h-.3c0,.25-.06.59-.34.59-.4,0-.38-.59-.38-.97h1.02v-.07c0-.69-.13-1.2-.65-1.2-.23,0-.41.1-.51.31-.21.4-.22,1.5,0,1.9.25.47,1.14.49,1.16-.57m-.3-.65h-.72c0-.24.03-.43.09-.55.11-.2.63-.44.63.55m-1.86-.93h.27v.38c.09-.3.32-.49.62-.43v.35c-.16-.11-.6.01-.6.62v1.45h-.29v-2.37Zm-1.36,1.19c0-.34-.02-.97.42-.97s.42.64.42.97.02.97-.42.97-.42-.63-.42-.97m-.32,0c0,.62.1,1.25.75,1.25s.75-.62.75-1.25-.1-1.26-.75-1.26-.75.64-.75,1.26m-1.68-1.99h.31v1.53l1.02-1.53h.36l-.88,1.28.94,1.89h-.38l-.77-1.58-.3.44v1.15h-.31v-3.18Zm55.51,3.18h.3v-2.37h-.3v2.37Zm0-2.74h.3v-.43h-.3v.43Zm-.22,1.91h-.29c0,.19-.04.34-.09.45-.09.15-.3.2-.44.1-.31-.21-.26-1.34-.13-1.65.13-.31.63-.35.65.3h.29c0-.45-.18-.81-.64-.81-.93,0-.78,1.77-.55,2.19.28.51,1.2.47,1.2-.59m-2.87-.18c0,.44.09.77.53.77.53,0,.61-.67.42-.94-.31-.43-1.2-.19-1.2-1.19s.96-1.07,1.31-.67c.15.16.19.41.19.69h-.29c0-.69-.56-.7-.79-.46-.15.16-.17.55-.04.73.22.34.98.26,1.17.82.17.52.01,1.33-.79,1.33-.67,0-.79-.48-.79-1.08h.3Zm-1.72-1.1v2.1h.31v-2.1h.32v-.27h-.32c0-.28-.07-.61.32-.51v-.29l-.12-.02c-.55,0-.5.4-.5.82h-.3v.27h.3Zm-1.44.92c0,.34-.02.97.42.97s.42-.63.42-.97.02-.97-.42-.97-.42.63-.42.97m-.32,0c0-.62.11-1.25.74-1.25s.75.62.75,1.25-.1,1.25-.75,1.25-.74-.62-.74-1.25m-1.01.7v-1.61h.34v-.27h-.34v-.63h-.29v.63h-.29v.27h.29v1.77c0,.41.33.37.63.37v-.3c-.22,0-.34.02-.34-.24m-1.98-1.88v2.37h.3v-1.61c0-.16.03-.28.11-.38.18-.22.62-.23.62.25v1.74h.29v-1.72c0-.26-.04-.45-.11-.55-.19-.25-.75-.23-.93.18v-.29h-.28Zm-.2,1.57h-.29c0,.25-.06.59-.34.59-.4,0-.38-.59-.38-.97h1.02s0-.05,0-.07c0-.69-.13-1.19-.65-1.19-.23,0-.4.1-.51.3-.21.4-.22,1.5,0,1.9.25.47,1.14.49,1.15-.57m-.29-.65h-.72c0-.24.03-.43.1-.55.11-.2.62-.44.62.55m-3.57-.93v2.37h.29v-1.67c0-.13.04-.25.12-.33.11-.11.62-.37.62.35v1.65h.31v-1.65c0-.52.64-.68.71-.23.05.27.01,1.53.01,1.88h.31v-1.84c0-.72-.8-.76-1.08-.24-.14-.51-.8-.42-1.01,0v-.28h-.27Zm-.21,1.57h-.29c0,.25-.06.59-.34.59-.4,0-.39-.59-.39-.97h1.02s0-.05,0-.07c0-.69-.13-1.19-.65-1.19-.23,0-.4.1-.51.3-.2.4-.22,1.5,0,1.9.25.47,1.14.5,1.15-.57m-.29-.65h-.72c0-.24.04-.43.1-.55.1-.2.62-.44.62.55m-1.18.62h-.29c0,.19-.03.34-.08.45-.09.15-.3.2-.45.1-.3-.21-.25-1.34-.12-1.65.13-.31.62-.35.65.3h.29c0-.45-.17-.81-.64-.81-.92,0-.78,1.77-.54,2.19.28.51,1.2.47,1.2-.59m-2.88-1.54h.27v.29c.18-.41.74-.44.93-.18.08.1.11.28.11.55v1.72h-.29v-1.74c0-.48-.44-.47-.62-.25-.08.1-.12.22-.12.38v1.61h-.3v-2.37Zm-.12,2.38v-.25c-.1,0-.17.01-.17-.16v-1.39c0-.42-.15-.64-.58-.64-.46,0-.62.24-.62.7h.28c0-.26.08-.43.31-.43.2,0,.31.09.31.28,0,.28.03.34-.33.51-.46.21-.63.26-.63.78,0,.82.77.85.98.28.02.34.2.36.45.32m-.46-1.28v.47c0,.69-.67.8-.67.2s.41-.37.67-.67m-2.41-1.09h.32l.42,1.87.43-1.87h.31l-.59,2.37h-.31l-.57-2.37Zm-.36,2.37v-.3c-.12.46-.73.46-.96.02-.24-.46-.35-2.15.49-2.15.2,0,.41.11.46.3v-1.05h.3v3.18h-.28Zm0-1.2c0-.42,0-.93-.4-.93-.55,0-.43,1.36-.31,1.66.12.31.49.31.61.01.07-.15.1-.39.1-.73m-2.26-1.98l-.77,3.18h.32l.2-.91h.9l.21.91h.32l-.79-3.18h-.4Zm.58,1.94h-.75l.38-1.67.38,1.67Zm-2.11.43h-.29c0,.25-.06.59-.34.59-.4,0-.39-.59-.39-.97h1.02s0-.05,0-.07c0-.69-.13-1.19-.65-1.19-.23,0-.4.1-.51.3-.21.4-.22,1.5,0,1.9.25.47,1.15.5,1.15-.57m-.3-.65h-.72c0-.24.03-.43.09-.55.11-.2.62-.44.62.55m-2.53-1.73v3.18h.3v-1.61c0-.16.04-.28.12-.38.15-.18.61-.29.61.26v1.72h.3v-1.89c0-.64-.77-.72-1.02-.23v-1.06h-.3Zm48.33,3.65v.3s.07.02.1.02c.05,0,.09.01.13.01.18,0,.3-.07.38-.2.09-.12.14-.3.19-.5l.65-2.48h-.3l-.47,1.91-.45-1.91h-.63v-.63h-.29v.63h-.3v.27h.3v1.75c0,.42.33.37.63.37v-.29c-.12,0-.3.03-.34-.12-.03-.16,0-1.43,0-1.7h.38l.55,2.12c-.03.1-.05.18-.08.23-.09.23-.24.32-.47.22m-3.82-.98v-1.59h.34v-.27h-.34v-.63h-.29v.63h-.29v.27h.29v1.75c0,.42.33.37.63.37v-.29c-.22,0-.34.03-.34-.23m2.44.51h.3v-2.37h-.3v2.37Zm0-2.74h.3v-.43h-.3v.43Zm-1.57.37l.57,2.37h.32l.58-2.37h-.31l-.44,1.87-.41-1.87h-.32Zm-.39,2.37h.3v-2.37h-.3v2.37Zm0-2.74h.3v-.43h-.3v.43Zm-.99,2.75c-.26.04-.43.01-.44-.32-.21.57-.99.54-.99-.28,0-.51.18-.57.64-.78.36-.17.32-.23.32-.51,0-.19-.1-.28-.31-.28-.23,0-.32.16-.32.43h-.28c0-.46.17-.7.62-.7.42,0,.58.21.58.64v1.39c0,.18.07.16.17.16v.25Zm-.46-1.28c-.26.3-.67.1-.67.67s.67.49.67-.2v-.47Zm-1.11.48c0,1.06-.9,1.03-1.15.57-.21-.4-.2-1.5,0-1.9.1-.2.28-.3.51-.3.52,0,.65.5.65,1.19,0,.03,0,.05,0,.07h-1.01c0,.38-.01.97.38.97.28,0,.34-.34.34-.59h.28Zm-.29-.65c0-.99-.52-.75-.62-.55-.06.12-.09.3-.09.55h.72Zm-1.86-.93v2.37h.3v-1.45c0-.61.44-.73.59-.62v-.35c-.3-.06-.53.14-.61.44v-.39h-.28Zm-.25,1.21h-.31c0,1.18-.75,1.03-.93.6-.17-.38-.19-1.59,0-2.06.22-.54.92-.41.92.38h.3c0-.57-.21-1.01-.81-1.01-.84,0-.88,1.01-.88,1.68,0,.76.09,1.66.86,1.66.67,0,.84-.6.85-1.24m-3.07.86l.2.31h.36l-.38-.62c.12-.2.19-.49.21-.85h-.3c0,.2-.04.4-.09.58l-.54-.89c.31-.22.47-.48.47-.8,0-.56-.63-.82-.96-.43-.3.35-.12.84.12,1.19-.38.25-.56.51-.56.95,0,.94.97,1.25,1.48.56m-.78-1.28l.62,1.01c-.57.89-1.57-.31-.62-1.01m.1-.42c-.07-.1-.12-.21-.16-.31-.08-.21-.09-.58.2-.58.38,0,.35.59-.04.89m-1.7,1.21h-.29c0,.25-.06.59-.34.59-.4,0-.39-.59-.39-.97h1.02s0-.05,0-.07c0-.69-.13-1.19-.65-1.19-.23,0-.4.1-.51.3-.21.4-.21,1.5,0,1.9.26.47,1.15.5,1.15-.57m-.29-.65h-.72c0-.24.03-.43.09-.55.11-.2.63-.44.63.55m-1.18.62h-.29c0,.19-.04.34-.09.45-.09.15-.3.2-.44.1-.31-.21-.25-1.34-.13-1.65.13-.31.62-.35.65.3h.29c0-.45-.17-.81-.64-.81-.92,0-.77,1.77-.54,2.19.27.51,1.2.47,1.2-.59m-2.89-1.54h.28v.29c.18-.41.74-.44.93-.18.08.1.12.28.12.55v1.72h-.3v-1.74c0-.48-.43-.47-.62-.25-.07.1-.11.22-.11.38v1.61h-.3v-2.37Zm-.21,1.57h-.28c0,.25-.06.59-.35.59-.39,0-.38-.59-.38-.97h1.01s0-.05,0-.07c0-.69-.13-1.19-.65-1.19-.23,0-.41.1-.51.3-.2.4-.21,1.5,0,1.9.25.47,1.15.5,1.15-.57m-.29-.65h-.72c0-.24.03-.43.09-.55.11-.2.63-.44.63.55m-30.2.94v-1.59h.34v-.27h-.34v-.63h-.29v.63h-.29v.27h.29v1.75c0,.42.34.37.63.37v-.29c-.22,0-.34.02-.34-.24"/></g></svg>