<?xml version="1.0" encoding="UTF-8"?><svg id="_레이어_2" xmlns="http://www.w3.org/2000/svg" viewBox="0 0 86.32 18.65"><defs><style>.cls-1{fill:#fff;}</style></defs><g id="Layer_1"><path class="cls-1" d="m37.78,14.43v-1.98h5.04c0,.08,0,.16.01.21v.34c0,1.63-.43,2.88-1.27,3.77-.86.91-2.07,1.35-3.62,1.35-.74,0-1.42-.11-2.03-.34-.59-.23-1.12-.58-1.6-1.06-.45-.46-.79-1-1.03-1.6-.12-.32-.22-.65-.28-.97-.06-.32-.09-.65-.09-.97,0-.69.12-1.34.36-1.94.24-.58.6-1.11,1.07-1.6.45-.46.99-.8,1.62-1.04.62-.23,1.27-.36,1.98-.36.92,0,1.73.19,2.44.55.22.11.45.25.67.42.22.16.42.34.61.55.18.2.35.42.51.66l-2.22,1.07c-.27-.37-.56-.64-.89-.82-.35-.18-.72-.27-1.12-.27-.77,0-1.37.25-1.8.77-.44.51-.66,1.21-.66,2.11s.22,1.61.66,2.12c.44.51,1.03.77,1.8.77.66,0,1.2-.16,1.63-.49.45-.32.7-.75.77-1.27h-2.55Z"/><path class="cls-1" d="m42.97,17.89l3.25-9.43h3.21l3.25,9.43h-2.55l-.48-1.68h-3.64l-.49,1.68h-2.55Zm3.6-3.52h2.55l-.96-3.11c-.03-.06-.06-.21-.12-.46-.07-.29-.14-.57-.2-.81-.06.22-.12.44-.15.66-.07.22-.13.42-.17.61l-.94,3.11Z"/><polygon class="cls-1" points="53.25 17.89 53.25 8.46 55.81 8.46 55.81 15.7 59 15.7 59 17.89 53.25 17.89"/><path class="cls-1" d="m59.92,17.89v-9.43h1.96c1.48,0,2.52.07,3.1.21.61.13,1.14.37,1.59.69.6.41,1.06.94,1.36,1.59.31.66.46,1.41.46,2.23s-.15,1.57-.46,2.23c-.31.64-.76,1.18-1.36,1.59-.47.33-.99.55-1.55.67-.57.14-1.47.21-2.72.21h-2.39Zm2.55-2.1h.43c1.01,0,1.75-.21,2.2-.63.46-.41.69-1.07.69-1.97s-.23-1.55-.69-1.97c-.46-.43-1.2-.64-2.2-.64h-.43v5.21Z"/><path class="cls-1" d="m68.58,17.89l3.25-9.43h3.21l3.25,9.43h-2.55l-.48-1.68h-3.65l-.49,1.68h-2.55Zm3.59-3.52h2.55l-.95-3.11c-.03-.06-.07-.21-.12-.46-.07-.29-.14-.57-.2-.81-.06.22-.11.44-.16.66-.07.22-.13.42-.17.61l-.94,3.11Z"/><path class="cls-1" d="m78.85,17.89v-9.43h2.68c.52,0,.96.01,1.33.03.36.02.65.06.88.11.4.1.75.26,1.07.49.34.25.6.59.77.99.19.39.28.82.28,1.32,0,.73-.18,1.32-.54,1.79-.35.46-.88.76-1.56.91l2.57,3.8h-2.9l-2.16-3.69v3.69h-2.41Zm2.41-4.97h.47c.56,0,.96-.09,1.22-.27.25-.21.38-.51.38-.91,0-.46-.11-.8-.35-1-.24-.2-.64-.3-1.2-.3h-.51v2.48Z"/><path class="cls-1" d="m33.41,4.69l.41-.22c.08.26.21.46.4.61.18.14.41.21.67.21.34,0,.59-.1.79-.29.18-.2.28-.47.28-.82,0-.26-.07-.46-.19-.63-.13-.17-.39-.37-.81-.58-.53-.28-.88-.53-1.06-.75-.18-.21-.26-.46-.26-.76,0-.37.12-.68.38-.92.25-.23.58-.35.98-.35.27,0,.5.06.69.17.19.11.35.27.47.5l-.36.22c-.08-.15-.19-.27-.33-.34-.14-.08-.31-.12-.49-.12-.26,0-.47.08-.62.23-.15.16-.23.36-.23.62,0,.36.31.71.92,1.03.11.05.19.1.25.13.45.25.75.48.9.7.15.22.22.5.22.85,0,.46-.14.84-.42,1.12-.27.27-.64.41-1.12.41-.34,0-.64-.09-.89-.26-.25-.17-.44-.43-.58-.77"/><path class="cls-1" d="m39.7,2.97c-.15-.1-.31-.18-.47-.23-.17-.05-.34-.09-.52-.09-.4,0-.71.13-.95.39-.23.25-.35.59-.35,1.01,0,.37.12.68.37.93.24.24.55.36.93.36.17,0,.35-.02.52-.09.18-.06.35-.15.52-.27v.48c-.16.09-.33.16-.51.2-.19.04-.39.07-.61.07-.48,0-.88-.16-1.2-.48-.31-.32-.46-.73-.46-1.23s.16-.93.48-1.26c.32-.32.75-.49,1.26-.49.2,0,.38.02.54.06.17.04.32.09.45.16v.48Z"/><path class="cls-1" d="m40.31,1.14c0-.09.04-.17.1-.24.06-.07.14-.1.24-.1s.17.03.24.1c.07.07.1.15.1.24,0,.1-.03.18-.09.24-.07.07-.15.1-.25.1s-.18-.03-.24-.1c-.07-.06-.1-.14-.1-.24m.11,1.25h.45v3.19h-.45v-3.19Z"/><path class="cls-1" d="m44.63,3.99h-2.53c.01.42.11.73.31.97.19.23.45.35.78.35.24,0,.44-.07.62-.19.17-.13.33-.33.44-.58l.4.23c-.16.32-.36.56-.59.72-.24.16-.53.23-.87.23-.47,0-.84-.15-1.13-.47-.29-.32-.43-.73-.43-1.24s.14-.94.43-1.26c.29-.32.66-.49,1.12-.49s.79.15,1.06.44c.27.31.4.69.4,1.18v.1Zm-.52-.37c-.02-.3-.12-.53-.28-.68-.18-.16-.41-.25-.7-.25-.27,0-.49.09-.67.26-.18.16-.29.39-.32.67h1.98Z"/><path class="cls-1" d="m45.37,5.57v-3.19h.42v.5c.13-.21.29-.36.48-.46.19-.1.4-.16.64-.16.36,0,.65.11.84.3.2.21.3.49.3.85v2.16h-.44v-1.96c0-.33-.07-.55-.2-.71-.13-.16-.33-.23-.62-.23-.33,0-.58.1-.74.3-.16.2-.24.51-.24.94v1.66h-.44Z"/><path class="cls-1" d="m51.49,2.97c-.15-.1-.31-.18-.48-.23-.16-.05-.34-.09-.51-.09-.4,0-.71.13-.95.39-.24.25-.35.59-.35,1.01,0,.37.12.68.36.93.24.24.55.36.93.36.17,0,.34-.02.52-.09.18-.06.35-.15.53-.27v.48c-.16.09-.33.16-.52.2-.19.04-.39.07-.61.07-.49,0-.89-.16-1.2-.48-.31-.32-.46-.73-.46-1.23s.16-.93.49-1.26c.32-.32.75-.49,1.26-.49.19,0,.37.02.54.06.17.04.32.09.45.16v.48Z"/><path class="cls-1" d="m54.92,3.99h-2.53c.01.42.11.73.31.97.19.23.45.35.78.35.23,0,.44-.07.62-.19.17-.13.32-.33.43-.58l.41.23c-.16.32-.36.56-.6.72-.23.16-.52.23-.86.23-.47,0-.85-.15-1.14-.47-.28-.32-.43-.73-.43-1.24s.15-.94.43-1.26c.29-.32.66-.49,1.12-.49s.8.15,1.06.44c.27.31.4.69.4,1.18v.1Zm-.52-.37c-.02-.3-.12-.53-.3-.68-.17-.16-.4-.25-.7-.25-.26,0-.49.09-.67.26-.18.16-.28.39-.31.67h1.98Z"/><path class="cls-1" d="m57.65,5.57V.31h.91c.4,0,.68.02.86.06.17.04.33.1.45.19.17.13.3.3.39.48.09.19.14.4.14.64,0,.28-.07.51-.22.71-.14.2-.35.32-.6.39.34.05.6.19.79.41.2.22.29.5.29.84,0,.25-.03.47-.12.66-.07.19-.18.36-.34.5-.15.14-.33.25-.55.3-.21.06-.58.09-1.1.09h-.92Zm.48-2.93h.6c.43,0,.75-.07.92-.21.18-.14.27-.38.27-.72,0-.36-.09-.62-.27-.77-.17-.15-.48-.23-.93-.23h-.6v1.92Zm0,2.52h.61c.35,0,.58-.01.72-.05.13-.02.24-.07.33-.14.12-.09.21-.21.28-.36.07-.15.1-.32.1-.49,0-.21-.04-.39-.11-.55-.08-.16-.18-.28-.31-.35-.09-.05-.19-.09-.32-.12-.12-.02-.32-.03-.57-.03h-.72v2.1Z"/><path class="cls-1" d="m62.91,5.71c-.23,0-.44-.04-.66-.13-.2-.09-.4-.22-.57-.39-.16-.15-.28-.34-.36-.54-.08-.2-.12-.43-.12-.66s.04-.45.13-.66c.08-.21.21-.39.37-.55.16-.16.35-.29.56-.37.21-.09.43-.13.66-.13s.45.04.67.13c.21.09.4.21.57.37.16.16.29.35.38.55.09.21.12.43.12.66s-.04.45-.12.65c-.08.21-.21.4-.38.55-.17.18-.35.3-.57.39-.21.09-.44.13-.67.13m.01-.41c.35,0,.64-.14.89-.38.24-.25.36-.57.36-.93s-.12-.68-.36-.93c-.24-.25-.53-.38-.89-.38s-.64.12-.89.38c-.24.25-.36.56-.36.93s.12.68.36.93c.25.25.54.38.89.38"/><path class="cls-1" d="m66.83,5.71c-.23,0-.45-.04-.65-.13-.21-.09-.4-.22-.57-.39-.16-.15-.28-.34-.36-.54-.08-.2-.12-.43-.12-.66s.05-.45.13-.66c.09-.21.21-.39.37-.55.16-.16.35-.29.56-.37.21-.09.43-.13.65-.13.24,0,.46.04.67.13.21.09.4.21.57.37.17.16.29.35.38.55.09.21.13.43.13.66s-.04.45-.12.65c-.09.21-.21.4-.38.55-.17.18-.36.3-.57.39-.22.09-.44.13-.67.13m.02-.41c.35,0,.64-.14.89-.38.24-.25.36-.57.36-.93s-.12-.68-.36-.93c-.25-.25-.54-.38-.89-.38s-.64.12-.89.38c-.24.25-.36.56-.36.93s.12.68.36.93c.24.25.53.38.89.38"/><polygon class="cls-1" points="69.3 5.57 69.3 0 69.74 0 69.74 3.8 71.33 2.39 71.93 2.39 70.23 3.82 72.06 5.57 71.45 5.57 69.74 3.92 69.74 5.57 69.3 5.57"/><path class="cls-1" d="m72.12,5.01l.42-.24c.07.17.17.31.3.4.13.09.29.14.48.14s.34-.05.45-.14c.11-.09.16-.23.16-.39,0-.24-.22-.45-.65-.62-.04-.02-.07-.03-.11-.04-.33-.14-.57-.27-.7-.4-.13-.14-.2-.32-.2-.53,0-.27.09-.5.28-.66.2-.18.44-.26.75-.26.26,0,.47.05.66.17.18.11.31.27.4.48l-.4.23c-.06-.15-.14-.27-.25-.35-.11-.08-.26-.11-.43-.11-.15,0-.28.04-.38.14-.1.09-.15.2-.15.33s.04.24.15.32c.1.09.3.18.61.29.35.12.58.25.7.39.12.14.18.35.18.6,0,.29-.1.52-.31.7-.21.17-.49.26-.84.26-.27,0-.5-.07-.7-.19-.2-.12-.34-.29-.42-.52"/><path class="cls-1" d="m75.1,5.57V0h.41v2.88c.13-.21.29-.36.48-.46.19-.1.4-.16.65-.16.36,0,.64.11.85.3.2.21.3.49.3.85v2.16h-.45v-1.96c0-.33-.06-.55-.2-.71-.13-.16-.34-.23-.61-.23-.34,0-.58.1-.74.3-.16.2-.24.51-.24.94v1.66h-.44Z"/><path class="cls-1" d="m80.19,5.71c-.23,0-.45-.04-.66-.13-.21-.09-.39-.22-.56-.39-.16-.15-.29-.34-.37-.54-.08-.2-.12-.43-.12-.66s.04-.45.13-.66c.08-.21.21-.39.37-.55.16-.16.34-.29.55-.37.21-.09.43-.13.66-.13s.46.04.67.13c.21.09.4.21.57.37.16.16.29.35.38.55.09.21.13.43.13.66s-.04.45-.13.65c-.09.21-.21.4-.38.55-.16.18-.35.3-.57.39-.21.09-.44.13-.67.13m.01-.41c.35,0,.65-.14.89-.38.25-.25.36-.57.36-.93s-.11-.68-.36-.93c-.24-.25-.53-.38-.89-.38s-.65.12-.89.38c-.24.25-.36.56-.36.93s.12.68.36.93c.24.25.54.38.89.38"/><path class="cls-1" d="m82.66,7.18V2.39h.43v.59c.12-.23.28-.4.48-.53.19-.12.41-.19.66-.19.45,0,.81.16,1.08.48.27.32.41.73.41,1.25s-.14.94-.4,1.26c-.27.32-.63.47-1.07.47-.25,0-.48-.07-.68-.19-.19-.12-.35-.3-.48-.54v2.19h-.43Zm2.58-3.18c0-.41-.1-.74-.28-.97-.19-.24-.44-.35-.77-.35s-.61.11-.8.34c-.2.23-.29.55-.29.94,0,.41.1.73.31.98.2.25.48.37.82.37.32,0,.58-.12.75-.34.18-.23.27-.55.27-.96"/><polygon class="cls-1" points="15.53 8.19 15.53 13.38 18.11 13.38 18.11 10.78 20.7 10.78 20.7 8.19 15.53 8.19"/><rect class="cls-1" x="18.11" y="13.38" width="2.59" height="2.59"/><polygon class="cls-1" points="10.35 13.38 7.76 13.38 7.76 18.56 12.94 18.56 12.94 15.97 10.35 15.97 10.35 13.38"/><polygon class="cls-1" points="7.76 8.19 7.76 10.78 10.35 10.78 10.35 13.38 12.94 13.38 12.94 8.19 7.76 8.19"/><polygon class="cls-1" points="18.11 .41 12.94 .41 12.94 5.59 15.52 5.59 15.52 3 18.11 3 18.11 .41"/><polygon class="cls-1" points="23.29 8.19 23.29 13.38 25.87 13.38 25.87 10.78 28.46 10.78 28.46 8.19 23.29 8.19"/><polygon class="cls-1" points="7.76 5.59 10.35 5.59 10.35 .41 5.18 .41 5.18 3 7.76 3 7.76 5.59"/><rect class="cls-1" y=".41" width="2.59" height="18.24"/></g></svg>