<?xml version="1.0" encoding="UTF-8"?><svg id="_레이어_2" xmlns="http://www.w3.org/2000/svg" viewBox="0 0 125.26 27.75"><defs><style>.cls-1{fill:#fff;}.cls-2{fill:#e6002d;}.cls-3{fill:#003668;}</style></defs><g id="Layer_1"><path class="cls-1" d="m40.58,11.46v1.12h-6.55v-1.12h2.06v-3.31h1.25v3.31h3.25Zm-1.86-1.18v-5.1h-4.31v-1.11h5.55v6.21h-1.24Zm3.89,3.29h-1.26V3.53h1.26v4.24h1.29v1.18h-1.29v4.63Z"/><path class="cls-1" d="m50.12,4.15v1.08h-5.89v-1.08h2.31v-.84h1.33v.84h2.25Zm-5.47,5.99h7.94v3.34h-1.25v-2.23h-6.7v-1.1Zm4.89-2.58c0,.29-.06.57-.18.84-.12.26-.28.5-.49.69-.22.19-.47.33-.75.45-.28.13-.58.18-.91.18s-.63-.05-.91-.18c-.28-.12-.52-.26-.74-.45-.21-.19-.38-.43-.5-.69-.12-.26-.19-.54-.19-.84s.06-.57.19-.83c.12-.25.29-.48.5-.68.21-.19.46-.34.74-.46.28-.11.59-.18.91-.18s.62.06.91.18c.28.11.53.26.75.46.21.2.37.42.49.68.13.26.18.53.18.83m-1.2-.01c0-.3-.11-.55-.34-.77-.21-.21-.48-.31-.79-.31s-.57.1-.79.31c-.22.22-.33.47-.33.77s.11.56.33.78c.22.22.48.32.79.32s.58-.1.79-.32c.23-.22.34-.48.34-.78m4.26,2.03h-1.25V3.53h1.25v2.35h1.45v1.23h-1.45v2.48Z"/><path class="cls-1" d="m59.71,12.26h-1.25v-6.98h-3.88v-1.13h5.13v8.11Zm2.52-8.73h1.25v10.05h-1.25V3.53Z"/><path class="cls-1" d="m68.87,9.23v-.78h-4.01v-1.03h9.28v1.03h-4.02v.78h3.27v2.55h-6.55v.61h6.69v1.02h-7.93v-2.61h6.54v-.58h-6.54v-.99h3.26Zm.64-4.52l-3.53,2.49-.75-.86,4.28-3.01,4.28,3.01-.75.86-3.53-2.49Z"/><path class="cls-1" d="m75.05,4.89v-1.07h5.79v1.07h-2.47l2.56,3.12-.87.72-2.08-2.58-2.06,2.75-.9-.72,2.57-3.29h-2.56Zm8.03,6.55c0,.34-.07.66-.21.95-.14.3-.33.56-.57.79-.23.22-.51.4-.83.53-.32.14-.66.2-1.02.2s-.7-.06-1.02-.2c-.32-.13-.6-.31-.84-.53-.24-.23-.42-.49-.56-.79-.14-.29-.21-.61-.21-.95s.07-.66.21-.95c.14-.31.33-.56.56-.79.23-.23.51-.4.84-.54.32-.13.66-.19,1.02-.19s.7.07,1.02.19c.32.13.6.31.83.54.24.23.43.48.57.79.14.29.21.61.21.95m-1.23-.01c0-.38-.14-.7-.42-.97-.27-.27-.6-.41-.99-.41s-.7.14-.98.41c-.27.27-.4.59-.4.97s.14.71.4.97c.28.27.6.4.98.4s.72-.13.99-.4c.28-.27.42-.59.42-.97m.84-2.57v-2.18h-1.89v-1.07h1.89v-2.07h1.25v5.33h-1.25Z"/><path class="cls-1" d="m92.6,5.5v-1.55h1.25v5.76h-3.27v2.02h4.02v1.1h-9.28v-1.1h4.01v-2.02h-3.26V3.94h1.23v1.55h5.32Zm0,1.08h-5.31v2.02h5.31v-2.02Z"/><path class="cls-1" d="m96.28,7.7V3.63h7.78v1.01h-6.54v.53h6.49v.99h-6.49v.56h6.57v.99h-3.3v.65h4.02v1.03h-9.28v-1.03h4.01v-.65h-3.27Zm6.36,4.11c0,.3-.06.59-.18.85-.12.27-.3.51-.52.71-.23.2-.5.37-.8.49-.3.12-.62.17-.97.17s-.66-.06-.97-.17c-.3-.12-.56-.28-.79-.49-.23-.2-.41-.44-.53-.71-.13-.26-.19-.55-.19-.85s.06-.59.19-.86c.12-.26.29-.5.53-.71.22-.2.49-.36.79-.47.31-.12.62-.18.97-.18s.67.06.97.18c.3.11.56.26.8.47.22.22.4.45.52.71.12.27.18.55.18.86m-1.24-.01c0-.33-.12-.61-.36-.85-.24-.23-.53-.35-.86-.35s-.62.12-.87.35c-.25.24-.36.52-.36.85s.12.62.36.85c.24.24.53.36.87.36s.61-.12.86-.36c.24-.23.36-.52.36-.85"/><path class="cls-1" d="m108.79,3.47l3.18,5.12-1.02.63-2.16-3.61-2.15,3.68-1.04-.63,3.19-5.2Zm-2.36,9.9v-3.36h1.24v2.25h7.03v1.1h-8.27Zm6.93-9.85h1.26v6.43h-1.26V3.53Z"/><path class="cls-1" d="m115.98,9.88h9.28v1.1h-4.02v2.59h-1.26v-2.59h-4.01v-1.1Zm1.99-4.91h5.31v-1.27h1.24v4.83h-7.79V3.69h1.24v1.27Zm5.31,1.08h-5.31v1.39h5.31v-1.39Z"/><polygon class="cls-1" points="37.8 17.64 37.8 21.48 37.18 21.48 37.18 18.39 36.18 21.48 35.58 21.48 34.57 18.39 34.57 21.48 33.95 21.48 33.95 17.64 34.91 17.64 35.87 20.64 36.85 17.64 37.8 17.64"/><path class="cls-1" d="m39.27,17.86c0,.1-.04.2-.11.28-.08.08-.18.11-.29.11-.11,0-.2-.03-.28-.11s-.12-.18-.12-.28c0-.11.04-.2.12-.28.08-.08.18-.12.28-.12.11,0,.21.05.29.12.08.08.11.17.11.28m-.71.87h.63v2.76h-.63v-2.76Z"/><path class="cls-1" d="m40.57,20.09v1.39h-.63v-2.75h.6v.37c.08-.13.18-.24.32-.32.14-.08.3-.12.46-.12.33,0,.59.12.79.34.19.22.29.52.29.88v1.6h-.63v-1.44c0-.29-.05-.51-.15-.66-.1-.15-.24-.21-.44-.21-.1,0-.21.03-.3.1-.1.07-.18.16-.22.27-.06.14-.1.32-.1.54"/><path class="cls-1" d="m43.86,17.86c0,.1-.04.2-.12.28-.08.08-.17.11-.28.11s-.2-.03-.28-.11c-.08-.08-.12-.18-.12-.28,0-.11.04-.2.12-.28.08-.08.17-.12.28-.12s.2.05.28.12c.08.08.12.17.12.28m-.71.87h.63v2.76h-.63v-2.76Z"/><path class="cls-1" d="m44.28,20.97l.39-.4c.11.16.23.27.37.36.13.07.27.12.42.12.14,0,.26-.03.35-.09.1-.06.15-.14.15-.23s-.05-.16-.14-.23c-.09-.04-.2-.1-.33-.15-.15-.05-.31-.09-.47-.16-.22-.07-.38-.17-.47-.29-.1-.12-.15-.26-.15-.41,0-.23.1-.43.32-.59.21-.16.46-.24.75-.24.31,0,.56.08.76.22.1.08.18.17.24.28l-.39.38c-.05-.09-.11-.16-.19-.21-.12-.11-.27-.16-.46-.16-.11,0-.2.03-.28.08-.08.06-.12.12-.12.2,0,.08.04.14.12.2.09.05.22.12.4.16.06.02.13.05.21.07.27.08.48.2.61.34.14.14.21.31.21.5,0,.23-.11.43-.33.6-.22.16-.5.25-.85.25-.29,0-.54-.06-.77-.2-.15-.09-.27-.21-.38-.38"/><path class="cls-1" d="m47.9,17.84v.89h.6v.5h-.6v1.41c0,.12.03.22.1.26.06.05.16.08.28.08h.23v.5h-.38c-.29,0-.51-.07-.65-.2-.14-.13-.2-.33-.2-.59v-1.47h-.48v-.5h.48v-.89h.64Z"/><path class="cls-1" d="m49.01,21.48v-2.76h.59v.41c.09-.13.2-.24.34-.31.16-.09.35-.15.56-.15h.04v.56h-.07c-.26,0-.47.08-.62.23-.15.16-.22.4-.22.73v1.28h-.62Z"/><polygon class="cls-1" points="51.85 21.38 50.76 18.73 51.41 18.73 52.17 20.61 52.92 18.73 53.56 18.73 52.02 22.56 51.37 22.56 51.85 21.38"/><path class="cls-1" d="m56.62,21.55c-.41,0-.76-.14-1.04-.41-.28-.28-.43-.62-.43-1.03s.15-.74.43-1.03c.28-.27.63-.42,1.04-.42s.75.15,1.04.42c.29.28.43.62.43,1.03s-.14.75-.43,1.03c-.29.28-.63.41-1.04.41m0-.51c.23,0,.42-.09.59-.27.16-.17.25-.39.25-.67,0-.26-.08-.48-.25-.66-.17-.18-.36-.27-.59-.27s-.42.09-.58.27c-.17.17-.24.4-.24.66,0,.27.08.5.24.67.16.18.36.27.58.27"/><path class="cls-1" d="m58.76,18.17c0-.26.08-.46.23-.59.14-.13.36-.2.67-.2h.3v.51h-.19c-.11,0-.21.02-.27.07-.06.06-.1.15-.1.28v.49h.55v.5h-.55v2.25h-.64v-2.25h-.47v-.5h.47v-.56Z"/><path class="cls-1" d="m61.91,20.7l.42-.43c.12.24.26.42.43.54.19.13.38.19.57.19.2,0,.38-.05.52-.16.15-.11.22-.24.22-.41,0-.15-.07-.27-.22-.36-.15-.1-.3-.18-.47-.24-.17-.06-.35-.14-.53-.21-.29-.1-.5-.24-.63-.41-.13-.18-.19-.36-.19-.55,0-.3.12-.55.38-.77.25-.21.57-.31.94-.31.39,0,.7.1.95.29.12.1.21.21.26.32l-.38.41c-.03-.07-.1-.14-.18-.22-.19-.17-.42-.25-.67-.25-.16,0-.3.05-.43.13-.12.09-.18.21-.18.36,0,.23.25.43.75.61.09.03.19.07.29.1.33.13.59.28.75.45.17.17.26.39.26.65,0,.3-.13.57-.4.78-.26.23-.59.34-1,.34-.38,0-.69-.08-.93-.26-.24-.16-.41-.36-.5-.59"/><path class="cls-1" d="m65.11,20.1c0-.4.15-.73.45-1.02.3-.28.68-.42,1.15-.42.36,0,.7.12,1.01.35l-.2.49c-.28-.21-.55-.33-.81-.33-.28,0-.52.1-.69.27-.18.17-.27.4-.27.66,0,.27.09.49.27.66.17.18.41.27.69.27.27,0,.54-.11.82-.32l.2.49c-.3.23-.65.34-1.02.34-.46,0-.84-.14-1.15-.42-.3-.28-.45-.62-.45-1.02"/><path class="cls-1" d="m69.01,17.86c0,.1-.04.2-.12.28-.08.08-.17.11-.28.11s-.21-.03-.29-.11c-.08-.08-.12-.18-.12-.28,0-.11.04-.2.12-.28.08-.08.18-.12.29-.12s.2.05.28.12c.08.08.12.17.12.28m-.71.87h.63v2.76h-.63v-2.76Z"/><path class="cls-1" d="m70.16,20.38c.03.17.11.3.23.41.18.16.41.25.7.25s.59-.12.86-.34l.19.46c-.3.26-.66.39-1.06.39-.47,0-.85-.13-1.15-.39-.29-.26-.43-.61-.43-1.05,0-.42.13-.76.39-1.04.26-.27.6-.41,1.02-.41s.75.14,1.02.41c.26.27.4.61.4,1.02,0,.1,0,.2-.03.31h-2.13Zm-.01-.5h1.54c0-.18-.09-.34-.23-.5-.14-.15-.33-.22-.55-.22s-.42.08-.56.24c-.11.12-.18.28-.2.48"/><path class="cls-1" d="m73.47,20.09v1.39h-.63v-2.75h.61v.37c.07-.13.18-.24.32-.32.14-.08.29-.12.45-.12.32,0,.59.12.78.34.2.22.3.52.3.88v1.6h-.63v-1.44c0-.29-.05-.51-.14-.66-.1-.15-.24-.21-.44-.21-.11,0-.2.03-.31.1-.09.07-.17.16-.22.27-.06.14-.09.32-.09.54"/><path class="cls-1" d="m75.83,20.1c0-.4.15-.73.45-1.02.3-.28.69-.42,1.14-.42.36,0,.7.12,1.02.35l-.2.49c-.28-.21-.55-.33-.82-.33-.28,0-.51.1-.69.27-.18.17-.27.4-.27.66,0,.27.09.49.27.66.17.18.4.27.69.27s.54-.11.83-.32l.2.49c-.31.23-.65.34-1.03.34-.46,0-.84-.14-1.14-.42-.3-.28-.45-.62-.45-1.02"/><path class="cls-1" d="m79.47,20.38c.04.17.12.3.24.41.18.16.41.25.7.25s.6-.12.86-.34l.19.46c-.3.26-.65.39-1.07.39-.47,0-.85-.13-1.14-.39-.29-.26-.44-.61-.44-1.05,0-.42.13-.76.39-1.04.26-.27.6-.41,1.02-.41s.75.14,1.01.41c.27.27.4.61.4,1.02,0,.1,0,.2-.03.31h-2.14Zm-.01-.5h1.54c0-.18-.08-.34-.22-.5-.15-.15-.33-.22-.55-.22s-.42.08-.57.24c-.11.12-.17.28-.2.48"/><path class="cls-1" d="m84.9,19.71h.65c0-.18-.07-.32-.21-.41-.14-.09-.34-.13-.61-.13h-.01c-.25,0-.52.06-.8.18l-.16-.49c.29-.12.61-.19.96-.2h.01c.46,0,.82.09,1.07.27.25.18.37.46.37.85v1.71h-.6v-.31c-.12.12-.26.21-.43.27-.17.07-.34.1-.52.1-.33,0-.61-.09-.8-.26-.21-.17-.31-.39-.31-.64,0-.28.13-.52.38-.7.24-.16.57-.24,1.01-.24m-.17,1.34c.16,0,.32-.04.48-.11.16-.08.27-.18.35-.28v-.47h-.56c-.32,0-.54.05-.66.13-.12.09-.18.2-.18.33,0,.11.05.21.15.29.11.07.24.11.43.11"/><path class="cls-1" d="m87.52,20.09v1.39h-.62v-2.75h.6v.37c.07-.13.18-.24.33-.32.14-.08.29-.12.45-.12.33,0,.59.12.78.34.2.22.3.52.3.88v1.6h-.64v-1.44c0-.29-.04-.51-.14-.66-.1-.15-.24-.21-.44-.21-.1,0-.21.03-.3.1-.09.07-.17.16-.23.27-.06.14-.09.32-.09.54"/><path class="cls-1" d="m91.24,18.66c.33,0,.62.14.85.4v-1.67h.64v4.1h-.61v-.35c-.23.28-.52.42-.87.42-.41,0-.73-.14-.98-.43-.25-.28-.38-.63-.38-1.02s.12-.72.38-1.01c.25-.29.57-.44.98-.44m.84,1.62c.01-.11.01-.23,0-.35-.02-.2-.1-.38-.24-.52-.14-.16-.33-.23-.55-.23-.24,0-.43.08-.58.27-.13.17-.2.4-.2.66,0,.27.07.5.2.67.15.18.34.27.58.27.22,0,.4-.08.55-.23.14-.14.21-.32.24-.53"/><rect class="cls-1" x="95.09" y="17.64" width=".65" height="3.84"/><path class="cls-1" d="m98.4,21.01c.4,0,.77-.13,1.1-.39l.26.47c-.34.3-.8.45-1.37.45s-1.03-.18-1.41-.57c-.39-.38-.58-.85-.58-1.41s.19-1.04.58-1.42c.39-.38.85-.57,1.41-.57s1.01.16,1.34.46l-.26.47c-.33-.26-.69-.39-1.08-.39-.37,0-.68.13-.94.4-.27.28-.4.63-.4,1.04s.13.76.4,1.04c.26.27.57.41.94.41"/><polygon class="cls-1" points="101.9 18.18 101.9 21.48 101.25 21.48 101.25 18.18 100.07 18.18 100.07 17.64 103.07 17.64 103.07 18.18 101.9 18.18"/><path class="cls-1" d="m27.75,13.88c0,7.66-6.21,13.88-13.88,13.88S0,21.54,0,13.88,6.21,0,13.88,0s13.88,6.21,13.88,13.88"/><path class="cls-3" d="m20.39,12.75c-2.17-1.48-4.94-.88-6.4,1.34-1.22,1.86-3.06,2.09-3.77,2.09-2.31,0-3.9-1.64-4.37-3.33,0-.02,0-.04-.01-.05,0-.01,0-.03-.01-.05-.19-.71-.23-1.05-.23-1.79,0-4.04,4.14-8.55,10.1-8.55s9.59,4.66,10.5,7.25c-.02-.04-.03-.09-.05-.13C24.41,4.46,19.62.81,13.98.81,6.89.81,1.13,6.58,1.13,13.69c0,6.36,4.57,11.81,10.92,11.81,5.07,0,8.46-2.85,10.03-6.77.85-2.14.25-4.66-1.69-5.98"/><path class="cls-2" d="m26.27,9.92c-.75-2.53-4.27-7.5-10.58-7.5-5.96,0-10.1,4.5-10.1,8.55,0,.75.05,1.09.24,1.79-.08-.31-.12-.62-.12-.92,0-4.21,4.21-7.12,8.53-7.12,5.85,0,10.6,4.75,10.6,10.62,0,4.6-2.64,8.58-6.48,10.49h0c4.95-1.79,8.48-6.53,8.48-12.12,0-1.32-.17-2.48-.56-3.78"/></g></svg>