<svg xmlns="http://www.w3.org/2000/svg" width="43" height="42" viewBox="0 0 43 42">
  <g id="sns_instagram" transform="translate(0 0.295)">
    <ellipse id="box" cx="21.5" cy="21" rx="21.5" ry="21" transform="translate(0 -0.295)" fill="#999" opacity="0.13"/>
    <g id="instagram_icon" transform="translate(10.343 9.778)">
      <path id="box-2" data-name="box" d="M146.409,131h-8.466a6.847,6.847,0,0,0-6.843,6.843v8.466a6.848,6.848,0,0,0,6.843,6.843h8.466a6.847,6.847,0,0,0,6.843-6.843v-8.466A6.847,6.847,0,0,0,146.409,131Zm4.37,15.318A4.383,4.383,0,0,1,146.4,150.7h-8.466a4.383,4.383,0,0,1-4.379-4.379v-8.466a4.383,4.383,0,0,1,4.379-4.379H146.4a4.383,4.383,0,0,1,4.379,4.379Z" transform="translate(-131.1 -131)" fill="#999"/>
      <path id="box-3" data-name="box" d="M197.135,192.1a5.035,5.035,0,1,0,5.035,5.035A5.044,5.044,0,0,0,197.135,192.1Zm0,8.092a3.057,3.057,0,1,1,3.057-3.057A3.06,3.06,0,0,1,197.135,200.192Z" transform="translate(-186.059 -186.058)" fill="#999"/>
      <circle id="dot" cx="1.007" cy="1.007" r="1.007" transform="translate(15.104 5.035)" fill="#999"/>
    </g>
  </g>
</svg>
