<svg xmlns="http://www.w3.org/2000/svg" xmlns:xlink="http://www.w3.org/1999/xlink" width="150" height="150" viewBox="0 0 150 150">
  <defs>
    <clipPath id="clip-path">
      <path id="패스_682" data-name="패스 682" d="M61.552,39.388a6.268,6.268,0,0,1-.116,1.243A7.31,7.31,0,0,1,46.92,39.388V33.245a4.31,4.31,0,0,0,.546.035A5.668,5.668,0,0,0,51.6,31.5a5.382,5.382,0,0,0,.836-1.1,7.4,7.4,0,0,0,6.55,3.948,7.3,7.3,0,0,0,2.578-.464v5.5Z" transform="translate(-46.92 -30.4)" fill="#ecb6ae"/>
    </clipPath>
    <clipPath id="clip-path-2">
      <path id="패스_681" data-name="패스 681" d="M21.122,39.388a6.257,6.257,0,0,1-.116,1.243A7.31,7.31,0,0,1,6.49,39.388V33.245a4.312,4.312,0,0,0,.546.035A5.669,5.669,0,0,0,11.17,31.5a5.417,5.417,0,0,0,.836-1.1,7.4,7.4,0,0,0,6.55,3.948,7.306,7.306,0,0,0,2.578-.464v5.5Z" transform="translate(-6.49 -30.4)" fill="#ecb6ae"/>
    </clipPath>
    <clipPath id="clip-path-3">
      <path id="패스_678" data-name="패스 678" d="M33.341,14.92a10.832,10.832,0,0,0-4.181,1.37,11.524,11.524,0,0,0,10.9,15.341,11.488,11.488,0,0,0,4.25-.813,10.933,10.933,0,0,0-10.974-15.9Z" transform="translate(-28.51 -14.85)" fill="#e1f1fa"/>
    </clipPath>
  </defs>
  <g id="icon" transform="translate(-1125 -2949)">
    <circle id="box" cx="75" cy="75" r="75" transform="translate(1125 2949)" fill="#fff" opacity="0.09"/>
    <g id="mentorship_icon" transform="translate(1164.001 2988.038)">
      <g id="free-icon-mentorship-7653762" transform="translate(0 7.959)">
        <g id="그룹_119" data-name="그룹 119" transform="translate(46.951 19.906)">
          <g id="그룹_118" data-name="그룹 118" transform="translate(0 22.68)">
            <path id="패스_635" data-name="패스 635" d="M61.742,45.19H58.2v.453a3.246,3.246,0,1,1-6.492,0V45.19H48.166a5.513,5.513,0,0,0-.626.035,7.368,7.368,0,0,1,1.08,3.843V59.462H67.479V50.927A5.734,5.734,0,0,0,61.742,45.19Z" transform="translate(-42.43 -45.19)" fill="#b3d0e4"/>
            <path id="패스_641" data-name="패스 641" d="M59.729,45.19H56.187v.453a3.2,3.2,0,0,1-1.277,2.567v1.835a4.644,4.644,0,0,0,4.645,4.645h5.911V50.927A5.734,5.734,0,0,0,59.729,45.19Z" transform="translate(-40.417 -45.19)" fill="#cdebfc"/>
          </g>
          <g id="그룹_117" data-name="그룹 117" transform="translate(9.279 21.054)">
            <path id="패스_628" data-name="패스 628" d="M53.66,44.557a7.237,7.237,0,0,1-3.24-.767v2.067a3.246,3.246,0,1,0,6.492,0V43.79A7.326,7.326,0,0,1,53.66,44.557Z" transform="translate(-50.42 -43.79)" fill="#fee2d6"/>
            <path id="패스_642" data-name="패스 642" d="M56.912,43.79a7.255,7.255,0,0,1-6.492,0v.082a6.928,6.928,0,0,0,5.4,4.413,3.241,3.241,0,0,0,1.092-2.416Z" transform="translate(-50.42 -43.79)" fill="#ecb6ae"/>
          </g>
          <g id="그룹_116" data-name="그룹 116" transform="translate(5.214 5.504)">
            <path id="패스_627" data-name="패스 627" d="M61.552,39.388a6.268,6.268,0,0,1-.116,1.243A7.31,7.31,0,0,1,46.92,39.388V33.245a4.31,4.31,0,0,0,.546.035A5.668,5.668,0,0,0,51.6,31.5a5.382,5.382,0,0,0,.836-1.1,7.4,7.4,0,0,0,6.55,3.948,7.3,7.3,0,0,0,2.578-.464v5.5Z" transform="translate(-46.92 -30.4)" fill="#fee2d6"/>
            <g id="마스크_그룹_3" data-name="마스크 그룹 3" transform="translate(0 0)" clip-path="url(#clip-path)">
              <path id="패스_683" data-name="패스 683" d="M57.9,25.67H53.567a4.582,4.582,0,0,0-4.308,4.807V29.154c-2.822,0-5.1,2.543-5.1,5.69a6.062,6.062,0,0,0,3.206,5.342V34.008a4.31,4.31,0,0,0,.546.035,5.667,5.667,0,0,0,4.134-1.776,5.437,5.437,0,0,0,.837-1.1,7.4,7.4,0,0,0,6.549,3.948,7.3,7.3,0,0,0,2.579-.464V40.2A6.053,6.053,0,0,0,65.2,34.855V33.81C65.191,29.3,61.928,25.67,57.9,25.67Z" transform="translate(-47.365 -29.563)" fill="#ecb6ae"/>
            </g>
          </g>
          <g id="그룹_115" data-name="그룹 115" transform="translate(2.009 0)">
            <path id="패스_629" data-name="패스 629" d="M57.9,25.67H53.567a4.582,4.582,0,0,0-4.308,4.807V29.154c-2.822,0-5.1,2.543-5.1,5.69a6.062,6.062,0,0,0,3.206,5.342V34.008a4.31,4.31,0,0,0,.546.035,5.667,5.667,0,0,0,4.134-1.776,5.437,5.437,0,0,0,.837-1.1,7.4,7.4,0,0,0,6.549,3.948,7.3,7.3,0,0,0,2.579-.464V40.2A6.053,6.053,0,0,0,65.2,34.855V33.81C65.191,29.3,61.928,25.67,57.9,25.67Z" transform="translate(-44.16 -25.659)" fill="#191919"/>
            <path id="패스_640" data-name="패스 640" d="M60.242,33.243A7.371,7.371,0,0,0,63.7,32.4c-.592-3.821-3.577-6.736-7.177-6.736H52.66A7.577,7.577,0,0,0,60.242,33.243Z" transform="translate(-42.789 -25.66)" fill="#505050"/>
          </g>
        </g>
        <g id="그룹_114" data-name="그룹 114" transform="translate(0 19.906)">
          <g id="그룹_113" data-name="그룹 113" transform="translate(0 22.668)">
            <path id="패스_636" data-name="패스 636" d="M22.6,49.07a7.459,7.459,0,0,1,.859-3.472,5.691,5.691,0,0,0-2.137-.418H17.782v.452a3.246,3.246,0,1,1-6.492,0V45.18H7.737A5.751,5.751,0,0,0,2,50.928v8.536H22.6Z" transform="translate(-2 -45.18)" fill="#cdebfc"/>
            <path id="패스_644" data-name="패스 644" d="M15.759,45.19v.453a3.233,3.233,0,0,1-1.289,2.578v1.835A4.644,4.644,0,0,0,19.115,54.7h1.463V49.08a7.457,7.457,0,0,1,.859-3.472A5.691,5.691,0,0,0,19.3,45.19Z" transform="translate(0.011 -45.179)" fill="#b3d0e4"/>
          </g>
          <g id="그룹_112" data-name="그룹 112" transform="translate(9.279 21.054)">
            <path id="패스_625" data-name="패스 625" d="M13.23,44.557a7.238,7.238,0,0,1-3.24-.767v2.067a3.246,3.246,0,1,0,6.492,0V43.79A7.25,7.25,0,0,1,13.23,44.557Z" transform="translate(-9.99 -43.79)" fill="#fee2d6"/>
            <path id="패스_645" data-name="패스 645" d="M9.99,43.79v.1a6.958,6.958,0,0,0,5.4,4.39,3.239,3.239,0,0,0,1.091-2.416V43.8a7.25,7.25,0,0,1-3.251.767,7.411,7.411,0,0,1-3.24-.778Z" transform="translate(-9.99 -43.79)" fill="#ecb6ae"/>
          </g>
          <g id="그룹_111" data-name="그룹 111" transform="translate(5.214 5.504)">
            <path id="패스_624" data-name="패스 624" d="M21.122,39.388a6.257,6.257,0,0,1-.116,1.243A7.31,7.31,0,0,1,6.49,39.388V33.245a4.312,4.312,0,0,0,.546.035A5.669,5.669,0,0,0,11.17,31.5a5.417,5.417,0,0,0,.836-1.1,7.4,7.4,0,0,0,6.55,3.948,7.306,7.306,0,0,0,2.578-.464v5.5Z" transform="translate(-6.49 -30.4)" fill="#fee2d6"/>
            <g id="마스크_그룹_2" data-name="마스크 그룹 2" transform="translate(0 0)" clip-path="url(#clip-path-2)">
              <path id="패스_680" data-name="패스 680" d="M17.478,25.67H13.146a4.583,4.583,0,0,0-4.308,4.807V29.154c-2.822,0-5.1,2.543-5.1,5.69a6.062,6.062,0,0,0,3.205,5.342V34.008a4.311,4.311,0,0,0,.546.035,5.669,5.669,0,0,0,4.134-1.776,5.43,5.43,0,0,0,.836-1.1,7.4,7.4,0,0,0,6.55,3.948,7.3,7.3,0,0,0,2.578-.464V40.2a6.053,6.053,0,0,0,3.194-5.342V33.81C24.759,29.3,21.5,25.67,17.478,25.67Z" transform="translate(-6.934 -28.771)" fill="#ecb6ae"/>
            </g>
          </g>
          <g id="그룹_110" data-name="그룹 110" transform="translate(2.021 0)">
            <path id="패스_626" data-name="패스 626" d="M17.478,25.67H13.146a4.583,4.583,0,0,0-4.308,4.807V29.154c-2.822,0-5.1,2.543-5.1,5.69a6.062,6.062,0,0,0,3.205,5.342V34.008a4.311,4.311,0,0,0,.546.035,5.669,5.669,0,0,0,4.134-1.776,5.43,5.43,0,0,0,.836-1.1,7.4,7.4,0,0,0,6.55,3.948,7.3,7.3,0,0,0,2.578-.464V40.2a6.053,6.053,0,0,0,3.194-5.342V33.81C24.759,29.3,21.5,25.67,17.478,25.67Z" transform="translate(-3.74 -25.659)" fill="#191919"/>
            <path id="패스_643" data-name="패스 643" d="M19.8,33.243a7.6,7.6,0,0,0,3.472-.847C22.683,28.575,19.7,25.66,16.1,25.66H12.22A7.593,7.593,0,0,0,19.8,33.243Z" transform="translate(-2.372 -25.66)" fill="#505050"/>
          </g>
        </g>
        <g id="그룹_109" data-name="그룹 109" transform="translate(19.138)">
          <g id="그룹_108" data-name="그룹 108" transform="translate(1.452 39.009)">
            <path id="패스_631" data-name="패스 631" d="M44.814,42.12h-4.6v.58a4.215,4.215,0,1,1-8.431,0v-.58h-4.6a7.449,7.449,0,0,0-7.455,7.455V59.969H52.27V49.575A7.449,7.449,0,0,0,44.814,42.12Z" transform="translate(-19.73 -42.109)" fill="#8e72d8"/>
            <path id="패스_632" data-name="패스 632" d="M50.748,49.565a7.449,7.449,0,0,0-7.455-7.455h-4.6v.58a4.215,4.215,0,1,1-8.431,0v-.58H29.218a7.306,7.306,0,0,0-.058.871v5.771A4.644,4.644,0,0,0,33.805,53.4H50.737V49.565Z" transform="translate(-18.209 -42.11)" fill="#a58ee0"/>
          </g>
          <g id="그룹_107" data-name="그룹 107" transform="translate(6.779 7.353)">
            <path id="패스_679" data-name="패스 679" d="M46.222,25.8a10.952,10.952,0,1,0-18.035,8.338,8.39,8.39,0,0,1,3.066,6.352v.476h8.233V40.34a8.364,8.364,0,0,1,2.973-6.283A10.918,10.918,0,0,0,46.222,25.8Z" transform="translate(-24.318 -14.85)" fill="#cdebfc"/>
            <g id="그룹_105" data-name="그룹 105" transform="translate(0 0)">
              <path id="패스_634" data-name="패스 634" d="M46.222,25.8a10.952,10.952,0,1,0-18.035,8.338,8.39,8.39,0,0,1,3.066,6.352v.476h8.233V40.34a8.364,8.364,0,0,1,2.973-6.283A10.918,10.918,0,0,0,46.222,25.8Z" transform="translate(-24.318 -14.85)" fill="#a58ee0" opacity="0.6"/>
              <path id="패스_639" data-name="패스 639" d="M33.341,14.92a10.832,10.832,0,0,0-4.181,1.37,11.524,11.524,0,0,0,10.9,15.341,11.488,11.488,0,0,0,4.25-.813,10.933,10.933,0,0,0-10.974-15.9Z" transform="translate(-23.642 -14.85)" fill="#cdebfc"/>
              <g id="마스크_그룹_1" data-name="마스크 그룹 1" transform="translate(4.868)" clip-path="url(#clip-path-3)">
                <ellipse id="타원_87" data-name="타원 87" cx="8" cy="6.4" rx="8" ry="6.4" transform="translate(9.535 -7.537) rotate(40)" fill="#e1f1fa"/>
              </g>
              <path id="패스_630" data-name="패스 630" d="M30.12,40.25V43a4.215,4.215,0,1,0,8.431,0V40.25Z" transform="translate(-23.382 -10.754)" fill="#8e72d8"/>
              <path id="패스_638" data-name="패스 638" d="M36.452,44.756a5.988,5.988,0,0,0,1.718-.279A4.162,4.162,0,0,0,38.449,43V40.25H30.68A5.977,5.977,0,0,0,36.452,44.756Z" transform="translate(-23.292 -10.754)" fill="#a389e9"/>
            </g>
            <g id="그룹_106" data-name="그룹 106" transform="translate(4.404 26.117)">
              <path id="패스_633" data-name="패스 633" d="M39.711,37.34H29.794a1.684,1.684,0,0,0,0,3.369h9.917a1.684,1.684,0,0,0,0-3.369Z" transform="translate(-28.11 -37.34)" fill="#d0d8da"/>
              <path id="패스_637" data-name="패스 637" d="M39.107,37.34H31.942a1.8,1.8,0,0,0-.082.5,1.685,1.685,0,0,0,1.684,1.684h7.165a1.8,1.8,0,0,0,.081-.5A1.686,1.686,0,0,0,39.107,37.34Z" transform="translate(-27.505 -37.34)" fill="#e9f1f2"/>
            </g>
          </g>
          <g id="그룹_104" data-name="그룹 104">
            <path id="패스_649" data-name="패스 649" d="M21.883,24.552H19.351a.871.871,0,0,1,0-1.742h2.532a.871.871,0,0,1,0,1.742Z" transform="translate(-18.48 -6.214)" fill="#e1f1fa"/>
            <path id="패스_650" data-name="패스 650" d="M48.733,24.552H46.2a.871.871,0,0,1,0-1.742h2.532a.871.871,0,0,1,0,1.742Z" transform="translate(-14.149 -6.214)" fill="#e1f1fa"/>
            <path id="패스_651" data-name="패스 651" d="M45.46,20.45a.867.867,0,0,1-.291-1.684l2.369-.859a.871.871,0,0,1,.592,1.638l-2.369.859A.962.962,0,0,1,45.46,20.45Z" transform="translate(-14.268 -7.013)" fill="#e1f1fa"/>
            <path id="패스_652" data-name="패스 652" d="M43.312,16.849a.876.876,0,0,1-.569-1.544l1.94-1.626a.873.873,0,1,1,1.126,1.336L43.869,16.64A.853.853,0,0,1,43.312,16.849Z" transform="translate(-14.616 -7.72)" fill="#e1f1fa"/>
            <path id="패스_653" data-name="패스 653" d="M40.03,14.174a.8.8,0,0,1-.43-.116.862.862,0,0,1-.314-1.184l1.266-2.183a.866.866,0,0,1,1.5.871l-1.266,2.183A.891.891,0,0,1,40.03,14.174Z" transform="translate(-15.143 -8.239)" fill="#e1f1fa"/>
            <path id="패스_654" data-name="패스 654" d="M36.011,12.747a.667.667,0,0,1-.151-.012.871.871,0,0,1-.708-1.01l.441-2.485a.867.867,0,1,1,1.707.3l-.441,2.485A.857.857,0,0,1,36.011,12.747Z" transform="translate(-15.793 -8.519)" fill="#e1f1fa"/>
            <path id="패스_655" data-name="패스 655" d="M31.781,12.747a.881.881,0,0,1-.859-.72l-.43-2.485a.873.873,0,0,1,1.719-.3l.441,2.485a.871.871,0,0,1-.709,1.01A.766.766,0,0,1,31.781,12.747Z" transform="translate(-16.545 -8.519)" fill="#e1f1fa"/>
            <path id="패스_656" data-name="패스 656" d="M27.877,14.175a.853.853,0,0,1-.755-.441l-1.266-2.183a.866.866,0,0,1,1.5-.871l1.266,2.183a.867.867,0,0,1-.313,1.185A.807.807,0,0,1,27.877,14.175Z" transform="translate(-17.309 -8.24)" fill="#e1f1fa"/>
            <path id="패스_657" data-name="패스 657" d="M24.69,16.849a.854.854,0,0,1-.557-.209l-1.939-1.626a.874.874,0,0,1,1.126-1.335L25.259,15.3a.868.868,0,0,1,.1,1.231A.9.9,0,0,1,24.69,16.849Z" transform="translate(-17.931 -7.72)" fill="#e1f1fa"/>
            <path id="패스_658" data-name="패스 658" d="M22.612,20.452a.7.7,0,0,1-.3-.058l-2.381-.859a.871.871,0,0,1,.593-1.637l2.38.859a.875.875,0,0,1-.29,1.7Z" transform="translate(-18.339 -7.015)" fill="#e1f1fa"/>
          </g>
        </g>
      </g>
      <rect id="영역" width="71.918" height="71.918" transform="translate(0.04 0)" fill="#fff" opacity="0"/>
    </g>
  </g>
</svg>
