<svg xmlns="http://www.w3.org/2000/svg" width="150" height="150" viewBox="0 0 150 150">
  <g id="icon" transform="translate(-1125 -2949)">
    <circle id="box" cx="75" cy="75" r="75" transform="translate(1125 2949)" fill="#fff" opacity="0.09"/>
    <g id="certificate_icon" transform="translate(1161.685 2985.685)">
      <g id="certificate_icon-2" data-name="certificate_icon" transform="translate(1.309 1.309)">
        <g id="certificate_icon-3" data-name="certificate_icon" transform="translate(1.006 4.606)">
          <rect id="영역" width="64" height="64" transform="translate(4)" fill="#fff" opacity="0"/>
          <g id="free-icon-plane-4042858" transform="translate(0 10.667)">
            <path id="패스_8111" data-name="패스 8111" d="M24.181,14H17.205L30.065,32.7h15.2L30.152,16.586A8.183,8.183,0,0,0,24.181,14Z" transform="translate(1.499 -14)" fill="#ebebf0"/>
            <path id="패스_8112" data-name="패스 8112" d="M29.135,31.352h15.2L35.564,22H22.705Z" transform="translate(2.429 -12.648)" fill="#b3d0e4"/>
            <path id="패스_8113" data-name="패스 8113" d="M39.253,32.7,24.143,16.586A8.183,8.183,0,0,0,18.173,14h5.845a8.184,8.184,0,0,1,5.971,2.587L45.1,32.7Z" transform="translate(1.663 -14)" fill="#8e72d8"/>
            <path id="패스_8114" data-name="패스 8114" d="M37.473,31.352h5.845L34.55,22H28.705Z" transform="translate(3.443 -12.648)" fill="#403362"/>
            <path id="패스_8115" data-name="패스 8115" d="M70.178,33.874a8.183,8.183,0,0,0-8.183-8.183H17.572l-4.23-8.459A5.845,5.845,0,0,0,8.114,14H3.543L5.881,25.69H4.918a3.713,3.713,0,0,0-1.871,6.92l3.51,2.047a46.761,46.761,0,0,0,18.666,6.113L58.7,44.294a18.364,18.364,0,0,0,1.924.1A16.974,16.974,0,0,0,69.637,41.8l2.027-1.271a3.286,3.286,0,0,0,.187-5.442Z" transform="translate(-1.205 -14)" fill="#e1f1fa"/>
            <path id="패스_8116" data-name="패스 8116" d="M71.665,36.137l-2.027,1.271A16.975,16.975,0,0,1,60.622,40a18.39,18.39,0,0,1-1.923-.1L25.223,36.376A46.76,46.76,0,0,1,6.557,30.263l-3.51-2.048a3.7,3.7,0,0,1-1.633-2.046,3.674,3.674,0,0,0-.209,1.177,3.713,3.713,0,0,0,1.842,3.207L6.557,32.6a46.762,46.762,0,0,0,18.666,6.113L58.7,42.237a18.394,18.394,0,0,0,1.924.1,16.975,16.975,0,0,0,9.016-2.592l2.027-1.271a3.223,3.223,0,0,0,1.307-3.945,3.274,3.274,0,0,1-1.307,1.607Z" transform="translate(-1.205 -11.943)" fill="#cdebfc"/>
            <path id="패스_8117" data-name="패스 8117" d="M62.065,32.183A8.183,8.183,0,0,0,53.882,24H53.3a4.092,4.092,0,0,0,0,8.183Z" transform="translate(6.907 -12.31)" fill="#bcbaf9"/>
            <path id="패스_8118" data-name="패스 8118" d="M45.713,29.338H43.375a1.169,1.169,0,0,1,0-2.338h2.338a1.169,1.169,0,0,1,0,2.338Z" transform="translate(5.724 -11.803)" fill="#bcbaf9"/>
            <path id="패스_8119" data-name="패스 8119" d="M39.713,29.338H37.375a1.169,1.169,0,1,1,0-2.338h2.338a1.169,1.169,0,0,1,0,2.338Z" transform="translate(4.711 -11.803)" fill="#bcbaf9"/>
            <path id="패스_8120" data-name="패스 8120" d="M33.713,29.338H31.375a1.169,1.169,0,0,1,0-2.338h2.338a1.169,1.169,0,1,1,0,2.338Z" transform="translate(3.697 -11.803)" fill="#bcbaf9"/>
            <path id="패스_8121" data-name="패스 8121" d="M27.713,29.338H25.375a1.169,1.169,0,1,1,0-2.338h2.338a1.169,1.169,0,0,1,0,2.338Z" transform="translate(2.683 -11.803)" fill="#bcbaf9"/>
            <path id="패스_8122" data-name="패스 8122" d="M21.713,29.338H19.375a1.169,1.169,0,1,1,0-2.338h2.338a1.169,1.169,0,1,1,0,2.338Z" transform="translate(1.667 -11.803)" fill="#bcbaf9"/>
            <path id="패스_8123" data-name="패스 8123" d="M15.713,29.338H13.375a1.169,1.169,0,0,1,0-2.338h2.338a1.169,1.169,0,1,1,0,2.338Z" transform="translate(0.653 -11.803)" fill="#bcbaf9"/>
            <path id="패스_8124" data-name="패스 8124" d="M24.181,52.7H17.205L30.065,34h15.2L30.152,50.118A8.183,8.183,0,0,1,24.181,52.7Z" transform="translate(1.499 -10.619)" fill="#cdebfc"/>
            <path id="패스_8125" data-name="패스 8125" d="M39.253,34,24.143,50.118A8.183,8.183,0,0,1,18.173,52.7h5.845a8.184,8.184,0,0,0,5.971-2.587L45.1,34Z" transform="translate(1.663 -10.619)" fill="#8e72d8"/>
            <path id="패스_8126" data-name="패스 8126" d="M7.776,14H3.205v.007a5.841,5.841,0,0,1,5.121,3.224l3.26,6.521a3.507,3.507,0,0,0,3.138,1.939h2.509L13,17.231A5.845,5.845,0,0,0,7.776,14Z" transform="translate(-0.867 -14)" fill="#8e72d8"/>
            <path id="패스_8127" data-name="패스 8127" d="M26.138,34l-2.49,3.623,2.646.278L28.975,34Z" transform="translate(2.588 -10.619)" fill="#b3d0e4"/>
            <path id="패스_8128" data-name="패스 8128" d="M36.984,39.264l2.917.307L45.124,34H41.918Z" transform="translate(4.842 -10.619)" fill="#b3d0e4"/>
          </g>
        </g>
        <rect id="영역-2" data-name="영역" width="72" height="72" transform="translate(1.006 1.006)" fill="#fff" opacity="0"/>
      </g>
      <rect id="영역-3" data-name="영역" width="72" height="72" transform="translate(2.315 2.315)" fill="#fff" opacity="0"/>
    </g>
  </g>
</svg>
