<svg xmlns="http://www.w3.org/2000/svg" width="150" height="150" viewBox="0 0 150 150">
  <g id="icon" transform="translate(-1125 -2949)">
    <circle id="box" cx="75" cy="75" r="75" transform="translate(1125 2949)" fill="#fff" opacity="0.09"/>
    <g id="certificate_icon" transform="translate(1163.685 2987.685)">
      <g id="free-icon-certificate-1321098" transform="translate(0 0)">
        <path id="패스_591" data-name="패스 591" d="M253.715,316.24,249.7,303.192l9.2-2.836,4.009,13.017a.441.441,0,0,1-.547.552l-4.278-1.281a.44.44,0,0,0-.459.133l-3.158,3.623A.441.441,0,0,1,253.715,316.24Zm0,0" transform="translate(-214.933 -258.457)" fill="#8e72d8"/>
        <path id="패스_592" data-name="패스 592" d="M277.936,308.07l-2.06.635,3.638,11.445.641-.735a.439.439,0,0,1,.458-.133l.987.3Zm0,0" transform="translate(-237.462 -265.095)" fill="#403362"/>
        <path id="패스_593" data-name="패스 593" d="M316.75,253.207,303.7,249.188l-2.835,9.2,13.016,4.01a.441.441,0,0,0,.552-.547l-1.281-4.279a.44.44,0,0,1,.132-.458l3.623-3.158A.441.441,0,0,0,316.75,253.207Zm0,0" transform="translate(-258.967 -214.426)" fill="#8e72d8"/>
        <path id="패스_594" data-name="패스 594" d="M320.733,278.815l-11.461-3.643-.635,2.061,11.488,3.651-.284-.948a.441.441,0,0,1,.132-.459Zm0,0" transform="translate(-265.653 -236.786)" fill="#403362"/>
        <path id="패스_595" data-name="패스 595" d="M71.319,19.815,55.711,4.207,30.046,33.17,1.078,58.839c-1.7,1.7.41,6.578,4.72,10.888s9.185,6.423,10.888,4.72L42.356,45.48Zm0,0" transform="translate(-0.489 -3.618)" fill="#e1f1fa"/>
        <path id="패스_596" data-name="패스 596" d="M113.4,75.062,84.434,100.728,56.039,132.865c3.574,2.8,7.062,3.941,8.449,2.554l25.67-28.967L119.12,80.787Zm0,0" transform="translate(-48.29 -64.59)" fill="#cdebfc"/>
        <path id="패스_597" data-name="패스 597" d="M403.618,5.294c-4.309-4.31-9.185-6.423-10.888-4.72s.41,6.578,4.72,10.888,9.185,6.423,10.888,4.72S407.928,9.6,403.618,5.294Zm0,0" transform="translate(-337.509 0.016)" fill="#b3d0e4"/>
        <path id="패스_598" data-name="패스 598" d="M396.8,34.843a21.793,21.793,0,0,0,4.66,6.529,21.772,21.772,0,0,0,6.53,4.66c.514-1.553-1.014-4.64-3.782-7.408S398.354,34.329,396.8,34.843Zm0,0" transform="translate(-341.519 -29.896)" fill="#b8bebf"/>
        <path id="패스_599" data-name="패스 599" d="M175.956,172.285a3.35,3.35,0,0,0,2.416-1.231,3.35,3.35,0,0,1,4.417-.7,3.351,3.351,0,0,0,2.678.424,3.35,3.35,0,0,1,3.985,2.03,3.349,3.349,0,0,0,1.917,1.917,3.351,3.351,0,0,1,2.031,3.985,3.351,3.351,0,0,0,.424,2.678,3.35,3.35,0,0,1-.7,4.417,3.35,3.35,0,0,0-1.231,2.416,3.35,3.35,0,0,1-3.162,3.162,3.348,3.348,0,0,0-2.416,1.231,3.351,3.351,0,0,1-4.417.7,3.35,3.35,0,0,0-2.678-.424,3.349,3.349,0,0,1-3.984-2.03,3.353,3.353,0,0,0-1.918-1.917,3.349,3.349,0,0,1-2.03-3.984,3.349,3.349,0,0,0-.424-2.678,3.351,3.351,0,0,1,.7-4.417,3.351,3.351,0,0,0,1.232-2.416A3.35,3.35,0,0,1,175.956,172.285Zm0,0" transform="translate(-146.636 -146.128)" fill="#a58ee0"/>
        <path id="패스_600" data-name="패스 600" d="M208.8,181.389a3.35,3.35,0,0,1-.424-2.678,3.351,3.351,0,0,0-2.031-3.985,3.348,3.348,0,0,1-1.917-1.917,3.35,3.35,0,0,0-3.985-2.03,3.351,3.351,0,0,1-2.678-.424,3.35,3.35,0,0,0-4.417.7,3.35,3.35,0,0,1-2.416,1.231,3.35,3.35,0,0,0-3.162,3.163,3.574,3.574,0,0,1-.039.358,12.682,12.682,0,0,1,15.618,15.618,3.263,3.263,0,0,1,.358-.039,3.35,3.35,0,0,0,3.162-3.163,3.35,3.35,0,0,1,1.231-2.416A3.35,3.35,0,0,0,208.8,181.389Zm0,0" transform="translate(-161.615 -146.128)" fill="#8e72d8"/>
        <path id="패스_601" data-name="패스 601" d="M217.5,206.907a7.135,7.135,0,1,0,0,10.09A7.135,7.135,0,0,0,217.5,206.907Zm0,0" transform="translate(-176.75 -176.245)" fill="#bcbaf9"/>
      </g>
      <rect id="영역" width="67.45" height="67.45" transform="translate(2.59 2.59)" fill="#fff" opacity="0"/>
    </g>
  </g>
</svg>
