<svg xmlns="http://www.w3.org/2000/svg" width="150" height="150" viewBox="0 0 150 150">
  <g id="icon" transform="translate(-1125 -2949)">
    <circle id="box" cx="75" cy="75" r="75" transform="translate(1125 2949)" fill="#fff" opacity="0.09"/>
    <g id="ticket_icon" transform="translate(1164 2988.041)">
      <g id="ticket_icon-2" data-name="ticket_icon" transform="translate(0 0)">
        <g id="free-icon-plane-ticket-3127363" transform="translate(0 8.359)">
          <g id="그룹_122" data-name="그룹 122" transform="translate(1.834 21.709)">
            <path id="패스_659" data-name="패스 659" d="M74.937,222c-.019.186-.029.376-.029.569a5.405,5.405,0,0,0,5.1,5.395c.054,0,.161,0,.256.006a.179.179,0,0,1,.178.179v6.226a5.133,5.133,0,0,1-5.133,5.133H17.62a5.133,5.133,0,0,1-5.133-5.133v-5.739a.726.726,0,0,1,.629-.718,5.327,5.327,0,0,0,.785-.171,5.4,5.4,0,0,0,2.579-8.671.065.065,0,0,0-.014-.015,5.388,5.388,0,0,0-3.348-1.84.727.727,0,0,1-.631-.718v-4.889a5.133,5.133,0,0,1,5.133-5.133H75.307a5.132,5.132,0,0,1,5.132,5.132v5.379a.179.179,0,0,1-.178.178h-.074A5.4,5.4,0,0,0,74.937,222Z" transform="translate(-12.487 -206.484)" fill="#8e72d8"/>
            <g id="그룹_121" data-name="그룹 121" transform="translate(30.302 24.177)">
              <path id="패스_670" data-name="패스 670" d="M354.014,375.291H343.476a.815.815,0,0,1-.815-.815v-2.637a.815.815,0,0,1,.815-.815h10.538a.815.815,0,0,1,.815.815v2.637A.815.815,0,0,1,354.014,375.291Z" transform="translate(-324.447 -371.024)" fill="#a58ee0"/>
              <path id="패스_677" data-name="패스 677" d="M231.524,378.744H219.808a1.1,1.1,0,1,1,0-2.2h11.716a1.1,1.1,0,1,1,0,2.2Z" transform="translate(-218.706 -375.729)" fill="#a58ee0"/>
            </g>
          </g>
          <g id="그룹_129" data-name="그룹 129" transform="translate(0 0)">
            <path id="패스_660" data-name="패스 660" d="M80.439,211.615v5.378a.179.179,0,0,1-.177.179c-.1,0-.21,0-.266.006A5.406,5.406,0,0,0,74.937,222l-52.96,15.244a5.133,5.133,0,0,1-6.353-3.513L13.9,227.75a5.4,5.4,0,0,0,2.579-8.671.066.066,0,0,0-.014-.015,5.388,5.388,0,0,0-3.348-1.84.727.727,0,0,1-.631-.718v-4.889a5.133,5.133,0,0,1,5.133-5.133H75.307A5.132,5.132,0,0,1,80.439,211.615Z" transform="translate(-10.653 -184.774)" fill="#403362"/>
            <g id="그룹_120" data-name="그룹 120" transform="translate(0.093 0.191)">
              <path id="패스_661" data-name="패스 661" d="M68.108,90.559,51.667,95.285l-2.113.607-36.737,10.56a5.12,5.12,0,0,1-6.336-3.5L4.927,97.561a.842.842,0,0,1,.452-1A5.38,5.38,0,0,0,2.441,86.348a.835.835,0,0,1-.915-.588L.2,81.166a5.112,5.112,0,0,1,3.5-6.327l36.737-10.56,2.113-.607L59,58.946a5.119,5.119,0,0,1,6.336,3.5l1.408,4.884a.466.466,0,0,1-.3.57c-.142.048-.287.1-.377.14a5.382,5.382,0,0,0,3.251,10.2l.093-.022a.468.468,0,0,1,.562.324l1.64,5.692a5.112,5.112,0,0,1-3.5,6.327Z" transform="translate(0 -58.745)" fill="#e1f1fa"/>
              <path id="패스_663" data-name="패스 663" d="M41.5,94.48l9.112,31.613L12.816,136.957a5.12,5.12,0,0,1-6.336-3.5l-1.554-5.392a.842.842,0,0,1,.452-1A5.38,5.38,0,0,0,2.44,116.853a.835.835,0,0,1-.915-.588L.2,111.671a5.111,5.111,0,0,1,3.5-6.327Z" transform="translate(0 -89.25)" fill="#cdebfc"/>
            </g>
            <g id="그룹_127" data-name="그룹 127" transform="translate(0)">
              <g id="그룹_128" data-name="그룹 128">
                <path id="패스_662" data-name="패스 662" d="M65.458,62.3a5.131,5.131,0,0,0-6.3-3.356L3.72,74.9A5.132,5.132,0,0,0,.13,80.947Z" transform="translate(-0.006 -58.744)" fill="#a58ee0"/>
                <path id="패스_664" data-name="패스 664" d="M41.614,94.48,3.721,105.387a5.131,5.131,0,0,0-3.59,6.043h0L42.974,99.2Z" transform="translate(-0.008 -89.229)" fill="#8e72d8"/>
              </g>
              <g id="그룹_123" data-name="그룹 123" transform="translate(40.547 4.947)">
                <path id="패스_671" data-name="패스 671" d="M337.512,295.173l-2.119.61-.426-1.483a1.1,1.1,0,1,1,2.117-.61Z" transform="translate(-326.258 -263.434)" fill="#d0d8da"/>
                <path id="패스_672" data-name="패스 672" d="M296.039,151.078l-.808-2.811a1.1,1.1,0,0,0-2.119.61l.81,2.811a1.1,1.1,0,1,0,2.117-.61Zm-2.272-7.9-.81-2.811a1.1,1.1,0,1,0-2.117.61l.808,2.811a1.1,1.1,0,0,0,2.119-.61Zm-2.273-7.9-.81-2.81a1.1,1.1,0,1,0-2.117.61l.808,2.809a1.1,1.1,0,1,0,2.119-.61Z" transform="translate(-286.677 -125.907)" fill="#d0d8da"/>
                <path id="패스_673" data-name="패스 673" d="M277.741,95.255a1.1,1.1,0,0,1-1.364-.754l-.428-1.483,2.119-.61.426,1.483A1.1,1.1,0,0,1,277.741,95.255Z" transform="translate(-275.95 -92.409)" fill="#b8bebf"/>
              </g>
              <g id="그룹_125" data-name="그룹 125" transform="translate(10.837 7.066)">
                <path id="패스_668" data-name="패스 668" d="M336.413,98.9l-9.555,2.75a.8.8,0,0,1-.986-.545l-.792-2.753a.8.8,0,0,1,.545-.986l9.555-2.75a.8.8,0,0,1,.986.545l.793,2.753A.8.8,0,0,1,336.413,98.9Z" transform="translate(-288.124 -94.582)" fill="#fff"/>
                <g id="그룹_124" data-name="그룹 124" transform="translate(46.877 15.749)">
                  <path id="패스_674" data-name="패스 674" d="M393.882,217.92a1.1,1.1,0,0,1-.3-2.161l5.923-1.7a1.1,1.1,0,0,1,.609,2.118l-5.923,1.7A1.1,1.1,0,0,1,393.882,217.92Z" transform="translate(-392.78 -214.01)" fill="#fff"/>
                  <path id="패스_675" data-name="패스 675" d="M401.319,243.758a1.1,1.1,0,0,1-.3-2.162l5.923-1.7a1.1,1.1,0,0,1,.609,2.118l-5.923,1.7A1.1,1.1,0,0,1,401.319,243.758Z" transform="translate(-399.125 -236.052)" fill="#fff"/>
                </g>
                <path id="패스_676" data-name="패스 676" d="M74.857,322.472a1.1,1.1,0,0,1-.3-2.161l8.352-2.4a1.1,1.1,0,0,1,.609,2.118l-8.352,2.4A1.1,1.1,0,0,1,74.857,322.472Z" transform="translate(-73.755 -286.855)" fill="#fff"/>
              </g>
            </g>
          </g>
        </g>
        <rect id="영역" width="71.918" height="71.918" transform="translate(0.043)" fill="#fff" opacity="0"/>
      </g>
      <rect id="영역-2" data-name="영역" width="71.918" height="71.918" transform="translate(0.043 0)" fill="#fff" opacity="0"/>
    </g>
  </g>
</svg>
