<svg xmlns="http://www.w3.org/2000/svg" width="150" height="150" viewBox="0 0 150 150">
  <g id="icon" transform="translate(-1125 -2949)">
    <circle id="box" cx="75" cy="75" r="75" transform="translate(1125 2949)" fill="#fff" opacity="0.09"/>
    <g id="consulting_icon" transform="translate(1164.001 2988.001)">
      <g id="free-icon-consulting-4351722" transform="translate(0 0)">
        <path id="패스_602" data-name="패스 602" d="M71.677,44.968V28.71H64.71A28.824,28.824,0,0,0,62.3,22.878l4.925-4.925-11.5-11.5L50.8,11.381a28.822,28.822,0,0,0-5.833-2.413V2H28.71V8.968a28.825,28.825,0,0,0-5.832,2.412L17.953,6.456l-11.5,11.5,4.925,4.925A28.823,28.823,0,0,0,8.968,28.71H2V44.968H8.968A28.823,28.823,0,0,0,11.38,50.8L6.456,55.725l11.5,11.5L22.878,62.3A28.824,28.824,0,0,0,28.71,64.71v6.968H44.968V64.71A28.823,28.823,0,0,0,50.8,62.3l4.925,4.925,11.5-11.5L62.3,50.8a28.822,28.822,0,0,0,2.413-5.833Z" transform="translate(0.323 0.323)" fill="#cdebfc"/>
        <path id="패스_603" data-name="패스 603" d="M60.684,22.878l4.925-4.925-11.5-11.5-4.925,4.925a28.82,28.82,0,0,0-5.832-2.413V2H27.1V8.968a28.82,28.82,0,0,0-5.832,2.412L16.62,6.735A34.832,34.832,0,0,0,64.167,54.284L60.683,50.8A28.826,28.826,0,0,0,63.1,44.968h6.968V28.71H63.1A28.807,28.807,0,0,0,60.684,22.878Z" transform="translate(1.935 0.323)" fill="#e1f1fa"/>
        <circle id="타원_86" data-name="타원 86" cx="19.742" cy="19.742" r="19.742" transform="translate(17.419 17.419)" fill="#403362"/>
        <path id="패스_604" data-name="패스 604" d="M34.1,15a19.648,19.648,0,0,0-9.376,2.367,19.742,19.742,0,0,0,23.4,31.267A19.742,19.742,0,0,0,34.1,15Z" transform="translate(3.066 2.419)" fill="#8e72d8"/>
        <path id="패스_605" data-name="패스 605" d="M29.742,36.245v4.361L13.484,46.412,10,66.154H61.1L57.613,46.412,41.355,40.606V36.245" transform="translate(1.613 5.846)" fill="#8e72d8"/>
        <path id="패스_606" data-name="패스 606" d="M56.356,46.412,40.1,40.606V36.245H34.291v.876L28.485,39.2v1.41L17.859,44.4A16.808,16.808,0,0,0,34.6,62.67H59.224Z" transform="translate(2.87 5.846)" fill="#a58ee0"/>
        <path id="패스_607" data-name="패스 607" d="M33.448,66.154a35.689,35.689,0,0,0,10.427-23.9l-4.621-1.65V36.245H27.642v4.361l-4.621,1.65v.009A35.679,35.679,0,0,0,33.448,66.154Z" transform="translate(3.713 5.846)" fill="#e1f1fa"/>
        <path id="패스_608" data-name="패스 608" fill="#99fff7"/>
        <path id="패스_609" data-name="패스 609" d="M40,30.807h1.743a2.9,2.9,0,0,0,0-5.807H40" transform="translate(6.452 4.032)" fill="#ecb6ae"/>
        <path id="패스_610" data-name="패스 610" d="M38.613,40.606l0-4.361H27v4.361l5.807,5.805Z" transform="translate(4.355 5.846)" fill="#fee2d6"/>
        <path id="패스_611" data-name="패스 611" d="M38.613,36.245H27v1.922a8.117,8.117,0,0,0,11.613,0Z" transform="translate(4.355 5.846)" fill="#ecb6ae"/>
        <path id="패스_612" data-name="패스 612" d="M21,27.516V19.968A6.968,6.968,0,0,1,27.968,13h9.29A4.645,4.645,0,0,1,41.9,17.645a4.645,4.645,0,0,1,4.645,4.645v5.233" transform="translate(3.387 2.097)" fill="#191919"/>
        <path id="패스_613" data-name="패스 613" d="M46.065,22.29a4.645,4.645,0,0,0-4.645-4.645A4.645,4.645,0,0,0,36.774,13h-9.29a6.92,6.92,0,0,0-2.864.621A6.937,6.937,0,0,0,24,16.484a7.549,7.549,0,0,0,7.549,7.548H46.065Z" transform="translate(3.871 2.097)" fill="#505050"/>
        <path id="패스_614" data-name="패스 614" d="M42.581,24.645v6.968a9.29,9.29,0,0,1-18.581,0V24.645h7.581A8.4,8.4,0,0,0,39.1,20Z" transform="translate(3.871 3.226)" fill="#ecb6ae"/>
        <path id="패스_615" data-name="패스 615" d="M31.581,26.645H24V31.29a9.29,9.29,0,0,0,18.581,0V26.645L39.1,22A8.4,8.4,0,0,1,31.581,26.645Z" transform="translate(3.871 3.548)" fill="#fee2d6"/>
        <path id="패스_616" data-name="패스 616" d="M24.645,30.807H22.9A2.9,2.9,0,1,1,22.9,25h1.742" transform="translate(3.226 4.032)" fill="#ecb6ae"/>
        <path id="패스_617" data-name="패스 617" d="M24.561,41.012l2.832,9.44L33.2,45.806,27.393,40Z" transform="translate(3.961 6.452)" fill="#1b3b6b"/>
        <path id="패스_618" data-name="패스 618" d="M40.639,41.012l-2.833,9.44L32,45.806,37.807,40Z" transform="translate(5.161 6.452)" fill="#1b3b6b"/>
        <path id="패스_619" data-name="패스 619" d="M17,51h2.323V63.775H17Z" transform="translate(2.742 8.226)" fill="#403362"/>
        <path id="패스_620" data-name="패스 620" d="M45,51h2.322V63.775H45Z" transform="translate(7.258 8.226)" fill="#403362"/>
        <path id="패스_621" data-name="패스 621" fill="#6d6d6d"/>
        <path id="패스_622" data-name="패스 622" d="M30.941,49.046,29.4,60.638a35.767,35.767,0,0,0,3.019,3.451,35.572,35.572,0,0,0,3.019-3.451L33.893,49.046Z" transform="translate(4.742 7.911)" fill="#1b3b6b"/>
        <path id="패스_623" data-name="패스 623" d="M36.267,48l-3.746,2.81L28.774,48l3.746-3Z" transform="translate(4.641 7.258)" fill="#b3d0e4"/>
      </g>
      <rect id="영역" width="71.477" height="71.477" transform="translate(0.262 0.262)" fill="#fff" opacity="0"/>
    </g>
  </g>
</svg>
