<svg id="그룹_29275" data-name="그룹 29275" xmlns="http://www.w3.org/2000/svg" xmlns:xlink="http://www.w3.org/1999/xlink" width="147" height="32.073" viewBox="0 0 147 32.073">
  <defs>
    <clipPath id="clip-path">
      <rect id="사각형_14948" data-name="사각형 14948" width="147" height="32.073" fill="#fff"/>
    </clipPath>
  </defs>
  <g id="그룹_29273" data-name="그룹 29273" transform="translate(0 0)" clip-path="url(#clip-path)">
    <path id="패스_708" data-name="패스 708" d="M41.118,16.036h.031c3.324-.161,6.024-1.37,7.578-3.356,1.532,1.916,4.177,3.083,7.424,3.242a.659.659,0,0,0,.476-.177.643.643,0,0,0,.2-.466V13.235a.645.645,0,0,0-.607-.643c-3.586-.2-5.59-1.923-5.661-4.841h5.2a.644.644,0,0,0,.644-.644v-2.1a.644.644,0,0,0-.644-.644H41.544a.644.644,0,0,0-.644.644v2.1a.644.644,0,0,0,.644.644h5.311c-.071,2.956-2.115,4.693-5.773,4.9a.644.644,0,0,0-.608.643v2.1a.644.644,0,0,0,.644.644" transform="translate(-14.404 -1.553)" fill="#fff"/>
    <path id="패스_709" data-name="패스 709" d="M123.671,13.349h.031c3.316-.16,6.017-1.378,7.578-3.383,1.539,1.933,4.184,3.11,7.424,3.269a.644.644,0,0,0,.676-.643V10.548a.645.645,0,0,0-.607-.643c-3.575-.2-5.577-1.921-5.66-4.841h5.2a.644.644,0,0,0,.644-.644v-2.1a.644.644,0,0,0-.644-.644H124.1a.644.644,0,0,0-.644.644v2.1a.644.644,0,0,0,.644.644h5.311c-.084,2.957-2.126,4.694-5.773,4.9a.645.645,0,0,0-.608.643v2.1a.644.644,0,0,0,.644.644" transform="translate(-43.783 -0.597)" fill="#fff"/>
    <path id="패스_710" data-name="패스 710" d="M154.664,16.482a6.4,6.4,0,0,0-12.806,0,4.356,4.356,0,0,0,.609,2.33.645.645,0,0,0,.545.3h2.354a.644.644,0,0,0,.54-1,2.832,2.832,0,0,1-.435-1.635,2.79,2.79,0,1,1,5.578,0,2.71,2.71,0,0,1-2.788,2.874H130.438V15.716a.644.644,0,0,0-.644-.644h-2.326a.644.644,0,0,0-.644.644v3.641h-10.66a.644.644,0,0,0-.644.644v2.1a.644.644,0,0,0,.644.644h32.1a6.125,6.125,0,0,0,6.4-6.261" transform="translate(-41.111 -3.637)" fill="#fff"/>
    <path id="패스_711" data-name="패스 711" d="M178.657,31.76H168.331a.644.644,0,0,0-.644.644v2.1a.644.644,0,0,0,.644.644h8.633v7.186a.644.644,0,0,0,.644.644h2.326a.644.644,0,0,0,.644-.644V33.68a1.782,1.782,0,0,0-1.921-1.92" transform="translate(-59.677 -11.303)" fill="#fff"/>
    <path id="패스_712" data-name="패스 712" d="M212.487,40.457H203.11v-1.5h9.009a.554.554,0,0,0,.555-.554v-5a1.533,1.533,0,0,0-1.651-1.653H200.555A.554.554,0,0,0,200,32.3v1.807a.554.554,0,0,0,.554.554h9.011v1.405h-9.011a.554.554,0,0,0-.554.554v5.1a1.533,1.533,0,0,0,1.652,1.652h10.833a.554.554,0,0,0,.554-.554V41.011a.554.554,0,0,0-.554-.554" transform="translate(-71.177 -11.298)" fill="#fff"/>
    <path id="패스_713" data-name="패스 713" d="M7.208,14.589a10.167,10.167,0,0,0,2.926-.534A6.381,6.381,0,0,0,19.607,8.5c2.685-2.555,2.64-4.145,2.119-5.033h0c-.551-.935-2.021-1.771-5.895-.447-.538.184-1.091.4-1.653.645a1.037,1.037,0,0,0,.113-.252l-.008-.6A1.047,1.047,0,0,0,13.3,2.07h-.088A6.373,6.373,0,0,0,7.035,6.854a6.241,6.241,0,0,0-.2,1.574c-2.685,2.553-2.64,4.142-2.119,5.031a2.63,2.63,0,0,0,2.493,1.132m12.7-10.057a3.143,3.143,0,0,1-.8,1.447,6.39,6.39,0,0,0-.85-1.449,3.145,3.145,0,0,1,1.653,0M13.1,4.162c-.611.3-1.223.631-1.829.986s-1.189.729-1.751,1.12A4.3,4.3,0,0,1,13.1,4.162M8.592,9.647a23.631,23.631,0,0,1,3.742-2.7,24.26,24.26,0,0,1,3.653-1.762,4.286,4.286,0,0,1-5.3,6.734h0a1.209,1.209,0,0,1-.157-.112c-.053-.043-.1-.088-.154-.133A15.049,15.049,0,0,1,8.893,10.05L7.448,11.377l.6.834V12.2c.047.064.086.131.136.194a3.142,3.142,0,0,1-1.653,0c.01-.255.344-1.2,2.06-2.742" transform="translate(-1.579 -0.737)" fill="#fff"/>
    <path id="패스_714" data-name="패스 714" d="M81.726,15.8c3.744,0,6.46-2.526,6.46-6.006A4.025,4.025,0,0,0,87.61,7.73a.644.644,0,0,0-.55-.309h-2.3a.644.644,0,0,0-.557.967A2.591,2.591,0,0,1,84.572,9.8a2.856,2.856,0,1,1-2.846-2.618h5.249a.644.644,0,0,0,.644-.644v-2.1a.644.644,0,0,0-.644-.644H81.726c-3.743,0-6.461,2.526-6.461,6.007S77.983,15.8,81.726,15.8" transform="translate(-26.785 -1.349)" fill="#fff"/>
    <path id="패스_715" data-name="패스 715" d="M67.6,0H65.5a.644.644,0,0,0-.644.644v9.467a5.616,5.616,0,0,1-5.609,5.61H.644A.644.644,0,0,0,0,16.364v2.1a.644.644,0,0,0,.644.644h9.427v7.016a.644.644,0,0,0,.644.644h2.327a.644.644,0,0,0,.644-.644V19.106H32.481v7.3a.644.644,0,0,0,.644.644h2.328a.644.644,0,0,0,.644-.644v-7.3H59.242a8.947,8.947,0,0,0,5.609-1.974v1.35a.644.644,0,0,0,.644.644h2.1a.644.644,0,0,0,.644-.644V.644A.644.644,0,0,0,67.6,0" transform="translate(0 0)" fill="#fff"/>
    <path id="패스_716" data-name="패스 716" d="M211.173,15.751H201.59V13.3h4.134a.582.582,0,0,0,.582-.582V10.825a.582.582,0,0,0-.582-.582H196.9V6.079h8.821a.582.582,0,0,0,.582-.582V3.6a.582.582,0,0,0-.582-.582h-11.5a.582.582,0,0,0-.582.582v7.966a1.608,1.608,0,0,0,1.733,1.734h2.955v2.45H188.054c-1.424,0-2.307-.552-2.307-3.3v-.066h3.328a.644.644,0,0,0,.644-.644v-2.1A.644.644,0,0,0,189.075,9h-3.328V7.364h3.328a.644.644,0,0,0,.644-.644V4.593a.644.644,0,0,0-.644-.644h-3.328V.763a.644.644,0,0,0-.636-.644L182.784.09a.614.614,0,0,0-.46.186.642.642,0,0,0-.192.458v11.8c0,4.258,2.093,6.6,5.893,6.6h23.148a.644.644,0,0,0,.644-.644V16.4a.644.644,0,0,0-.644-.644" transform="translate(-64.817 -0.032)" fill="#fff"/>
  </g>
</svg>
