<svg id="logo_항공우주공학과" xmlns="http://www.w3.org/2000/svg" width="365" height="34.001" viewBox="0 0 365 34.001">
  <g id="항공우주공학과" transform="translate(15)">
    <g id="logo" transform="translate(0 0)">
      <path id="a" d="M76.17,0,66.549,33.95H55.414l-10.328-9.2H56.874L61.965,9.357H58.234L21.359,34H0L53.7,0Z" fill="#505050"/>
      <path id="e" d="M174.927.08h32.767l-11.888,8.9H172.03Z" transform="translate(-94.033 -0.044)" fill="#505050"/>
      <path id="e-2" data-name="e" d="M167.286,26.22l-2.616,9.053h27.857l13.452-9Z" transform="translate(-90.01 -14.351)" fill="#505050"/>
      <path id="e-3" data-name="e" d="M159.679,52.78l-3.119,9.909h35.111l13.906-9.909Z" transform="translate(-85.576 -28.888)" fill="#505050"/>
    </g>
    <g id="txt" transform="translate(126.448 0.082)">
      <g id="kor" transform="translate(-0.448 -0.081)">
        <path id="패스_10" data-name="패스 10" d="M272.71,3.127h11.612V4.947H272.71ZM278.5,11.8a6.823,6.823,0,0,1-3.83-.91,2.62,2.62,0,0,1-1.36-2.174,2.628,2.628,0,0,1,1.333-2.174,8.545,8.545,0,0,1,7.673,0,2.619,2.619,0,0,1,1.36,2.174,2.6,2.6,0,0,1-1.36,2.174A6.815,6.815,0,0,1,278.5,11.8Zm3.268.91a10.719,10.719,0,0,1,5.262,1.037,3.077,3.077,0,0,1,1.813,2.675,3.053,3.053,0,0,1-1.813,2.675,13.879,13.879,0,0,1-10.528,0,3.093,3.093,0,0,1-1.813-2.675,3.044,3.044,0,0,1,1.813-2.675,10.778,10.778,0,0,1,5.267-1.033ZM275.375.18h6.191V2h-6.191ZM278.5,7.321a4.1,4.1,0,0,0-1.886.368A1.138,1.138,0,0,0,275.9,8.74a1.069,1.069,0,0,0,.712,1.037,5.8,5.8,0,0,0,3.762,0A1.077,1.077,0,0,0,281.1,8.74a1.141,1.141,0,0,0-.725-1.028A4.125,4.125,0,0,0,278.5,7.321ZM281.77,14.6a9.035,9.035,0,0,0-3.173.455c-.789.3-1.188.764-1.188,1.365s.4,1.092,1.188,1.365a9.16,9.16,0,0,0,3.173.455,9.276,9.276,0,0,0,3.172-.455c.775-.291,1.165-.755,1.165-1.4s-.39-1.087-1.165-1.365a9.135,9.135,0,0,0-3.172-.432Zm8.969-7.159h-2.375v5.144h-2.488V.266h2.488V5.333h2.375Z" transform="translate(-272.71 -0.18)" fill="#505050"/>
        <path id="패스_11" data-name="패스 11" d="M325.864,5.647V9.336h8.815v2.1H316.36v-2.1h6.925V5.647Zm-.358,7.246a11.141,11.141,0,0,1,5.475,1.092,3.181,3.181,0,0,1,.013,5.818,14.466,14.466,0,0,1-10.981,0,3.19,3.19,0,0,1,.009-5.818A11.115,11.115,0,0,1,325.506,12.893Zm6.617-11.417a.674.674,0,0,1,.481.141.644.644,0,0,1,.145.455c-.032.641-.082,1.319-.145,2.033s-.141,1.365-.213,1.965-.177,1.3-.308,2.074h-2.443q.245-1.183.367-2.274c.077-.746.127-1.51.141-2.3H318.29v-2.1Zm-6.617,13.336a8.783,8.783,0,0,0-3.326.514,1.667,1.667,0,0,0-1.224,1.542,1.741,1.741,0,0,0,1.224,1.615,11.292,11.292,0,0,0,6.649,0,1.7,1.7,0,0,0,1.232-1.615,1.671,1.671,0,0,0-1.232-1.542,8.844,8.844,0,0,0-3.322-.514Z" transform="translate(-296.577 -0.885)" fill="#505050"/>
        <path id="패스_12" data-name="패스 12" d="M379.872,13.578h-7.841V20.1h-2.584V13.578H361.53V11.494h18.343ZM370.7,9.843a9.749,9.749,0,0,1-5.352-1.255,3.813,3.813,0,0,1-1.93-3.329,3.462,3.462,0,0,1,.5-1.819A4.544,4.544,0,0,1,365.351,2a7.418,7.418,0,0,1,2.266-.946,13.847,13.847,0,0,1,6.109,0A7.418,7.418,0,0,1,375.992,2a4.658,4.658,0,0,1,1.446,1.442,3.442,3.442,0,0,1,.512,1.819,3.809,3.809,0,0,1-1.93,3.316,9.746,9.746,0,0,1-5.339,1.26Zm0-7.073a7.131,7.131,0,0,0-3.3.655,2.012,2.012,0,0,0-1.256,1.819,1.983,1.983,0,0,0,1.265,1.819,8.546,8.546,0,0,0,6.562,0,2.032,2.032,0,0,0,1.278-1.819,2.009,2.009,0,0,0-1.264-1.819,7.163,7.163,0,0,0-3.309-.664Z" transform="translate(-321.274 -0.469)" fill="#505050"/>
        <path id="패스_13" data-name="패스 13" d="M425.019,14.074h-7.814v6.573h-2.556V14.074H406.7V12h18.32ZM408.744,1.72H422.93V3.794h-5.67a3.894,3.894,0,0,0,.843,1.692,6.551,6.551,0,0,0,1.586,1.365,11.223,11.223,0,0,0,2.1.982,16.85,16.85,0,0,0,2.474.7l-1.554,1.747a19.214,19.214,0,0,1-1.931-.564,12.687,12.687,0,0,1-1.908-.855,9.588,9.588,0,0,1-1.722-1.123A6.607,6.607,0,0,1,415.832,6.3,8.276,8.276,0,0,1,413.19,8.67a14.963,14.963,0,0,1-4.174,1.606L407.3,8.488a20.728,20.728,0,0,0,2.52-.7,11.214,11.214,0,0,0,2.121-.982,6.554,6.554,0,0,0,1.608-1.319,3.9,3.9,0,0,0,.853-1.678h-5.66Z" transform="translate(-345.971 -1.02)" fill="#505050"/>
        <path id="패스_14" data-name="패스 14" d="M461.374,5.649V9.338h8.815v2.1H451.87v-2.1h6.93V5.649Zm-.354,7.246a11.116,11.116,0,0,1,5.471,1.092A3.182,3.182,0,0,1,466.5,19.8a14.467,14.467,0,0,1-10.982,0,3.268,3.268,0,0,1-1.876-2.911,3.231,3.231,0,0,1,1.908-2.9A11.191,11.191,0,0,1,461.021,12.895Zm6.617-11.417a.656.656,0,0,1,.454.141.641.641,0,0,1,.145.455c-.032.641-.077,1.319-.145,2.033s-.136,1.365-.208,1.965-.181,1.3-.312,2.074h-2.443q.245-1.183.367-2.274c.082-.746.127-1.51.145-2.3H453.8v-2.1Zm-6.617,13.336a8.8,8.8,0,0,0-3.331.514,1.667,1.667,0,0,0-1.223,1.542,1.741,1.741,0,0,0,1.223,1.615,11.292,11.292,0,0,0,6.649,0,1.7,1.7,0,0,0,1.233-1.615,1.671,1.671,0,0,0-1.233-1.542A8.809,8.809,0,0,0,461.021,14.814Z" transform="translate(-370.67 -0.887)" fill="#505050"/>
        <path id="패스_15" data-name="패스 15" d="M498.56,5.006V3.1h11.617v1.9Zm5.8,7.182a6.638,6.638,0,0,1-3.829-.937A2.759,2.759,0,0,1,499.167,9,2.69,2.69,0,0,1,500.5,6.762a8.545,8.545,0,0,1,7.673,0A2.675,2.675,0,0,1,509.532,9a2.711,2.711,0,0,1-1.36,2.252A6.617,6.617,0,0,1,504.356,12.188Zm9.259,1.442a.657.657,0,0,1,.476.141.627.627,0,0,1,.145.455V19.9h-2.6V15.658h-10.9V13.63ZM501.225.18h6.2V2.036h-6.2Zm3.131,7.359a3.975,3.975,0,0,0-1.885.382,1.166,1.166,0,0,0-.712,1.06,1.142,1.142,0,0,0,.712,1.087,5.226,5.226,0,0,0,3.762,0,1.145,1.145,0,0,0,.72-1.087,1.165,1.165,0,0,0-.72-1.06A4,4,0,0,0,504.356,7.539Zm9.88-7.278V5.379h2.578v2.2h-2.578v5.253H511.73V.266Z" transform="translate(-396.198 -0.18)" fill="#505050"/>
        <path id="패스_16" data-name="패스 16" d="M542.56,13.825h3.593v-6.2h2.5v6.2c.373,0,.862,0,1.478-.055l1.921-.123c.666-.041,1.315-.091,1.94-.15s1.151-.123,1.569-.2v2.079c-.5.073-1.124.141-1.868.2s-1.567.127-2.483.186-1.881.082-2.932.118-2.139.055-3.263.055h-2.443ZM553.283,1.463a.678.678,0,0,1,.453.141.634.634,0,0,1,.145.455c-.042,1.742-.132,3.407-.264,5s-.321,3.12-.557,4.621H550.51c.086-.541.177-1.151.263-1.819s.172-1.365.244-2.088.118-1.456.168-2.183.077-1.41.077-2.051h-7.706V1.463Zm7.972,8.929H558.59v9.5H556.1V.33h2.488V8.208h2.666Z" transform="translate(-420.256 -0.262)" fill="#505050"/>
      </g>
      <g id="eng" transform="translate(-1.659 -0.331)">
        <path id="패스_17" data-name="패스 17" d="M275.667,58.455h1.783a4.155,4.155,0,0,1,2.941.976,4.39,4.39,0,0,1,0,5.7,4.2,4.2,0,0,1-2.941.97h-1.783a.294.294,0,0,1-.219-.06.3.3,0,0,1-.06-.214v-7.1a.328.328,0,0,1,.06-.214A.294.294,0,0,1,275.667,58.455Zm.88,6.683h1.188a2.307,2.307,0,0,0,1.907-.75,3.241,3.241,0,0,0,.595-2.1,2.764,2.764,0,0,0-.8-2.244,3.24,3.24,0,0,0-2.228-.631h-.689Z" transform="translate(-274.175 -32.032)" fill="#505050"/>
        <path id="패스_18" data-name="패스 18" d="M287.971,66.106a.3.3,0,0,1-.22-.06.312.312,0,0,1-.054-.214v-7.1a.331.331,0,0,1,.054-.214.3.3,0,0,1,.22-.059H292.4v.958h-3.564v2.267h3.524v.958h-3.524v2.5h3.713v.964Z" transform="translate(-279.171 -32.036)" fill="#505050"/>
        <path id="패스_19" data-name="패스 19" d="M298,58.732a.335.335,0,0,1,.054-.214.3.3,0,0,1,.22-.059h2.281a3.619,3.619,0,0,1,1.022.143,2.748,2.748,0,0,1,.844.428,2.037,2.037,0,0,1,.594.714,2.41,2.41,0,0,1,0,1.988,2.087,2.087,0,0,1-.558.7,2.373,2.373,0,0,1-.814.417,3.2,3.2,0,0,1-.962.137h-1.515v3.118H298Zm4.028,2a1.19,1.19,0,0,0-.41-1.012,1.952,1.952,0,0,0-1.188-.3H299.1v2.612h1.325a1.994,1.994,0,0,0,1.188-.292,1.138,1.138,0,0,0,.4-1.006Z" transform="translate(-283.353 -32.035)" fill="#505050"/>
        <path id="패스_20" data-name="패스 20" d="M310.159,58.664l2.833,7.439h-1.229l-.731-1.97H307.96l-.73,1.964H306l2.834-7.439a.369.369,0,0,1,.1-.149.209.209,0,0,1,.155-.06h.778a.229.229,0,0,1,.16.06A.381.381,0,0,1,310.159,58.664Zm-1.837,4.511H310.7l-1.034-2.821-.154-.482-.154.482Z" transform="translate(-286.6 -32.033)" fill="#505050"/>
        <path id="패스_21" data-name="패스 21" d="M319.13,58.44H321.4a3.771,3.771,0,0,1,1.029.137,2.59,2.59,0,0,1,.826.387,1.87,1.87,0,0,1,.546.655,1.98,1.98,0,0,1,.2.9,1.435,1.435,0,0,1-.369,1.006,1.93,1.93,0,0,1-.932.553,1.3,1.3,0,0,1,.879.6,2.808,2.808,0,0,1,.32,1.071,7.3,7.3,0,0,0,.065.78c.018.184.035.417.059.595a2.98,2.98,0,0,0,.107.5,1.893,1.893,0,0,0,.208.47h-1.319a2.154,2.154,0,0,1-.108-.4c0-.143-.041-.286-.053-.434a3.66,3.66,0,0,1-.042-.434V64.4c-.042-.411-.083-.732-.124-.97a1.373,1.373,0,0,0-.185-.536.544.544,0,0,0-.362-.226,3.336,3.336,0,0,0-.63-.048h-1.492v3.469h-1.153V58.725a.231.231,0,0,1,.261-.286Zm3.684,2.071a.964.964,0,0,0-.362-.857,2.12,2.12,0,0,0-1.147-.244h-1.319v2.244h1.259A2.168,2.168,0,0,0,322.4,61.4.965.965,0,0,0,322.814,60.511Z" transform="translate(-291.823 -32.029)" fill="#505050"/>
        <path id="패스_22" data-name="패스 22" d="M330.429,66.107V59.418h-2.3V58.46h5.722v.958h-2.293v6.689Z" transform="translate(-295.582 -32.037)" fill="#505050"/>
        <path id="패스_23" data-name="패스 23" d="M344.4,58.69a.318.318,0,0,1,.1-.167.31.31,0,0,1,.226-.065h.885a.279.279,0,0,1,.214.059.333.333,0,0,1,.06.214V66.1h-1.075v-6.1l-.131.6-1.836,5.32a.31.31,0,0,1-.112.161.258.258,0,0,1-.167.053h-.647a.3.3,0,0,1-.178-.048.292.292,0,0,1-.1-.167L339.8,60.63l-.124-.6V66.1h-1.069V58.732a.335.335,0,0,1,.047-.214.286.286,0,0,1,.22-.059h.885a.291.291,0,0,1,.214.065.37.37,0,0,1,.113.167l1.907,5.356.25.851.25-.851Z" transform="translate(-299.834 -32.035)" fill="#505050"/>
        <path id="패스_24" data-name="패스 24" d="M353.752,66.106a.3.3,0,0,1-.22-.06.31.31,0,0,1-.054-.214v-7.1a.331.331,0,0,1,.054-.214.3.3,0,0,1,.22-.059h4.426v.958h-3.564v2.267h3.524v.958h-3.524v2.5h3.713v.964Z" transform="translate(-305.871 -32.036)" fill="#505050"/>
        <path id="패스_25" data-name="패스 25" d="M368,63.754l.339.75-.03-.78V58.458h1.141v7.355a.309.309,0,0,1-.053.214.32.32,0,0,1-.213.054h-.826a.342.342,0,0,1-.225-.059.306.306,0,0,1-.1-.173l-2.971-5.064-.339-.75.03.78V66.1h-1.14V58.732a.39.39,0,0,1,.046-.214.287.287,0,0,1,.221-.06h.79a.3.3,0,0,1,.22.065.429.429,0,0,1,.113.167Z" transform="translate(-309.983 -32.035)" fill="#505050"/>
        <path id="패스_26" data-name="패스 26" d="M376.809,66.107V59.418h-2.3V58.46h5.721v.958H377.95v6.689Z" transform="translate(-314.407 -32.037)" fill="#505050"/>
        <path id="패스_27" data-name="패스 27" d="M396.308,62.175a5.113,5.113,0,0,1-.238,1.613,3.633,3.633,0,0,1-.671,1.262,2.914,2.914,0,0,1-1.087.815,3.88,3.88,0,0,1-2.923,0,2.893,2.893,0,0,1-1.069-.815,3.534,3.534,0,0,1-.654-1.262,5.822,5.822,0,0,1,0-3.214,3.59,3.59,0,0,1,.654-1.262,2.979,2.979,0,0,1,1.069-.821,3.808,3.808,0,0,1,2.923,0,2.967,2.967,0,0,1,1.087.821,3.694,3.694,0,0,1,.671,1.262A5.068,5.068,0,0,1,396.308,62.175Zm-5.662,0a5.037,5.037,0,0,0,.125,1.143,2.726,2.726,0,0,0,.385.964,1.973,1.973,0,0,0,.69.655,2.028,2.028,0,0,0,2.72-.655,3.1,3.1,0,0,0,.4-.964,5.029,5.029,0,0,0,.125-1.143,4.873,4.873,0,0,0-.125-1.125,3.063,3.063,0,0,0-.4-.958,2.1,2.1,0,0,0-.688-.667,2.148,2.148,0,0,0-2.032,0,2.063,2.063,0,0,0-.69.667,2.7,2.7,0,0,0-.385.958A4.881,4.881,0,0,0,390.647,62.175Z" transform="translate(-320.467 -31.932)" fill="#505050"/>
        <path id="패스_28" data-name="패스 28" d="M403.152,58.469h4.272v.952h-3.392v2.226h3.363v.964h-3.363v3.5h-1.153V58.742a.307.307,0,0,1,.054-.208A.292.292,0,0,1,403.152,58.469Z" transform="translate(-325.921 -32.04)" fill="#505050"/>
        <path id="패스_29" data-name="패스 29" d="M419.692,58.664l2.833,7.439h-1.217l-.737-1.97H417.5l-.731,1.964H415.55l2.834-7.439a.369.369,0,0,1,.1-.149.208.208,0,0,1,.154-.059h.779a.227.227,0,0,1,.159.059A.333.333,0,0,1,419.692,58.664Zm-1.836,4.511h2.376L419.2,60.354l-.154-.482-.154.482Z" transform="translate(-331.064 -32.033)" fill="#505050"/>
        <path id="패스_30" data-name="패스 30" d="M428.657,66.1a.285.285,0,0,1-.22-.059.28.28,0,0,1-.059-.214v-7.1a.3.3,0,0,1,.059-.214.285.285,0,0,1,.22-.06h4.421v.958h-3.565v2.267h3.529v.958h-3.529v2.5h3.714V66.1Z" transform="translate(-336.27 -32.035)" fill="#505050"/>
        <path id="패스_31" data-name="패스 31" d="M438.973,58.44h2.281a3.778,3.778,0,0,1,1.033.137,2.718,2.718,0,0,1,.826.387,1.881,1.881,0,0,1,.547.655,1.986,1.986,0,0,1,.2.9,1.414,1.414,0,0,1-.374,1.006,1.938,1.938,0,0,1-.926.553,1.294,1.294,0,0,1,.879.6,2.915,2.915,0,0,1,.315,1.071c.03.3.054.595.072.78s.034.417.053.595a4.943,4.943,0,0,0,.107.5,2.184,2.184,0,0,0,.214.47h-1.337a2.146,2.146,0,0,1-.106-.4,3.5,3.5,0,0,1-.06-.434c0-.149-.035-.292-.042-.434V64.4c-.042-.411-.083-.732-.124-.97a1.46,1.46,0,0,0-.184-.536.6.6,0,0,0-.362-.226,3.434,3.434,0,0,0-.63-.048h-1.5v3.469H438.7V58.725a.338.338,0,0,1,.059-.22A.329.329,0,0,1,438.973,58.44Zm3.677,2.071a.945.945,0,0,0-.362-.857,2.083,2.083,0,0,0-1.14-.244h-1.319v2.243h1.253a2.188,2.188,0,0,0,1.188-.256A.962.962,0,0,0,442.65,60.511Z" transform="translate(-340.46 -32.029)" fill="#505050"/>
        <path id="패스_32" data-name="패스 32" d="M455.807,62.175a5.112,5.112,0,0,1-.237,1.613,3.774,3.774,0,0,1-.642,1.262,3.008,3.008,0,0,1-1.088.815,3.6,3.6,0,0,1-1.462.286,3.559,3.559,0,0,1-1.467-.286,2.969,2.969,0,0,1-1.069-.815,3.643,3.643,0,0,1-.654-1.262,5.963,5.963,0,0,1,0-3.213,3.7,3.7,0,0,1,.654-1.262,3.041,3.041,0,0,1,1.069-.821,3.557,3.557,0,0,1,1.467-.292,3.6,3.6,0,0,1,1.462.292,3.1,3.1,0,0,1,1.088.821,3.8,3.8,0,0,1,.665,1.262A5.107,5.107,0,0,1,455.807,62.175Zm-5.656,0a5.093,5.093,0,0,0,.12,1.143,2.832,2.832,0,0,0,.386.964,1.96,1.96,0,0,0,.689.655,2.03,2.03,0,0,0,2.721-.655,3.129,3.129,0,0,0,.4-.964,5.194,5.194,0,0,0,.124-1.143,5.033,5.033,0,0,0-.124-1.125,3.093,3.093,0,0,0-.4-.958,2.116,2.116,0,0,0-.689-.666,2.148,2.148,0,0,0-2.032,0,2.05,2.05,0,0,0-.689.666,2.8,2.8,0,0,0-.386.958,4.98,4.98,0,0,0-.1,1.125Z" transform="translate(-344.628 -31.931)" fill="#505050"/>
        <path id="패스_33" data-name="패스 33" d="M463.914,62.494a7.694,7.694,0,0,1-.748-.286,2.835,2.835,0,0,1-.672-.4,1.816,1.816,0,0,1-.468-.6,2.035,2.035,0,0,1,.042-1.785,2.122,2.122,0,0,1,.594-.678,2.735,2.735,0,0,1,.808-.417,2.791,2.791,0,0,1,.909-.149,3.631,3.631,0,0,1,.856.089,4.034,4.034,0,0,1,.725.274,1.884,1.884,0,0,1,.7.655,2.022,2.022,0,0,1,.284,1.089h-1.188a1.086,1.086,0,0,0-.434-.9,1.663,1.663,0,0,0-.88-.232,1.591,1.591,0,0,0-.986.3.951.951,0,0,0-.392.786,1.149,1.149,0,0,0,.131.6,1.106,1.106,0,0,0,.392.381,2.624,2.624,0,0,0,.594.28l.784.274.779.3a2.508,2.508,0,0,1,.665.387,1.6,1.6,0,0,1,.476.6,1.9,1.9,0,0,1,.184.857,2.3,2.3,0,0,1-.22,1.03,1.908,1.908,0,0,1-.595.714,2.37,2.37,0,0,1-.908.417,5.205,5.205,0,0,1-1.064.1,2.819,2.819,0,0,1-1.919-.6,2.28,2.28,0,0,1-.7-1.785h1.229a1.989,1.989,0,0,0,.1.726.969.969,0,0,0,.314.434,1.071,1.071,0,0,0,.47.22,3.182,3.182,0,0,0,.594.054,2.127,2.127,0,0,0,.547-.071,1.785,1.785,0,0,0,.48-.208,1.337,1.337,0,0,0,.346-.381,1.108,1.108,0,0,0,.131-.553.98.98,0,0,0-.12-.5,1.058,1.058,0,0,0-.357-.351,3.332,3.332,0,0,0-.594-.292Z" transform="translate(-349.777 -31.923)" fill="#505050"/>
        <path id="패스_34" data-name="패스 34" d="M472.649,58.732a.331.331,0,0,1,.053-.214.3.3,0,0,1,.22-.06h2.312a3.619,3.619,0,0,1,1.021.143,2.758,2.758,0,0,1,.844.428,2.105,2.105,0,0,1,.594.714,2.205,2.205,0,0,1-.557,2.69,2.394,2.394,0,0,1-.815.417,3.192,3.192,0,0,1-.962.137h-1.514v3.118H472.7Zm4.028,2a1.19,1.19,0,0,0-.41-1.012,1.954,1.954,0,0,0-1.188-.3H473.76v2.612h1.318a2,2,0,0,0,1.188-.292A1.136,1.136,0,0,0,476.677,60.732Z" transform="translate(-354.239 -32.035)" fill="#505050"/>
        <path id="패스_35" data-name="패스 35" d="M484.832,58.664l2.833,7.439h-1.217l-.731-1.97h-3.049l-.73,1.964H480.72l2.834-7.439a.358.358,0,0,1,.1-.149.213.213,0,0,1,.161-.06h.772a.234.234,0,0,1,.162.06A.344.344,0,0,1,484.832,58.664ZM483,63.175h2.376l-1.034-2.821-.153-.482-.154.482Z" transform="translate(-357.515 -32.033)" fill="#505050"/>
        <path id="패스_36" data-name="패스 36" d="M498.168,60.4H496.98a1.334,1.334,0,0,0-.528-.952,1.719,1.719,0,0,0-1.011-.292,1.822,1.822,0,0,0-1.015.268,1.963,1.963,0,0,0-.642.684,3.074,3.074,0,0,0-.349.964,5.417,5.417,0,0,0-.1,1.089,5.594,5.594,0,0,0,.1,1.107,3.038,3.038,0,0,0,.349.958,1.908,1.908,0,0,0,.642.684,1.864,1.864,0,0,0,1.015.256,1.734,1.734,0,0,0,1.005-.28,1.612,1.612,0,0,0,.594-1.047h1.188a2.654,2.654,0,0,1-.321,1.012,2.251,2.251,0,0,1-.63.708,2.641,2.641,0,0,1-.855.44,3.633,3.633,0,0,1-1,.137,3.258,3.258,0,0,1-1.5-.321,2.867,2.867,0,0,1-1.021-.881,3.715,3.715,0,0,1-.595-1.262,5.97,5.97,0,0,1-.183-1.512,5.63,5.63,0,0,1,.19-1.482A3.657,3.657,0,0,1,492.9,59.4a3.02,3.02,0,0,1,1.021-.893,3.085,3.085,0,0,1,1.491-.339,3.482,3.482,0,0,1,.963.131,2.651,2.651,0,0,1,.849.4,2.205,2.205,0,0,1,.636.69A2.468,2.468,0,0,1,498.168,60.4Z" transform="translate(-362.142 -31.918)" fill="#505050"/>
        <path id="패스_37" data-name="패스 37" d="M504.328,66.1a.285.285,0,0,1-.22-.059.281.281,0,0,1-.06-.214v-7.1a.3.3,0,0,1,.06-.214.285.285,0,0,1,.22-.06h4.444v.958h-3.565v2.267h3.53v.958h-3.53v2.5h3.713V66.1Z" transform="translate(-366.983 -32.035)" fill="#505050"/>
        <path id="패스_38" data-name="패스 38" d="M519.407,66.1a.287.287,0,0,1-.221-.06.283.283,0,0,1-.058-.214v-7.1a.293.293,0,0,1,.058-.214.287.287,0,0,1,.221-.059h4.4v.958H520.24v2.267H523.8v.958h-3.529v2.5h3.713V66.1Z" transform="translate(-373.104 -32.035)" fill="#505050"/>
        <path id="패스_39" data-name="패스 39" d="M533.687,63.755l.338.75V58.458h1.147v7.355a.219.219,0,0,1-.267.268h-.857a.33.33,0,0,1-.224-.06.323.323,0,0,1-.108-.173l-2.97-5.064-.344-.75.034.779v5.29H529.29V58.732a.336.336,0,0,1,.052-.214.28.28,0,0,1,.214-.06h.8a.29.29,0,0,1,.213.065.374.374,0,0,1,.114.167Z" transform="translate(-377.229 -32.035)" fill="#505050"/>
        <path id="패스_40" data-name="패스 40" d="M546.752,61.951a.294.294,0,0,1,.213.065.265.265,0,0,1,.066.208V65.01a.487.487,0,0,1-.047.214.432.432,0,0,1-.149.167,4.784,4.784,0,0,1-1.1.595,3.835,3.835,0,0,1-1.295.214,3.766,3.766,0,0,1-1.492-.274,2.932,2.932,0,0,1-1.094-.809,3.335,3.335,0,0,1-.671-1.25,5.679,5.679,0,0,1-.226-1.642,5.421,5.421,0,0,1,.226-1.577,3.929,3.929,0,0,1,.648-1.268,3.276,3.276,0,0,1,1.046-.827,3.124,3.124,0,0,1,1.4-.3,3.561,3.561,0,0,1,1,.143,2.653,2.653,0,0,1,.868.434,2.258,2.258,0,0,1,.595.726,2.487,2.487,0,0,1,.272,1.024h-1.188a1.429,1.429,0,0,0-.594-1.059,2.013,2.013,0,0,0-2-.06,1.872,1.872,0,0,0-.654.655,2.987,2.987,0,0,0-.361.952,5.589,5.589,0,0,0-.114,1.16,5.186,5.186,0,0,0,.125,1.19,2.634,2.634,0,0,0,.422.952A2,2,0,0,0,543.4,65a2.406,2.406,0,0,0,1.106.232,2.2,2.2,0,0,0,.754-.119,3.258,3.258,0,0,0,.516-.244h0v-.036a.083.083,0,0,0,0-.048V62.9H544.1v-.952Z" transform="translate(-381.965 -31.951)" fill="#505050"/>
        <path id="패스_41" data-name="패스 41" d="M554.891,66.087H553.75V58.41h1.141Z" transform="translate(-387.157 -32.017)" fill="#505050"/>
        <path id="패스_42" data-name="패스 42" d="M562.6,63.755l.339.75-.029-.78V58.458h1.146v7.355a.278.278,0,0,1-.06.214.3.3,0,0,1-.208.054h-.825a.346.346,0,0,1-.226-.06.354.354,0,0,1-.106-.173l-2.972-5.064-.338-.75v6.07h-1.147V58.732a.329.329,0,0,1,.053-.214.279.279,0,0,1,.214-.06h.814a.291.291,0,0,1,.213.065.373.373,0,0,1,.113.167Z" transform="translate(-388.954 -32.035)" fill="#505050"/>
        <path id="패스_43" data-name="패스 43" d="M570.855,66.105a.224.224,0,0,1-.218-.056.227.227,0,0,1-.062-.217v-7.1a.342.342,0,0,1,.054-.214.317.317,0,0,1,.226-.06h4.42v.958H571.71v2.267h3.524v.958H571.71v2.5h3.713v.964Z" transform="translate(-393.982 -32.035)" fill="#505050"/>
        <path id="패스_44" data-name="패스 44" d="M581.158,66.105a.3.3,0,0,1-.22-.059.3.3,0,0,1-.06-.214v-7.1a.332.332,0,0,1,.06-.214.3.3,0,0,1,.22-.06h4.427v.958H582.02v2.267h3.523v.958H582.02v2.5h3.709v.964Z" transform="translate(-398.167 -32.035)" fill="#505050"/>
        <path id="패스_45" data-name="패스 45" d="M591.452,58.438h2.27a3.771,3.771,0,0,1,1.029.137,2.642,2.642,0,0,1,.825.387,1.87,1.87,0,0,1,.547.655,2.009,2.009,0,0,1,.2.9,1.419,1.419,0,0,1-.375,1.006,1.888,1.888,0,0,1-.926.553,1.294,1.294,0,0,1,.88.6,3.034,3.034,0,0,1,.319,1.071,7.394,7.394,0,0,0,.066.779c.018.184.036.417.053.6a3.763,3.763,0,0,0,.114.5,1.9,1.9,0,0,0,.208.47h-1.319a2.138,2.138,0,0,1-.107-.4,4.158,4.158,0,0,0-.058-.434c-.019-.149-.036-.292-.043-.434V64.4c-.041-.411-.082-.732-.123-.97a1.375,1.375,0,0,0-.184-.536.6.6,0,0,0-.362-.226,3.4,3.4,0,0,0-.63-.048h-1.492v3.47h-1.188V58.723a.316.316,0,0,1,.065-.22A.306.306,0,0,1,591.452,58.438Zm3.677,2.071a.956.956,0,0,0-.356-.857,2.117,2.117,0,0,0-1.146-.244h-1.318v2.244h1.258a2.169,2.169,0,0,0,1.153-.256A.963.963,0,0,0,595.129,60.509Z" transform="translate(-402.336 -32.026)" fill="#505050"/>
        <path id="패스_46" data-name="패스 46" d="M603.61,66.087h-1.14V58.41h1.14Z" transform="translate(-406.931 -32.017)" fill="#505050"/>
        <path id="패스_47" data-name="패스 47" d="M611.345,63.754l.346.75-.036-.78V58.458H612.8v7.355a.309.309,0,0,1-.054.214.33.33,0,0,1-.213.054h-.8a.345.345,0,0,1-.226-.06.308.308,0,0,1-.1-.173l-2.971-5.064-.339-.75V66.1h-1.147V58.732a.332.332,0,0,1,.055-.214.282.282,0,0,1,.219-.06h.79a.3.3,0,0,1,.219.065.439.439,0,0,1,.114.167Z" transform="translate(-408.748 -32.035)" fill="#505050"/>
        <path id="패스_48" data-name="패스 48" d="M624.424,61.931a.3.3,0,0,1,.22.065.278.278,0,0,1,.06.208V64.99a.442.442,0,0,1-.047.214.4.4,0,0,1-.149.167,4.729,4.729,0,0,1-1.093.6,3.863,3.863,0,0,1-1.3.214,3.8,3.8,0,0,1-1.479-.3,2.95,2.95,0,0,1-1.092-.809,3.485,3.485,0,0,1-.673-1.25,5.675,5.675,0,0,1-.226-1.643,5.422,5.422,0,0,1,.226-1.577,3.971,3.971,0,0,1,.654-1.268,3.165,3.165,0,0,1,1.046-.827,3.108,3.108,0,0,1,1.4-.3,3.484,3.484,0,0,1,1,.143,2.561,2.561,0,0,1,.867.434,2.119,2.119,0,0,1,.6.726,2.484,2.484,0,0,1,.278,1.023h-1.187a1.453,1.453,0,0,0-.594-1.059,2.023,2.023,0,0,0-2.008-.059,1.968,1.968,0,0,0-.654.655,2.991,2.991,0,0,0-.363.952,6.079,6.079,0,0,0-.112,1.16,5.05,5.05,0,0,0,.131,1.19,2.657,2.657,0,0,0,.416.952,2.113,2.113,0,0,0,.748.637,2.453,2.453,0,0,0,1.111.232,2.2,2.2,0,0,0,.75-.119,3.054,3.054,0,0,0,.516-.244h0v-.036a.142.142,0,0,0,0-.048V62.883h-1.67v-.952Z" transform="translate(-413.498 -31.931)" fill="#505050"/>
      </g>
    </g>
  </g>
  <rect id="영역" width="365" height="34" fill="#505050" opacity="0"/>
</svg>
