<svg id="logo_한화" xmlns="http://www.w3.org/2000/svg" width="365.001" height="34" viewBox="0 0 365.001 34">
  <path id="한화" d="M-98.349-15.444V9.931h-3.97V-3.452h-15.02V9.931h-3.97V-15.444h3.97V-6.93h15.02v-8.513ZM-81.576.755h-6.286q-3.044,0-3.044,2.584v.629q0,2.551,3.044,2.551h6.286q3.11,0,3.11-2.551V3.339Q-78.466.755-81.576.755Zm-7.245,9.176a6.086,6.086,0,0,1-4.4-1.557,5.258,5.258,0,0,1-1.654-4.008V3.008a5.3,5.3,0,0,1,1.654-4.041,6.011,6.011,0,0,1,4.4-1.59h10.355v-.1q0-3.048-3.341-3.048H-93.32V-9.15h11.447a7.548,7.548,0,0,1,5.459,1.822,6.568,6.568,0,0,1,1.919,5.1V4.5A5.066,5.066,0,0,1-76.25,8.573a6.666,6.666,0,0,1-4.466,1.358ZM-62.884-9.15h3.9A7.794,7.794,0,0,1-53.158-7a8.185,8.185,0,0,1,2.117,6V9.931h-3.97V-.8a5.333,5.333,0,0,0-.926-3.478A4.056,4.056,0,0,0-59.278-5.7h-3.374A4.077,4.077,0,0,0-65.961-4.28,5.635,5.635,0,0,0-66.821-.8V9.931h-3.97V-1a8.184,8.184,0,0,1,2.117-6A7.749,7.749,0,0,1-62.884-9.15ZM-32.746,7.38a6.572,6.572,0,0,1-5.26,2.551h-2.448a6.856,6.856,0,0,1-5.26-2.087,7.728,7.728,0,0,1-1.853-5.532V-9.15h3.937V2.345a4.374,4.374,0,0,0,.893,3.048,3.505,3.505,0,0,0,2.68,1.093h1.72a3.545,3.545,0,0,0,2.713-1.093A4.269,4.269,0,0,0-34.7,2.345V-9.15h3.9V2.345A4.374,4.374,0,0,0-29.9,5.393a3.505,3.505,0,0,0,2.68,1.093h1.72a3.545,3.545,0,0,0,2.713-1.093,4.269,4.269,0,0,0,.926-3.048V-9.15h3.937V2.312a7.564,7.564,0,0,1-1.919,5.532,6.9,6.9,0,0,1-5.293,2.087h-2.415A6.508,6.508,0,0,1-32.746,7.38ZM-6.28-5.7A4.077,4.077,0,0,0-9.588-4.28,5.635,5.635,0,0,0-10.448-.8V9.931h-3.97V-15.51h3.97v7.52A6.879,6.879,0,0,1-6.511-9.15h3.9A7.793,7.793,0,0,1,3.215-7,8.185,8.185,0,0,1,5.332-1V9.931H1.362V-.8A5.334,5.334,0,0,0,.436-4.28,4.057,4.057,0,0,0-2.906-5.7ZM21.906.755H15.621q-3.044,0-3.044,2.584v.629q0,2.551,3.044,2.551h6.286q3.11,0,3.11-2.551V3.339Q25.016.755,21.906.755ZM14.661,9.931a6.086,6.086,0,0,1-4.4-1.557A5.258,5.258,0,0,1,8.607,4.366V3.008a5.3,5.3,0,0,1,1.654-4.041,6.012,6.012,0,0,1,4.4-1.59H25.016v-.1q0-3.048-3.341-3.048H10.162V-9.15H21.609a7.548,7.548,0,0,1,5.459,1.822,6.568,6.568,0,0,1,1.919,5.1V4.5a5.066,5.066,0,0,1-1.753,4.075,6.666,6.666,0,0,1-4.466,1.358Zm49-25.375V-12H49.993q-3.771,0-3.771,2.849v1.723q0,2.816,3.738,2.816H57.3q3.705,0,5.558,1.656a5.643,5.643,0,0,1,1.985,4.472V3.869a5.607,5.607,0,0,1-1.985,4.439Q61.01,9.931,57.272,9.931H43.179V6.486H57.073q3.771,0,3.772-2.816V1.649q0-2.849-3.772-2.849H49.729q-3.705,0-5.558-1.623a5.649,5.649,0,0,1-1.952-4.439V-9.315a5.685,5.685,0,0,1,1.952-4.472q1.853-1.656,5.558-1.656ZM72.324-1.133V6.486H80.86a3.729,3.729,0,0,0,3.11-1.292,5.437,5.437,0,0,0,.794-3.213V-1.133a5.5,5.5,0,0,0-.794-3.246A3.687,3.687,0,0,0,80.86-5.7H76.195A3.594,3.594,0,0,0,73.118-4.38,5.5,5.5,0,0,0,72.324-1.133Zm-3.97-.232A7.689,7.689,0,0,1,70.372-7.1,7.612,7.612,0,0,1,75.93-9.15h5.194A7.612,7.612,0,0,1,86.682-7.1a7.616,7.616,0,0,1,2.051,5.731V2.179a7.57,7.57,0,0,1-2.051,5.7,7.567,7.567,0,0,1-5.525,2.054H72.324V16.49h-3.97Zm36.92,2.12H98.989q-3.044,0-3.044,2.584v.629q0,2.551,3.044,2.551h6.286q3.11,0,3.11-2.551V3.339Q108.384.755,105.274.755ZM98.029,9.931a6.086,6.086,0,0,1-4.4-1.557,5.258,5.258,0,0,1-1.654-4.008V3.008a5.3,5.3,0,0,1,1.654-4.041,6.011,6.011,0,0,1,4.4-1.59h10.355v-.1q0-3.048-3.341-3.048H93.53V-9.15h11.447a7.548,7.548,0,0,1,5.459,1.822,6.568,6.568,0,0,1,1.919,5.1V4.5A5.066,5.066,0,0,1,110.6,8.573a6.666,6.666,0,0,1-4.466,1.358Zm38.277,0H123.635a7.612,7.612,0,0,1-5.558-2.054,7.642,7.642,0,0,1-2.018-5.7V-1.332a7.689,7.689,0,0,1,2.018-5.731,7.722,7.722,0,0,1,5.558-2.087h12.671V-5.7h-12.34a3.725,3.725,0,0,0-3.143,1.325,5.691,5.691,0,0,0-.761,3.246V1.981a5.62,5.62,0,0,0,.761,3.213,3.769,3.769,0,0,0,3.143,1.292h12.34ZM146.892-.007h6.319q3.077,0,3.077-2.551v-.629q0-2.584-3.077-2.584h-6.319q-3.044,0-3.044,2.584v.629Q143.849-.007,146.892-.007Zm13.365-3.511v1.325a5.208,5.208,0,0,1-1.687,4.008,6.086,6.086,0,0,1-4.4,1.557H143.849V3.5q0,3.014,3.341,3.015h12.174V9.931H147.223a7.708,7.708,0,0,1-5.459-1.789,6.586,6.586,0,0,1-1.886-5.068V-3.518a5.3,5.3,0,0,1,1.654-4.041,6.057,6.057,0,0,1,4.433-1.59h8.171a6.058,6.058,0,0,1,4.433,1.59A5.246,5.246,0,0,1,160.258-3.518Zm36.093-11.925V9.931h-3.97V-3.452h-15.02V9.931h-3.97V-15.444h3.97V-6.93h15.02v-8.513ZM208,9.931a7.75,7.75,0,0,1-5.79-2.153,8.023,8.023,0,0,1-2.117-5.93v-11h3.97V1.616a5.636,5.636,0,0,0,.86,3.478,4.122,4.122,0,0,0,3.308,1.391H211.6a4.1,4.1,0,0,0,3.341-1.391,5.333,5.333,0,0,0,.926-3.478V-9.15h3.97v11a8.022,8.022,0,0,1-2.117,5.93A7.793,7.793,0,0,1,211.9,9.931Zm19.287-7.95a5.437,5.437,0,0,0,.794,3.213,3.634,3.634,0,0,0,3.077,1.292h4.665a3.729,3.729,0,0,0,3.11-1.292,5.437,5.437,0,0,0,.794-3.213V-1.133a5.5,5.5,0,0,0-.794-3.246,3.687,3.687,0,0,0-3.11-1.325h-8.535Zm-3.97.2V-15.51h3.97v6.36h8.833a7.677,7.677,0,0,1,5.525,2.087,7.616,7.616,0,0,1,2.051,5.731V2.179a7.57,7.57,0,0,1-2.051,5.7,7.612,7.612,0,0,1-5.558,2.054h-5.194a7.612,7.612,0,0,1-5.558-2.054A7.642,7.642,0,0,1,223.313,2.179Z" transform="translate(121.309 16.51)" fill="#999"/>
  <rect id="영역" width="365" height="34" fill="#999" opacity="0"/>
</svg>
