<svg id="logo_과학기술정보통신부" xmlns="http://www.w3.org/2000/svg" width="365" height="34" viewBox="0 0 365 34">
  <g id="과학기술정보통신부" transform="translate(75.781 -1.998)">
    <g id="logo" transform="translate(-0.78 1.998)">
      <path id="패스_61000" data-name="패스 61000" d="M70.307,23.826a6.119,6.119,0,0,0-8.71,1.829,6.127,6.127,0,0,1-11.081-1.687L50.5,23.9c-.007-.023-.014-.051-.021-.079a7.876,7.876,0,0,1-.313-2.437c0-5.5,5.634-11.623,13.752-11.623a15.5,15.5,0,0,1,14.291,9.859c-.021-.065-.039-.124-.065-.187a17.5,17.5,0,0,0-34.061,5.684c0,8.648,6.232,16.051,14.875,16.051a14.057,14.057,0,0,0,13.653-9.2A6.757,6.757,0,0,0,70.307,23.826Z" transform="translate(-44.083 -7.601)" fill="#505050"/>
      <path id="패스_61001" data-name="패스 61001" d="M89.99,24.122a15.433,15.433,0,0,0-14.4-10.194c-8.117,0-13.752,6.121-13.752,11.623a7.873,7.873,0,0,0,.313,2.437,5.133,5.133,0,0,1-.162-1.25c0-5.726,5.728-9.693,11.615-9.693A14.437,14.437,0,0,1,88.035,31.489a15.924,15.924,0,0,1-8.822,14.266v0A17.524,17.524,0,0,0,90.755,29.282,17.33,17.33,0,0,0,89.99,24.122Z" transform="translate(-55.755 -11.759)" fill="#505050"/>
    </g>
    <g id="txt" transform="translate(44.22 8.997)">
      <path id="패스_61002" data-name="패스 61002" d="M190.345,53.156v2.087H178.134V53.156h3.838V46.989h2.321v6.168Zm-3.479-2.189V41.431h-8.036V39.368h10.334v11.6Zm7.254,6.147h-2.341V38.337h2.341v7.915h2.4v2.211h-2.4Z" transform="translate(-178.134 -37.956)" fill="#505050"/>
      <path id="패스_61003" data-name="패스 61003" d="M231.189,39.06v2.02H220.221V39.06h4.3V37.5h2.467v1.558ZM221,50.258h14.8v6.231h-2.319V52.321H221Zm9.111-4.821A3.593,3.593,0,0,1,229.765,47a4.314,4.314,0,0,1-.918,1.284,5.191,5.191,0,0,1-1.392.853,4.328,4.328,0,0,1-1.687.327,4.4,4.4,0,0,1-1.7-.327,4.828,4.828,0,0,1-1.382-.853A4.15,4.15,0,0,1,221.748,47a3.592,3.592,0,0,1-.348-1.558,3.53,3.53,0,0,1,.348-1.548,4.207,4.207,0,0,1,.941-1.274,4.833,4.833,0,0,1,1.382-.852,4.4,4.4,0,0,1,1.7-.327,4.321,4.321,0,0,1,1.687.327,5.189,5.189,0,0,1,1.392.852,4.358,4.358,0,0,1,.918,1.274A3.538,3.538,0,0,1,230.113,45.437Zm-2.236-.021a1.933,1.933,0,0,0-.622-1.442,2.068,2.068,0,0,0-1.487-.6,2.031,2.031,0,0,0-1.476.6,1.945,1.945,0,0,0-.611,1.442,1.986,1.986,0,0,0,.611,1.453,2.014,2.014,0,0,0,1.476.61,2.048,2.048,0,0,0,1.487-.61,1.97,1.97,0,0,0,.622-1.452Zm7.929,3.789h-2.319V37.881h2.319v4.4h2.7v2.294h-2.7Z" transform="translate(-201.212 -37.5)" fill="#505050"/>
      <path id="패스_61004" data-name="패스 61004" d="M272.47,54.651h-2.341V41.6h-7.213V39.5h9.554Zm4.706-16.314h2.34V57.114h-2.343Z" transform="translate(-224.623 -37.956)" fill="#505050"/>
      <path id="패스_61005" data-name="패스 61005" d="M312.8,48.559V47.106H305.33V45.19h17.294v1.916h-7.487v1.453h6.1v4.757H309.02v1.137h12.465v1.916H306.722V51.484h12.186V50.411H306.722V48.559Zm1.181-8.441L307.4,44.77,306,43.149l7.973-5.6,7.972,5.6-1.392,1.621Z" transform="translate(-247.881 -37.526)" fill="#505050"/>
      <path id="패스_61006" data-name="패스 61006" d="M347.345,40.885v-2h10.8v2H353.55l4.79,5.831-1.625,1.347-3.881-4.821-3.819,5.136-1.688-1.347,4.792-6.147ZM362.3,53.116a4.133,4.133,0,0,1-.39,1.778,4.848,4.848,0,0,1-2.594,2.463,5.1,5.1,0,0,1-3.806,0,4.837,4.837,0,0,1-1.562-1A4.916,4.916,0,0,1,352.9,54.9a4.252,4.252,0,0,1,0-3.557,4.918,4.918,0,0,1,1.043-1.462,4.835,4.835,0,0,1,1.562-1,5.1,5.1,0,0,1,3.806,0,4.848,4.848,0,0,1,2.594,2.463A4.137,4.137,0,0,1,362.3,53.116ZM360,53.1a2.45,2.45,0,0,0-.77-1.811,2.537,2.537,0,0,0-1.846-.758,2.476,2.476,0,0,0-1.814.758,2.552,2.552,0,0,0,0,3.632,2.5,2.5,0,0,0,1.814.747,2.559,2.559,0,0,0,1.846-.747,2.437,2.437,0,0,0,.77-1.822Zm1.562-4.8V44.232h-3.5V42.211h3.5V38.342H363.9v9.953Z" transform="translate(-270.908 -37.957)" fill="#505050"/>
      <path id="패스_61007" data-name="패스 61007" d="M403.275,42.984V40.1H405.6V50.835h-6.1v3.789h7.483v2.064h-17.29V54.624h7.466V50.835h-6.074V40.1h2.3v2.884Zm0,5.81V45h-9.9V48.79Z" transform="translate(-294.14 -38.92)" fill="#505050"/>
      <path id="패스_61008" data-name="패스 61008" d="M433.265,46.375v-7.62h14.49v1.891H435.584v.989h12.084v1.832H435.584V44.52h12.234v1.853h-6.137v1.2h7.488v1.916h-17.3V47.575h7.468v-1.2Zm11.854,7.662a3.73,3.73,0,0,1-.348,1.59,4.2,4.2,0,0,1-.961,1.316,5.238,5.238,0,0,1-1.487.905,4.925,4.925,0,0,1-5.07-.905,4.059,4.059,0,0,1-.98-1.316,3.82,3.82,0,0,1,0-3.189,4.343,4.343,0,0,1,.98-1.326,4.751,4.751,0,0,1,1.476-.894,5.117,5.117,0,0,1,3.594,0,5.066,5.066,0,0,1,1.487.894,4.528,4.528,0,0,1,.961,1.326A3.708,3.708,0,0,1,445.119,54.038Zm-2.32-.021a2.121,2.121,0,0,0-.675-1.579,2.23,2.23,0,0,0-1.6-.653,2.263,2.263,0,0,0-1.613.653,2.1,2.1,0,0,0-.684,1.579,2.133,2.133,0,0,0,.684,1.59,2.247,2.247,0,0,0,1.613.663,2.213,2.213,0,0,0,1.6-.663,2.154,2.154,0,0,0,.673-1.591Z" transform="translate(-317.27 -38.185)" fill="#505050"/>
      <path id="패스_61009" data-name="패스 61009" d="M479.346,38.1l5.926,9.578-1.9,1.179-4.028-6.737L475.339,49,473.4,47.829ZM474.94,56.608V50.331h2.321v4.213h13.1v2.064Zm12.908-6.379V38.209h2.342v12.02Z" transform="translate(-340.04 -37.829)" fill="#505050"/>
      <path id="패스_61010" data-name="패스 61010" d="M516.233,50.589h17.3v2.063h-7.485v4.842H523.7V52.653h-7.465Zm3.691-9.177h9.892V39.033h2.321v9.028H517.625V39.033h2.3Zm9.892,2.021h-9.892v2.59h9.892Z" transform="translate(-363.528 -38.337)" fill="#505050"/>
    </g>
  </g>
  <rect id="영역" width="365" height="34" transform="translate(0 0)" fill="#505050" opacity="0"/>
</svg>
