<svg id="logo_카이스트" xmlns="http://www.w3.org/2000/svg" width="365" height="34" viewBox="0 0 365 34">
  <rect id="영역" width="365" height="34" fill="#505050" opacity="0"/>
  <g id="카이스트" transform="translate(123 1)">
    <g id="txt" transform="translate(6 -1)">
      <path id="ka" d="M47.4,0,38.264,16.2,29.556,9,40.445,0H33.069L22.749,8.545V0H16.292V18h6.457V9.455L33.069,18H43.813l7.4-13.575,5.37,9.981H48.042L50.069,18h15.1L55.018,0Z" transform="translate(-16.292)" fill="#505050"/>
      <rect id="i" width="6.458" height="18" transform="translate(50.771)" fill="#505050"/>
      <path id="s" d="M97.978,7.125h-5.4c-1.434,0-2.6-.44-2.6-1.689s1.163-1.688,2.6-1.688h11.608V0H91.813C87.2,0,83.449,1.974,83.449,5.436s3.745,5.437,8.364,5.437h5.554c1.434,0,2.594.439,2.594,1.689S98.8,14.25,97.367,14.25H84.346V18H97.978c4.618,0,8.364-1.97,8.364-5.435s-3.745-5.44-8.364-5.44" transform="translate(-21.682)" fill="#505050"/>
      <path id="t" d="M109.027,0V3.748h8.125V18h6.458V3.748h8.125V0Z" transform="translate(-23.735)" fill="#505050"/>
    </g>
    <path id="color" d="M0,36.235a450.308,450.308,0,0,0,60,4,450.323,450.323,0,0,0,60-4,451.954,451.954,0,0,0-120,0" transform="translate(0 -7.235)" fill="#505050"/>
  </g>
</svg>
