<svg id="logo_교육부" xmlns="http://www.w3.org/2000/svg" width="365" height="34" viewBox="0 0 365 34">
  <g id="교육부" transform="translate(130.244)">
    <g id="logo" transform="translate(-0.244)">
      <path id="패스_1" data-name="패스 1" d="M26.218,16.227a6.117,6.117,0,0,0-8.711,1.831A6.124,6.124,0,0,1,6.43,16.371c-.007-.024-.01-.041-.017-.065s-.014-.051-.021-.079a7.918,7.918,0,0,1-.312-2.438c0-5.5,5.636-11.623,13.751-11.623a15.484,15.484,0,0,1,14.292,9.857l-.062-.185A17.5,17.5,0,0,0,0,17.523c0,8.65,6.232,16.056,14.874,16.056a14.06,14.06,0,0,0,13.652-9.2A6.757,6.757,0,0,0,26.218,16.227Z" fill="#505050"/>
      <path id="패스_2" data-name="패스 2" d="M36.742,13.258a15.436,15.436,0,0,0-14.4-10.2C14.226,3.059,8.59,9.182,8.59,14.681A7.932,7.932,0,0,0,8.9,17.119a5.1,5.1,0,0,1-.161-1.251c0-5.726,5.728-9.7,11.614-9.7A14.437,14.437,0,0,1,34.784,20.619a15.924,15.924,0,0,1-8.817,14.269l0,0A17.551,17.551,0,0,0,36.742,13.258Z" transform="translate(-2.513 -0.892)" fill="#505050"/>
    </g>
    <g id="txt" transform="translate(44.756 7)">
      <path id="패스_3" data-name="패스 3" d="M65.8,30.765V24.724h2.26v6.041h3.2V24.724h2.279v6.041h5.7v2.114H61.6V30.765Zm9.643-3.423V18.011H63.023V15.85H77.83V27.342Z" transform="translate(-61.6 -14.365)" fill="#505050"/>
      <path id="패스_4" data-name="패스 4" d="M100.046,28.341v6H97.658V30.412H84.787V28.341h3.054l.019-2.266H83.815V23.98h17.65v2.095H97.4v2.266Zm-2.669-9.507a4,4,0,0,1-.385,1.723A5.3,5.3,0,0,1,95.981,22a5.161,5.161,0,0,1-1.508.947,4.727,4.727,0,0,1-1.828.357,4.79,4.79,0,0,1-1.837-.357A5.148,5.148,0,0,1,89.289,22a5.3,5.3,0,0,1-1.01-1.438,4.046,4.046,0,0,1,0-3.447,5.3,5.3,0,0,1,1.01-1.438,4.932,4.932,0,0,1,3.355-1.333,4.625,4.625,0,0,1,1.828.362,4.9,4.9,0,0,1,1.508.971,5.3,5.3,0,0,1,1.01,1.438A4,4,0,0,1,97.376,18.834Zm-7.34,9.507H95.2V26.075H90.055Zm5-9.507a2.253,2.253,0,0,0-.7-1.666,2.325,2.325,0,0,0-1.692-.686,2.369,2.369,0,0,0-1.7.686,2.227,2.227,0,0,0-.71,1.666,2.265,2.265,0,0,0,.71,1.681,2.418,2.418,0,0,0,3.393,0A2.292,2.292,0,0,0,95.031,18.834Z" transform="translate(-62.245 -14.34)" fill="#505050"/>
      <path id="패스_5" data-name="패스 5" d="M106.246,27.141H123.9v2.138h-7.641V34.3h-2.388V29.279h-7.617V27.141Zm3.769-9.507h10.093V15.168h2.368v9.36H107.67V15.173h2.345Zm10.093,2.095H110.015v2.68h10.093Z" transform="translate(-62.896 -14.353)" fill="#505050"/>
    </g>
  </g>
  <rect id="영역" width="365" height="34" fill="#505050" opacity="0"/>
</svg>
