<svg id="logo_한국과학창의재단" xmlns="http://www.w3.org/2000/svg" width="365" height="34" viewBox="0 0 365 34">
  <g id="한국과학창의재단" transform="translate(87)">
    <g id="logo">
      <path id="color" d="M0,28.9V5.1C0,2.287,2.911,0,6.5,0S13,2.284,13,5.1V28.9c0,2.816-2.911,5.1-6.5,5.1S0,31.718,0,28.9" fill="#505050" fill-rule="evenodd"/>
      <path id="color-2" data-name="color" d="M31.045,28.9V22.485l5.569,6.944.873-.766-6.322-7.881,7.8,6.263.693-.945-7.8-6.263,8.913,4.348.481-1.079-8.913-4.348,9.6,2.227.246-1.163-9.6-2.226H42.42V16.4H32.586l9.6-2.226-.246-1.163-9.6,2.227,8.913-4.348-.481-1.08-8.913,4.348,7.8-6.263-.693-.945-7.8,6.263,6.322-7.881-.872-.766-5.569,6.944V5.1c0-2.816,2.91-5.1,6.5-5.1s6.5,2.284,6.5,5.1V28.9c0,2.816-2.911,5.1-6.5,5.1s-6.5-2.282-6.5-5.1" transform="translate(-14.045)" fill="#505050" fill-rule="evenodd"/>
    </g>
    <g id="txt" transform="translate(0 -3)">
      <path id="kor" d="M84.427,24.343V13.648c0-1.312-.954-.731-1.412-1.239s.686-.66,1.036-.6a22.851,22.851,0,0,1,2.61.361c0,.424-.245,1.071-.245,1.509v2.74a1.449,1.449,0,0,0,.734-.345c.678,0,2.6.071,2.49.954-.081.669-1.494.47-2.275.47h-.948v6.843Zm109.863,0V13.689c0-1.312-.955-.732-1.412-1.239s.72-.611,1.036-.6a22.654,22.654,0,0,1,2.609.36c0,.425-.235,1.084-.236,1.522v3.549a1.676,1.676,0,0,0,.747-.384,5.121,5.121,0,0,1,2.043.257,1.3,1.3,0,0,1,.436.25.37.37,0,0,1,.134.265c0,.277-.415.528-.953.583a18.612,18.612,0,0,1-2.407.058v6.031Zm-61.777-2.69V13.689c0-1.312-.955-.732-1.412-1.239-.22-.244-.048-.424.253-.516a2.494,2.494,0,0,1,.783-.082,22.648,22.648,0,0,1,2.61.36c0,.425-.245,1.071-.245,1.509v3.524a1.587,1.587,0,0,0,.733-.345c.678,0,2.6.071,2.49.954-.081.669-1.495.47-2.275.47H134.5v3.33Zm15.717-.614v-7.35c0-1.312-.954-.732-1.412-1.239-.22-.244-.048-.424.252-.516a1.919,1.919,0,0,1,.315-.064,2.981,2.981,0,0,1,.353-.02l.115,0a22.57,22.57,0,0,1,2.61.361c0,.424-.245,1.071-.245,1.509v3.523a1.523,1.523,0,0,0,.734-.345,4.8,4.8,0,0,1,2.052.326c.289.144.472.348.438.629-.081.669-1.495.47-2.276.47h-.948v2.715Zm-43.344-1.844a.578.578,0,0,0,.334-.8c-.263-.545-2.207-.64-2.619-.64a1.7,1.7,0,0,1-.849.378c-3.1.067-5.967.051-9.047-.006-.659-.011-2.937-.228-3.25-.145-.731.194-.5.558-.015.852a5.1,5.1,0,0,0,2.324.668,1.522,1.522,0,0,1,.74-.3l3.3-.057v2.744l-.587-.008-3.9-.086c-1.443.419,1.142,1.371,1.8,1.371a6.783,6.783,0,0,0,.673-.188,51.133,51.133,0,0,1,5.561-.014v4.3h2.106l0-5.49c-.334.017-.668.085-1,.085l-2.606-.005v-2.71c1.588,0,3.213,0,4.691.088a10.6,10.6,0,0,0,2.343-.041m13.142-1.138a1.138,1.138,0,0,0,.781-.34c.678,0,2.516.061,2.409.944-.081.669-1.494.47-2.275.47h-.914v8.137h-2V13.689c0-1.312-.954-.732-1.412-1.239-.22-.244-.048-.424.252-.516a2.5,2.5,0,0,1,.783-.082,22.663,22.663,0,0,1,2.61.36c0,.425-.237,1.092-.236,1.53Zm14.492,9.2V23.55c-1.117-.034-3.478-.117-4.654-.012a1.7,1.7,0,0,0-.856.224,2.844,2.844,0,0,1-.832-.147c-.94-.283-2.16-.907-1.067-1.225.332-.1,2.109.075,2.782.079l6.612-.077v4.867Zm34.106-13.538V27.268h-1.989V13.689c0-1.312-.954-.732-1.412-1.239-.223-.247-.042-.425.252-.516a8.373,8.373,0,0,1,3.025.216,2.037,2.037,0,0,0,.368.038c0,.521-.245,1.017-.245,1.534m13.963,4.6h-1.519l0,7.54h-1.954V14.181c0-1.351-.905-.724-1.329-1.241-.411-.5.615-.612.981-.6.511.022,1.419.211,1.972.3a4.349,4.349,0,0,0,.568.068c0,.436-.242,1.048-.242,1.5V17.3h1.519l.009-3.57a1.566,1.566,0,0,0-.107-.663c-.24-.418-1.478-.386-1.285-.891.242-.633,2.043-.228,2.955-.054a3.226,3.226,0,0,0,.624.068c0,.437-.245,1.084-.245,1.534V27.268h-1.951ZM112.1,21.62c-.593-.1-.656-.51-.6-1,.045-.434.145-1.044.226-1.665.126-.968.3-2.356.428-4,.035-.453-.08-.4-.657-.41a23.9,23.9,0,0,0-3.04.056,1.434,1.434,0,0,0-.77.248,3.108,3.108,0,0,1-1.21-.3c-.879-.377-1.69-1-.643-1.229a3.187,3.187,0,0,1,.732.037l1.972.136,3.77-.064a2.127,2.127,0,0,1,.566-.175,1.975,1.975,0,0,1,.81.21,1.05,1.05,0,0,1,.664,1.341c-.084.319-.178.881-.29,1.549a24.1,24.1,0,0,1-.945,4.453c-.185.439-.472.911-1.008.822m-4.538,1.146.59-.013V18.887c0-.7-.44-.684-.757-.736s-.546-.092-.448-.415c.181-.588,1.652-.371,2.579-.225a5.46,5.46,0,0,0,.852.089l-.218,1.152v3.884c1.582-.131,3.31-.206,4.836-.456.836-.137.886.72.207.87a39.54,39.54,0,0,1-6.162.714c-.482.03-.968.061-1.448.094a7.336,7.336,0,0,1-.784.25c-.419,0-3.324-.943-1.9-1.435a16.984,16.984,0,0,1,2.652.093m-5.527-8.522c-.211.826-.927,2.956-1.734,3.506a1.157,1.157,0,0,1-.826.1.7.7,0,0,1-.467-.832,24.388,24.388,0,0,0,.678-2.736c.057-.358-.12-.336-.451-.36a30.05,30.05,0,0,0-5.071.089,6.759,6.759,0,0,1-.77.235c-.64,0-3.336-1.186-1.751-1.588a13.523,13.523,0,0,1,1.5.064,62.4,62.4,0,0,0,6.739.007c.15-.023.732-.214.954-.253a1.254,1.254,0,0,1,1.481,1.191c-.009.163-.273.249-.278.577m-22.8.1a11.064,11.064,0,0,1,.188-1.689l.039-.328c-.814-.033-1.61-.236-2.435-.262-.79-.025-1.165.662-.309.842.66.138.51.937.493,1.454l-1.957-.038a13.951,13.951,0,0,0-2.166-.1c-.316.092-.438.207-.438.331,0,.423,1.474.947,1.74.994a1.506,1.506,0,0,0,1.265-.141,45.513,45.513,0,0,1,4.894-.026c.962.031,2.869.324,3.012-.427.168-.875-1.834-.981-2.443-.981a2.687,2.687,0,0,1-1.883.374m-1.965,8.832c-.093.259.293.426.477.457.913.157.935.345,1,.895l-.027,1.59c-.05.585.091,1.062,1.306,1.141a64.61,64.61,0,0,0,7.257-.009c.7-.058.841-.835.255-1.09a7.429,7.429,0,0,0-2.273-.333,1.353,1.353,0,0,1-.515.282,17.762,17.762,0,0,1-2.891.049c-.78-.009-.933-.049-.966-.345a5.67,5.67,0,0,1,.132-2.732l-2.611-.234c-.432-.035-1.053.072-1.145.328m4.906-4.7c0,3.4-5.785,4.193-7.545,1.285-1.482-2.45,1.659-5.076,5-4.1a3.141,3.141,0,0,1,2.543,2.811m-2.158,0a1.789,1.789,0,1,0-3.574,0,1.8,1.8,0,1,0,3.574,0m93.244,1.269a16.6,16.6,0,0,1,2.09,3.8.836.836,0,0,0,1.282.175c.4-.384.164-1.736.022-2.066-.378-.875-1.844-2.031-2.758-2.872a18.758,18.758,0,0,0,1.43-2.48,5.006,5.006,0,0,0,.532-1.446,1.271,1.271,0,0,0-.353-.91,1.664,1.664,0,0,0-1.1-.543c-.253-.013-.54.241-.684.253a17.132,17.132,0,0,1-4.1-.123c-1.135-.143-1.337.52-.657,1.055,1.648,1.3,1.43.549,2.107.459.131-.017,2-.2,2.17.1.322.585-1.094,3.009-1.447,3.628a12.8,12.8,0,0,1-3.714,4.338c-.917.574.049,1.266.908.758a14.011,14.011,0,0,0,4.271-4.129m-12.131,3.484a23.389,23.389,0,0,0,2.95-.578c.531-.16.394-.977-.372-.857a48.994,48.994,0,0,1-8.339.776,9.27,9.27,0,0,0-2.023-.089c-1.449.49,1.512,1.514,1.879,1.514a6.386,6.386,0,0,0,.767-.265c1.77-.133,3.454-.261,5.138-.5M157.5,13.58c-4.775.962-3.831,6.917,1.064,6.917,4.963,0,5.918-5.952,1.1-6.918.126-.768-.093-1.382-1.1-1.416-1.079-.037-1.262.648-1.057,1.417m3.2,3.338a2.111,2.111,0,1,1-4.2,0,2.108,2.108,0,1,1,4.2,0m-17.975,1.22a10.011,10.011,0,0,1,2.709,2.47c.549.732,1.71.306,1.71-.847,0-.723-2.5-1.764-3.658-2.278A9.647,9.647,0,0,0,145.2,15.4c.452-.78.285-1.141-.226-1.365-.272-.12-.5-.181-.751-.277a3.551,3.551,0,0,1-1.384.209l.2-1.535-.46-.1a7.481,7.481,0,0,0-2-.237c-1.105.073-.756.725-.233.835.547.115.466.629.455,1.047-.312,0-.611-.011-.924-.033a11.593,11.593,0,0,0-1.943-.062c-.53.147-.526.382-.277.62a3.9,3.9,0,0,0,2.055.8c.549-.077-.075-.262,1.932-.325,1.743-.055,1.518.074.116,1.727A14.475,14.475,0,0,1,137,20.391c-.994.49-.093,1.042.851.693a13.467,13.467,0,0,0,4.872-2.946m7.63,6.508c0-2.592-3.6-3.953-6.24-2.76-1.693.764-2.649,2.45-1.7,4.043a4.37,4.37,0,0,0,3.833,1.869,5.048,5.048,0,0,0,2.83-.809,2.779,2.779,0,0,0,1.277-2.343m-2.1,0a2.032,2.032,0,1,1-4.064,0,2.032,2.032,0,1,1,4.064,0M127.318,14.155c.014-.666.226-1.423.226-1.853a4.084,4.084,0,0,1-.464-.05,18.915,18.915,0,0,0-1.971-.212c-.79-.025-1.166.662-.309.842.619.129.506.814.492,1.293a24.515,24.515,0,0,1-3.52-.177c-1.395-.194-1.453.806.684,1.305a1.313,1.313,0,0,0,1.047-.052,26.686,26.686,0,0,1,4.911-.1c1.019.034,3.089.334,3.23-.4.156-.814-1.854-.964-2.443-.964a2.7,2.7,0,0,1-1.883.374m2.884,4.082a3.084,3.084,0,0,0-2.5-2.773c-3.36-.944-6.383,1.619-4.942,4.045,1.664,2.8,7.441,2.129,7.441-1.272m-2.158,0a1.741,1.741,0,1,1-3.461,0,1.736,1.736,0,1,1,3.461,0M185.5,20.885a7.759,7.759,0,0,0,3.09-.07,28.427,28.427,0,0,0,4.981-1.266c.593-.289.466-.848-.176-.851a14.461,14.461,0,0,0-1.878.381,27.722,27.722,0,0,1-3.626.482c-1.089.025-1.089-.236-1.089-1.291v-3.7l3.448-.025c.644.021,2.125.285,2.216-.518.107-.944-1.735-.971-2.542-1a1.525,1.525,0,0,1-.765.348,29.452,29.452,0,0,1-4.795-.082c-.839,0-.911.8-.12,1.011.488.132.4.436.447,1.218l-.007,4.14c0,.815.248,1.025.815,1.224M197.388,26.2a7.818,7.818,0,0,0-2.336-.35,1.3,1.3,0,0,1-.819.348c-.739.039-1.939.009-2.568,0-.757-.01-.952-.01-.952-.345V23.79c0-.662.162-.644.136-1.158l-1.369-.144c-.533-.058-1.4-.089-1.922-.088-.487,0-.551.194-.553.328-.006.39.484.456.942.583a1,1,0,0,1,.417.186.914.914,0,0,1,.122.538v1.752c0,.944.111,1.434,1.345,1.514.612.04,6.279.073,7.294-.009.716-.057.866-.834.263-1.09" transform="translate(-32.646 -5.798)" fill="#505050" fill-rule="evenodd"/>
      <path id="eng" d="M126.752,47.07v4.676h.574V48.884c0-1.185.859-1.43,1.17-1.206v-.7a1.049,1.049,0,0,0-1.207.857V47.07Zm-2.674,2.338c0-.661-.038-1.9.832-1.9s.831,1.236.831,1.9.033,1.905-.831,1.905-.833-1.245-.832-1.905m-.619,0c0,1.242.192,2.463,1.451,2.463s1.457-1.215,1.457-2.463-.192-2.471-1.457-2.471c-1.239,0-1.451,1.255-1.451,2.471M122.373,47.6h-.582V47.07h.582c0-.835-.092-1.614.979-1.614l.243.033v.583c-.769-.193-.626.453-.626,1h.626V47.6h-.626v4.143h-.6Zm-4.656-.533v4.676h.582v-3.17a1.148,1.148,0,0,1,.225-.749.661.661,0,0,1,1.2.482v3.436h.582V48.36a1.868,1.868,0,0,0-.232-1.077,1.119,1.119,0,0,0-1.815.37V47.07Zm-2.674,2.338c0-.661-.038-1.9.832-1.9s.832,1.236.832,1.9.033,1.905-.832,1.905-.832-1.245-.832-1.905m-.618,0c0,1.242.192,2.463,1.45,2.463s1.458-1.215,1.458-2.463-.192-2.471-1.458-2.471c-1.239,0-1.451,1.255-1.45,2.471m-.974,2.338h.6V47.07h-.6Zm0-5.408h.6v-.849h-.6Zm-.976,4.4v-3.13h.67V47.07h-.67V45.823h-.567V47.07h-.574v.541h.574v3.446c0,.822.654.724,1.237.724v-.574c-.436,0-.67.046-.67-.466m-.877,1.013c-.512.077-.846.029-.876-.632-.413,1.114-1.928,1.053-1.928-.558,0-1,.334-1.114,1.244-1.539.7-.33.633-.424.632-.99,0-.366-.2-.55-.611-.55-.459,0-.611.321-.611.824H108.9c.018-.9.325-1.373,1.222-1.373.832,0,1.133.429,1.133,1.256v2.738c0,.346.128.324.338.324Zm-.912-2.529c-.512.578-1.311.2-1.311,1.331,0,1.156,1.311.928,1.311-.408Zm-2.807,2.521h.545V45.489h-.582v2.063a.883.883,0,0,0-.89-.59c-1.644,0-1.412,3.31-.95,4.222a.992.992,0,0,0,1.877-.029Zm0-2.371a3.956,3.956,0,0,1-.188,1.448.631.631,0,0,1-1.2-.021c-.235-.58-.469-3.257.612-3.257.774,0,.78,1,.78,1.83m-5.17-2.3v4.676h.582v-3.17a1.15,1.15,0,0,1,.225-.749.661.661,0,0,1,1.2.482v3.436h.582V48.36a1.862,1.862,0,0,0-.233-1.077,1.119,1.119,0,0,0-1.814.37V47.07Zm-1.069,4.068v.608h.538V47.07h-.589v3.1a1.292,1.292,0,0,1-.233.824c-.383.482-1.137.4-1.137-.316V47.07h-.6v3.594a1.425,1.425,0,0,0,.24.92,1.1,1.1,0,0,0,1.785-.445m-4.683-1.731c0-.661-.038-1.9.832-1.9s.832,1.236.832,1.9.033,1.905-.832,1.905-.832-1.245-.832-1.905m-.618,0c0,1.242.191,2.463,1.45,2.463s1.457-1.215,1.457-2.463-.191-2.471-1.457-2.471c-1.239,0-1.45,1.255-1.45,2.471m-2.467-3.919h2.554v.633H94.5v2.013h1.517v.649H94.5v2.962h-.633Zm-1.733,6.265v-.5c-.21,0-.339.022-.339-.324V48.193c0-.827-.3-1.256-1.133-1.256-.9,0-1.2.475-1.222,1.373h.545c0-.5.151-.824.611-.824q.611,0,.612.55c0,.566.071.659-.634.99-.909.427-1.244.541-1.244,1.539,0,1.611,1.516,1.671,1.928.558.03.661.363.709.876.632m-.913-2.529v.923c0,1.335-1.311,1.564-1.311.408,0-1.127.8-.753,1.311-1.331m-2.173.94h-.567c0,.507-.114,1.157-.663,1.157-.781,0-.751-1.15-.751-1.889H89.06c0-.049.007-.1.007-.157,0-1.348-.25-2.338-1.273-2.338a1.054,1.054,0,0,0-1,.608,5.793,5.793,0,0,0,0,3.743c.493.907,2.241.966,2.26-1.123M88.478,48.9H87.072a2.438,2.438,0,0,1,.181-1.077c.212-.405,1.225-.872,1.225,1.077m-3.645-1.83h.537v.766a1.05,1.05,0,0,1,1.207-.857v.7c-.311-.225-1.17.022-1.17,1.206v2.862h-.575Zm-2.674,2.338c0-.661-.038-1.9.832-1.9s.832,1.236.832,1.9.033,1.905-.832,1.905-.832-1.245-.832-1.905m-.618,0c0,1.242.191,2.463,1.45,2.463s1.458-1.215,1.458-2.463-.192-2.471-1.458-2.471c-1.239,0-1.45,1.255-1.45,2.471m-3.307-3.919h.611V48.5l2-3.012h.714l-1.722,2.529,1.848,3.728h-.751l-1.509-3.12-.582.857v2.263h-.611Zm108.642,6.259h.6V47.073h-.6Zm0-5.407h.6v-.849h-.6Zm-.429,3.76h-.566a1.869,1.869,0,0,1-.181.885.607.607,0,0,1-.868.2c-.6-.412-.5-2.63-.25-3.232.254-.619,1.223-.708,1.27.582h.567c0-.862-.343-1.589-1.252-1.589-1.813,0-1.52,3.476-1.06,4.318.548,1,2.341.918,2.341-1.165m-5.61-.341c0,.878.176,1.514,1.03,1.514,1.027,0,1.191-1.324.824-1.847-.605-.862-2.362-.377-2.362-2.346a1.519,1.519,0,0,1,2.573-1.314,1.99,1.99,0,0,1,.371,1.339h-.567c0-1.356-1.106-1.376-1.553-.895a1.361,1.361,0,0,0-.081,1.435c.443.656,1.922.519,2.278,1.623.322,1,.023,2.621-1.549,2.621-1.307,0-1.553-.941-1.553-2.13ZM177.471,47.6v4.143h.6V47.6h.626v-.532h-.626c0-.546-.144-1.192.626-1v-.582l-.243-.034c-1.072,0-.978.779-.978,1.615h-.582V47.6Zm-2.829,1.806c0,.66-.038,1.9.832,1.9s.832-1.253.832-1.9.038-1.9-.832-1.9-.832,1.235-.832,1.9m-.618,0c0-1.217.21-2.471,1.45-2.471,1.266,0,1.458,1.225,1.458,2.471s-.192,2.462-1.458,2.462-1.45-1.221-1.45-2.462m-1.98,1.373V47.613h.67v-.54h-.67V45.825h-.567v1.248H170.9v.54h.574V51.1c0,.822.654.724,1.237.724v-.575c-.436,0-.67.046-.67-.465m-3.877-3.71v4.675h.582v-3.17a1.146,1.146,0,0,1,.225-.749.661.661,0,0,1,1.2.482v3.436h.582V48.362a1.867,1.867,0,0,0-.232-1.078,1.12,1.12,0,0,0-1.815.371v-.582Zm-.4,3.094H167.2c0,.507-.114,1.157-.662,1.157-.781,0-.752-1.15-.752-1.888h1.988c0-.05.007-.1.007-.158,0-1.347-.251-2.338-1.274-2.338a1.053,1.053,0,0,0-1,.607,5.8,5.8,0,0,0,0,3.744c.5.911,2.241.96,2.26-1.124m-.574-1.264h-1.407a2.438,2.438,0,0,1,.181-1.078c.212-.405,1.226-.872,1.226,1.078m-6.995-1.83v4.675h.567V48.462a.933.933,0,0,1,.238-.657c.206-.22,1.211-.729,1.211.691v3.253h.6V48.5c0-1.024,1.257-1.326,1.391-.449.082.53.03,3.005.03,3.7h.6V48.112a1.092,1.092,0,0,0-2.112-.466c-.272-1.009-1.557-.834-1.98-.008v-.565Zm-.4,3.094h-.567c0,.507-.114,1.157-.662,1.157-.781,0-.751-1.15-.751-1.888h1.988c0-.05.006-.1.006-.158,0-1.347-.25-2.338-1.273-2.338a1.054,1.054,0,0,0-1,.607,5.8,5.8,0,0,0,0,3.744c.493.906,2.241.966,2.26-1.124m-.575-1.264H157.82A2.437,2.437,0,0,1,158,47.825c.212-.405,1.225-.872,1.225,1.078m-2.32,1.2h-.567a1.861,1.861,0,0,1-.181.885.607.607,0,0,1-.868.2c-.6-.412-.5-2.631-.25-3.232.254-.619,1.222-.708,1.27.582h.567c0-.862-.343-1.589-1.251-1.589-1.813,0-1.52,3.476-1.06,4.318.548,1,2.342.919,2.342-1.165m-5.648-3.028h.545v.582a1.12,1.12,0,0,1,1.815-.371,1.873,1.873,0,0,1,.232,1.078v3.386h-.581V48.312a.662.662,0,0,0-1.2-.482,1.15,1.15,0,0,0-.224.749v3.17h-.582Zm-.215,4.683v-.5c-.21,0-.338.022-.338-.324V48.2c0-.827-.3-1.256-1.134-1.256-.9,0-1.2.475-1.222,1.372h.545c0-.5.151-.823.611-.823.408,0,.611.183.611.549,0,.566.072.659-.633.99-.91.427-1.244.541-1.244,1.54,0,1.61,1.515,1.671,1.928.557.03.661.363.709.876.632m-.913-2.529v.923c0,1.336-1.31,1.564-1.31.408,0-1.127.8-.753,1.31-1.331m-4.717-2.154h.633l.809,3.668.847-3.668h.6l-1.148,4.675h-.626Zm-.708,4.675v-.591a.992.992,0,0,1-1.877.029c-.462-.912-.694-4.221.949-4.221a.884.884,0,0,1,.891.59V45.492h.582v6.256Zm0-2.371c0-.83-.006-1.83-.781-1.83-1.079,0-.846,2.678-.611,3.257a.632.632,0,0,0,1.2.021,3.973,3.973,0,0,0,.188-1.448m-4.417-3.885-1.509,6.256h.626l.4-1.805h1.752l.42,1.805h.625l-1.531-6.256Zm1.133,3.818h-1.473l.737-3.277Zm-4.122.857h-.567c0,.507-.114,1.157-.663,1.157-.78,0-.75-1.15-.75-1.888h1.987a1.413,1.413,0,0,0,.008-.158c0-1.347-.251-2.338-1.274-2.338a1.054,1.054,0,0,0-1,.607,5.8,5.8,0,0,0,0,3.744c.493.907,2.242.965,2.261-1.124m-.575-1.264h-1.406a2.449,2.449,0,0,1,.18-1.078c.211-.405,1.226-.872,1.226,1.078m-4.963-3.411v6.256h.582v-3.17a1.125,1.125,0,0,1,.232-.749c.293-.347,1.2-.581,1.2.516v3.4h.582V48.029a1.048,1.048,0,0,0-2.01-.449V45.492Zm94.609,7.163v.59a1.084,1.084,0,0,0,.211.058,1.436,1.436,0,0,0,.245.022.859.859,0,0,0,.754-.393,3.082,3.082,0,0,0,.381-.976l1.274-4.883h-.6l-.912,3.768-.884-3.768h-1.225V45.825h-.567v1.248h-.574v.54h.574v3.432c0,.822.654.724,1.237.724v-.574c-.235,0-.594.062-.652-.225-.063-.318-.018-2.832-.018-3.356h.739l1.075,4.177a4.728,4.728,0,0,1-.144.458c-.167.437-.471.626-.917.407M218.9,50.728V47.613h.67v-.54h-.67V45.825h-.567v1.248h-.574v.54h.574v3.432c0,.822.653.724,1.237.724v-.574c-.436,0-.67.045-.67-.466m4.781,1.02h.6V47.073h-.6Zm0-5.407h.6v-.849h-.6Zm-3.071.732,1.119,4.675h.625l1.149-4.675h-.6l-.847,3.668-.81-3.668Zm-.767,4.675h.6V47.073h-.6Zm0-5.407h.6v-.849h-.6Zm-1.936,5.415c-.512.077-.846.029-.875-.632-.413,1.114-1.929,1.054-1.929-.557,0-1,.335-1.113,1.244-1.54.7-.331.633-.424.633-.99,0-.366-.2-.55-.612-.549-.459,0-.611.32-.611.823h-.545c.018-.9.325-1.372,1.222-1.372.831,0,1.133.429,1.133,1.256v2.737c0,.346.129.324.338.324Zm-.912-2.529c-.512.578-1.311.2-1.311,1.331,0,1.156,1.311.928,1.311-.408Zm-2.174.94c-.019,2.089-1.767,2.031-2.26,1.124a5.8,5.8,0,0,1,0-3.744,1.054,1.054,0,0,1,1-.607c1.023,0,1.274.991,1.274,2.338a1.41,1.41,0,0,1-.008.158H212.84c0,.738-.03,1.888.752,1.888.548,0,.663-.65.663-1.156Zm-.574-1.264c0-1.95-1.014-1.483-1.226-1.078a2.445,2.445,0,0,0-.181,1.078Zm-3.646-1.83v4.675h.575V48.886c0-1.185.859-1.43,1.17-1.206v-.7a1.048,1.048,0,0,0-1.207.857v-.765Zm-.494,2.379H209.5c0,2.306-1.468,2.02-1.825,1.19a7.974,7.974,0,0,1,0-4.064c.425-1.056,1.807-.792,1.807.753h.6c0-1.123-.419-1.989-1.583-1.989-1.643,0-1.722,1.986-1.722,3.3,0,1.482.177,3.261,1.678,3.261,1.3,0,1.648-1.187,1.664-2.446M204.1,51.141l.382.608h.714l-.743-1.215a3.742,3.742,0,0,0,.42-1.7h-.589a5.274,5.274,0,0,1-.176,1.156l-1.06-1.747a1.856,1.856,0,0,0,.92-1.564,1.089,1.089,0,0,0-1.881-.852,1.967,1.967,0,0,0,.225,2.333,2.083,2.083,0,0,0-1.105,1.864c0,1.872,1.905,2.455,2.894,1.114m-1.517-2.512,1.215,2c-1.1,1.747-3.075-.622-1.215-2m.2-.832a3.276,3.276,0,0,1-.309-.595c-.166-.432-.185-1.152.4-1.152.729,0,.672,1.175-.088,1.747m-3.329,2.371h-.566c0,.507-.115,1.157-.663,1.157-.781,0-.751-1.15-.751-1.888h1.988c0-.05.007-.1.007-.158,0-1.347-.251-2.338-1.274-2.338a1.054,1.054,0,0,0-1,.607,5.8,5.8,0,0,0,0,3.744c.493.906,2.241.966,2.26-1.124m-.574-1.264h-1.406a2.439,2.439,0,0,1,.18-1.078c.212-.405,1.226-.872,1.226,1.078m-2.32,1.2h-.567a1.87,1.87,0,0,1-.181.885.608.608,0,0,1-.869.2c-.6-.412-.5-2.631-.25-3.232.253-.619,1.222-.709,1.269.582h.567c0-.862-.343-1.589-1.252-1.589-1.813,0-1.519,3.476-1.06,4.318.548,1,2.341.919,2.341-1.165m-5.647-3.028h.545v.582a1.12,1.12,0,0,1,1.815-.371,1.868,1.868,0,0,1,.232,1.078v3.386h-.582V48.312a.661.661,0,0,0-1.2-.482,1.15,1.15,0,0,0-.225.749v3.17h-.581Zm-.4,3.094h-.567c0,.507-.114,1.157-.663,1.157-.78,0-.75-1.15-.75-1.888h1.987a1.417,1.417,0,0,0,.008-.158c0-1.348-.251-2.338-1.274-2.338a1.054,1.054,0,0,0-1,.607,5.8,5.8,0,0,0,0,3.744c.493.907,2.241.965,2.261-1.124m-.575-1.264H188.53a2.45,2.45,0,0,1,.18-1.078c.212-.405,1.226-.872,1.226,1.078m-59.11,1.84V47.613h.67v-.54h-.67V45.825h-.567v1.248h-.574v.54h.574v3.446c0,.822.653.724,1.237.724v-.574c-.436,0-.67.046-.67-.466" transform="translate(-38.235 -19.326)" fill="#505050" fill-rule="evenodd"/>
    </g>
  </g>
  <rect id="영역" width="365" height="34" fill="#505050" opacity="0"/>
</svg>
