<svg xmlns="http://www.w3.org/2000/svg" xmlns:xlink="http://www.w3.org/1999/xlink" width="60" height="60" viewBox="0 0 60 60">
  <defs>
    <linearGradient id="linear-gradient" x1="0.5" x2="0.5" y2="1" gradientUnits="objectBoundingBox">
      <stop offset="0" stop-color="#fee411"/>
      <stop offset="0.052" stop-color="#fedb16"/>
      <stop offset="0.138" stop-color="#fec125"/>
      <stop offset="0.248" stop-color="#fe983d"/>
      <stop offset="0.376" stop-color="#fe5f5e"/>
      <stop offset="0.5" stop-color="#fe2181"/>
      <stop offset="1" stop-color="#9000dc"/>
    </linearGradient>
  </defs>
  <g id="instagram_btn" transform="translate(-1022 -7914)">
    <circle id="box" cx="30" cy="30" r="30" transform="translate(1022 7914)" fill="#fff"/>
    <path id="instagram_icon" d="M18487.311,12151.665a8.658,8.658,0,0,1-8.654-8.647v-10.7a8.655,8.655,0,0,1,8.654-8.648h10.7a8.655,8.655,0,0,1,8.654,8.648v10.7a8.658,8.658,0,0,1-8.654,8.647Zm-5.551-19.34v10.7a5.542,5.542,0,0,0,5.537,5.536h10.7a5.54,5.54,0,0,0,5.535-5.536v-10.7a5.539,5.539,0,0,0-5.535-5.531h-10.7A5.54,5.54,0,0,0,18481.76,12132.325Zm4.9,5.342a6,6,0,1,1,6,6A6.008,6.008,0,0,1,18486.66,12137.667Zm2.354,0a3.645,3.645,0,1,0,3.643-3.642A3.645,3.645,0,0,0,18489.014,12137.667Zm8.645-7a2,2,0,1,1,2,2A2,2,0,0,1,18497.658,12130.667Z" transform="translate(-17440.656 -4193.668)" fill="url(#linear-gradient)"/>
  </g>
</svg>
